# Tiled2Unity generated file. Do not modify by hand.
# Wavefront file for 'sin-nombre_mesh_0002.obj'

# Vertices (Count = 136)
v -4 -1 0
v -5 -1 0
v -5 0 0
v -4 0 0
v -5 -1 0
v -6 -1 0
v -6 0 0
v -5 0 0
v -6 -1 0
v -7 -1 0
v -7 0 0
v -6 0 0
v -7 -1 0
v -8 -1 0
v -8 0 0
v -7 0 0
v -8 -1 0
v -9 -1 0
v -9 0 0
v -8 0 0
v -9 -1 0
v -10 -1 0
v -10 0 0
v -9 0 0
v -10 -1 0
v -11 -1 0
v -11 0 0
v -10 0 0
v -11 -1 0
v -12 -1 0
v -12 0 0
v -11 0 0
v -12 -1 0
v -13 -1 0
v -13 0 0
v -12 0 0
v -13 -1 0
v -14 -1 0
v -14 0 0
v -13 0 0
v -14 -1 0
v -15 -1 0
v -15 0 0
v -14 0 0
v -14 -2 0
v -15 -2 0
v -15 -1 0
v -14 -1 0
v -14 -3 0
v -15 -3 0
v -15 -2 0
v -14 -2 0
v -14 -4 0
v -15 -4 0
v -15 -3 0
v -14 -3 0
v -14 -5 0
v -15 -5 0
v -15 -4 0
v -14 -4 0
v -14 -6 0
v -15 -6 0
v -15 -5 0
v -14 -5 0
v -14 -7 0
v -15 -7 0
v -15 -6 0
v -14 -6 0
v -14 -9 0
v -15 -9 0
v -15 -8 0
v -14 -8 0
v -14 -10 0
v -15 -10 0
v -15 -9 0
v -14 -9 0
v -14 -11 0
v -15 -11 0
v -15 -10 0
v -14 -10 0
v -14 -12 0
v -15 -12 0
v -15 -11 0
v -14 -11 0
v -14 -13 0
v -15 -13 0
v -15 -12 0
v -14 -12 0
v -14 -14 0
v -15 -14 0
v -15 -13 0
v -14 -13 0
v -3 -15 0
v -4 -15 0
v -4 -14 0
v -3 -14 0
v -4 -15 0
v -5 -15 0
v -5 -14 0
v -4 -14 0
v -5 -15 0
v -6 -15 0
v -6 -14 0
v -5 -14 0
v -6 -15 0
v -7 -15 0
v -7 -14 0
v -6 -14 0
v -8 -15 0
v -9 -15 0
v -9 -14 0
v -8 -14 0
v -9 -15 0
v -10 -15 0
v -10 -14 0
v -9 -14 0
v -10 -15 0
v -11 -15 0
v -11 -14 0
v -10 -14 0
v -11 -15 0
v -12 -15 0
v -12 -14 0
v -11 -14 0
v -12 -15 0
v -13 -15 0
v -13 -14 0
v -12 -14 0
v -13 -15 0
v -14 -15 0
v -14 -14 0
v -13 -14 0
v -14 -15 0
v -15 -15 0
v -15 -14 0
v -14 -14 0

# Texture cooridinates (Count = 16)
vt 0.025 0.5555556
vt 0.05 0.5555556
vt 0.05 0.5833334
vt 0.025 0.5833334
vt 0.075 0.5555556
vt 0.075 0.5833334
vt 0.075 0.6111111
vt 0.1 0.6111111
vt 0.1 0.6388889
vt 0.075 0.6388889
vt 0.05 0.6111111
vt 0.025 0.6111111
vt 0.05 0.6388889
vt 0.025 0.6388889
vt 0.1 0.5555556
vt 0.1 0.5833334

# Normal
vn 0 0 -1

# Mesh description
g sin-nombre_mesh_0002

# Faces
f 1/1/1 2/2/1 3/3/1 4/4/1
f 5/2/1 6/5/1 7/6/1 8/3/1
f 9/2/1 10/5/1 11/6/1 12/3/1
f 13/2/1 14/5/1 15/6/1 16/3/1
f 17/2/1 18/5/1 19/6/1 20/3/1
f 21/2/1 22/5/1 23/6/1 24/3/1
f 25/2/1 26/5/1 27/6/1 28/3/1
f 29/2/1 30/5/1 31/6/1 32/3/1
f 33/2/1 34/5/1 35/6/1 36/3/1
f 37/2/1 38/5/1 39/6/1 40/3/1
f 41/7/1 42/8/1 43/9/1 44/10/1
f 45/4/1 46/3/1 47/11/1 48/12/1
f 49/4/1 50/3/1 51/11/1 52/12/1
f 53/4/1 54/3/1 55/11/1 56/12/1
f 57/4/1 58/3/1 59/11/1 60/12/1
f 61/4/1 62/3/1 63/11/1 64/12/1
f 65/1/1 66/2/1 67/3/1 68/4/1
f 69/12/1 70/11/1 71/13/1 72/14/1
f 73/4/1 74/3/1 75/11/1 76/12/1
f 77/4/1 78/3/1 79/11/1 80/12/1
f 81/4/1 82/3/1 83/11/1 84/12/1
f 85/4/1 86/3/1 87/11/1 88/12/1
f 89/4/1 90/3/1 91/11/1 92/12/1
f 93/12/1 94/11/1 95/13/1 96/14/1
f 97/11/1 98/7/1 99/10/1 100/13/1
f 101/11/1 102/7/1 103/10/1 104/13/1
f 105/7/1 106/8/1 107/9/1 108/10/1
f 109/12/1 110/11/1 111/13/1 112/14/1
f 113/11/1 114/7/1 115/10/1 116/13/1
f 117/11/1 118/7/1 119/10/1 120/13/1
f 121/11/1 122/7/1 123/10/1 124/13/1
f 125/11/1 126/7/1 127/10/1 128/13/1
f 129/11/1 130/7/1 131/10/1 132/13/1
f 133/5/1 134/15/1 135/16/1 136/6/1

