# Tiled2Unity generated file. Do not modify by hand.
# Wavefront file for 'Cueva_mesh_0005.obj'

# Vertices (Count = 84)
v -3 -6 0
v -4 -6 0
v -4 -5 0
v -3 -5 0
v -6 -6 0
v -7 -6 0
v -7 -5 0
v -6 -5 0
v -3 -7 0
v -4 -7 0
v -4 -6 0
v -3 -6 0
v -6 -7 0
v -7 -7 0
v -7 -6 0
v -6 -6 0
v -3 -8 0
v -4 -8 0
v -4 -7 0
v -3 -7 0
v -6 -8 0
v -7 -8 0
v -7 -7 0
v -6 -7 0
v -3 -9 0
v -4 -9 0
v -4 -8 0
v -3 -8 0
v -6 -9 0
v -7 -9 0
v -7 -8 0
v -6 -8 0
v -3 -10 0
v -4 -10 0
v -4 -9 0
v -3 -9 0
v -12 -10 0
v -13 -10 0
v -13 -9 0
v -12 -9 0
v -13 -10 0
v -14 -10 0
v -14 -9 0
v -13 -9 0
v -3 -11 0
v -4 -11 0
v -4 -10 0
v -3 -10 0
v -12 -11 0
v -13 -11 0
v -13 -10 0
v -12 -10 0
v -13 -11 0
v -14 -11 0
v -14 -10 0
v -13 -10 0
v -3 -12 0
v -4 -12 0
v -4 -11 0
v -3 -11 0
v -7 -12 0
v -8 -12 0
v -8 -11 0
v -7 -11 0
v -8 -12 0
v -9 -12 0
v -9 -11 0
v -8 -11 0
v -12 -12 0
v -13 -12 0
v -13 -11 0
v -12 -11 0
v -13 -12 0
v -14 -12 0
v -14 -11 0
v -13 -11 0
v -12 -13 0
v -13 -13 0
v -13 -12 0
v -12 -12 0
v -13 -13 0
v -14 -13 0
v -14 -12 0
v -13 -12 0

# Texture cooridinates (Count = 15)
vt 0.40625 0.03125
vt 0.4375 0.03125
vt 0.4375 0.0625
vt 0.40625 0.0625
vt 0.46875 0.03125
vt 0.46875 0.0625
vt 0.40625 0
vt 0.4375 0
vt 0.46875 0
vt 0.5 0
vt 0.5 0.03125
vt 0.53125 0
vt 0.53125 0.03125
vt 0.53125 0.0625
vt 0.5 0.0625

# Normal
vn 0 0 -1

# Mesh description
g Cueva_mesh_0005

# Faces
f 1/1/1 2/2/1 3/3/1 4/4/1
f 5/2/1 6/5/1 7/6/1 8/3/1
f 9/7/1 10/8/1 11/2/1 12/1/1
f 13/2/1 14/5/1 15/6/1 16/3/1
f 17/9/1 18/10/1 19/11/1 20/5/1
f 21/2/1 22/5/1 23/6/1 24/3/1
f 25/10/1 26/12/1 27/13/1 28/11/1
f 29/2/1 30/5/1 31/6/1 32/3/1
f 33/11/1 34/13/1 35/14/1 36/15/1
f 37/5/1 38/11/1 39/15/1 40/6/1
f 41/11/1 42/13/1 43/14/1 44/15/1
f 45/11/1 46/13/1 47/14/1 48/15/1
f 49/5/1 50/11/1 51/15/1 52/6/1
f 53/11/1 54/13/1 55/14/1 56/15/1
f 57/10/1 58/12/1 59/13/1 60/11/1
f 61/5/1 62/11/1 63/15/1 64/6/1
f 65/11/1 66/13/1 67/14/1 68/15/1
f 69/5/1 70/11/1 71/15/1 72/6/1
f 73/11/1 74/13/1 75/14/1 76/15/1
f 77/1/1 78/2/1 79/3/1 80/4/1
f 81/1/1 82/2/1 83/3/1 84/4/1

