# Tiled2Unity generated file. Do not modify by hand.
# Wavefront file for 'Lago_mesh_0003.obj'

# Vertices (Count = 932)
v 0 -1 0
v -1 -1 0
v -1 0 0
v 0 0 0
v -1 -1 0
v -2 -1 0
v -2 0 0
v -1 0 0
v -2 -1 0
v -3 -1 0
v -3 0 0
v -2 0 0
v -3 -1 0
v -4 -1 0
v -4 0 0
v -3 0 0
v -4 -1 0
v -5 -1 0
v -5 0 0
v -4 0 0
v -5 -1 0
v -6 -1 0
v -6 0 0
v -5 0 0
v -6 -1 0
v -7 -1 0
v -7 0 0
v -6 0 0
v -7 -1 0
v -8 -1 0
v -8 0 0
v -7 0 0
v -8 -1 0
v -9 -1 0
v -9 0 0
v -8 0 0
v -9 -1 0
v -10 -1 0
v -10 0 0
v -9 0 0
v -10 -1 0
v -11 -1 0
v -11 0 0
v -10 0 0
v -11 -1 0
v -12 -1 0
v -12 0 0
v -11 0 0
v -12 -1 0
v -13 -1 0
v -13 0 0
v -12 0 0
v -13 -1 0
v -14 -1 0
v -14 0 0
v -13 0 0
v -14 -1 0
v -15 -1 0
v -15 0 0
v -14 0 0
v -15 -1 0
v -16 -1 0
v -16 0 0
v -15 0 0
v -16 -1 0
v -17 -1 0
v -17 0 0
v -16 0 0
v -17 -1 0
v -18 -1 0
v -18 0 0
v -17 0 0
v -18 -1 0
v -19 -1 0
v -19 0 0
v -18 0 0
v -19 -1 0
v -20 -1 0
v -20 0 0
v -19 0 0
v 0 -2 0
v -1 -2 0
v -1 -1 0
v 0 -1 0
v -1 -2 0
v -2 -2 0
v -2 -1 0
v -1 -1 0
v -2 -2 0
v -3 -2 0
v -3 -1 0
v -2 -1 0
v -3 -2 0
v -4 -2 0
v -4 -1 0
v -3 -1 0
v -4 -2 0
v -5 -2 0
v -5 -1 0
v -4 -1 0
v -5 -2 0
v -6 -2 0
v -6 -1 0
v -5 -1 0
v -6 -2 0
v -7 -2 0
v -7 -1 0
v -6 -1 0
v -7 -2 0
v -8 -2 0
v -8 -1 0
v -7 -1 0
v -8 -2 0
v -9 -2 0
v -9 -1 0
v -8 -1 0
v -9 -2 0
v -10 -2 0
v -10 -1 0
v -9 -1 0
v -10 -2 0
v -11 -2 0
v -11 -1 0
v -10 -1 0
v -11 -2 0
v -12 -2 0
v -12 -1 0
v -11 -1 0
v -12 -2 0
v -13 -2 0
v -13 -1 0
v -12 -1 0
v -13 -2 0
v -14 -2 0
v -14 -1 0
v -13 -1 0
v -14 -2 0
v -15 -2 0
v -15 -1 0
v -14 -1 0
v -15 -2 0
v -16 -2 0
v -16 -1 0
v -15 -1 0
v -16 -2 0
v -17 -2 0
v -17 -1 0
v -16 -1 0
v -17 -2 0
v -18 -2 0
v -18 -1 0
v -17 -1 0
v -18 -2 0
v -19 -2 0
v -19 -1 0
v -18 -1 0
v -19 -2 0
v -20 -2 0
v -20 -1 0
v -19 -1 0
v 0 -3 0
v -1 -3 0
v -1 -2 0
v 0 -2 0
v -1 -3 0
v -2 -3 0
v -2 -2 0
v -1 -2 0
v -2 -3 0
v -3 -3 0
v -3 -2 0
v -2 -2 0
v -3 -3 0
v -4 -3 0
v -4 -2 0
v -3 -2 0
v -4 -3 0
v -5 -3 0
v -5 -2 0
v -4 -2 0
v -5 -3 0
v -6 -3 0
v -6 -2 0
v -5 -2 0
v -6 -3 0
v -7 -3 0
v -7 -2 0
v -6 -2 0
v -7 -3 0
v -8 -3 0
v -8 -2 0
v -7 -2 0
v -8 -3 0
v -9 -3 0
v -9 -2 0
v -8 -2 0
v -9 -3 0
v -10 -3 0
v -10 -2 0
v -9 -2 0
v -10 -3 0
v -11 -3 0
v -11 -2 0
v -10 -2 0
v -11 -3 0
v -12 -3 0
v -12 -2 0
v -11 -2 0
v -12 -3 0
v -13 -3 0
v -13 -2 0
v -12 -2 0
v -13 -3 0
v -14 -3 0
v -14 -2 0
v -13 -2 0
v -14 -3 0
v -15 -3 0
v -15 -2 0
v -14 -2 0
v -15 -3 0
v -16 -3 0
v -16 -2 0
v -15 -2 0
v -16 -3 0
v -17 -3 0
v -17 -2 0
v -16 -2 0
v -17 -3 0
v -18 -3 0
v -18 -2 0
v -17 -2 0
v -18 -3 0
v -19 -3 0
v -19 -2 0
v -18 -2 0
v -19 -3 0
v -20 -3 0
v -20 -2 0
v -19 -2 0
v 0 -4 0
v -1 -4 0
v -1 -3 0
v 0 -3 0
v -1 -4 0
v -2 -4 0
v -2 -3 0
v -1 -3 0
v -2 -4 0
v -3 -4 0
v -3 -3 0
v -2 -3 0
v -3 -4 0
v -4 -4 0
v -4 -3 0
v -3 -3 0
v -4 -4 0
v -5 -4 0
v -5 -3 0
v -4 -3 0
v -5 -4 0
v -6 -4 0
v -6 -3 0
v -5 -3 0
v -6 -4 0
v -7 -4 0
v -7 -3 0
v -6 -3 0
v -7 -4 0
v -8 -4 0
v -8 -3 0
v -7 -3 0
v -8 -4 0
v -9 -4 0
v -9 -3 0
v -8 -3 0
v -9 -4 0
v -10 -4 0
v -10 -3 0
v -9 -3 0
v -10 -4 0
v -11 -4 0
v -11 -3 0
v -10 -3 0
v -11 -4 0
v -12 -4 0
v -12 -3 0
v -11 -3 0
v -12 -4 0
v -13 -4 0
v -13 -3 0
v -12 -3 0
v -13 -4 0
v -14 -4 0
v -14 -3 0
v -13 -3 0
v -14 -4 0
v -15 -4 0
v -15 -3 0
v -14 -3 0
v -15 -4 0
v -16 -4 0
v -16 -3 0
v -15 -3 0
v -16 -4 0
v -17 -4 0
v -17 -3 0
v -16 -3 0
v -17 -4 0
v -18 -4 0
v -18 -3 0
v -17 -3 0
v -18 -4 0
v -19 -4 0
v -19 -3 0
v -18 -3 0
v -19 -4 0
v -20 -4 0
v -20 -3 0
v -19 -3 0
v 0 -5 0
v -1 -5 0
v -1 -4 0
v 0 -4 0
v -1 -5 0
v -2 -5 0
v -2 -4 0
v -1 -4 0
v -2 -5 0
v -3 -5 0
v -3 -4 0
v -2 -4 0
v -3 -5 0
v -4 -5 0
v -4 -4 0
v -3 -4 0
v -4 -5 0
v -5 -5 0
v -5 -4 0
v -4 -4 0
v -5 -5 0
v -6 -5 0
v -6 -4 0
v -5 -4 0
v -6 -5 0
v -7 -5 0
v -7 -4 0
v -6 -4 0
v -7 -5 0
v -8 -5 0
v -8 -4 0
v -7 -4 0
v -8 -5 0
v -9 -5 0
v -9 -4 0
v -8 -4 0
v -9 -5 0
v -10 -5 0
v -10 -4 0
v -9 -4 0
v -10 -5 0
v -11 -5 0
v -11 -4 0
v -10 -4 0
v -11 -5 0
v -12 -5 0
v -12 -4 0
v -11 -4 0
v -13 -5 0
v -14 -5 0
v -14 -4 0
v -13 -4 0
v -18 -5 0
v -19 -5 0
v -19 -4 0
v -18 -4 0
v -19 -5 0
v -20 -5 0
v -20 -4 0
v -19 -4 0
v -13 -6 0
v -14 -6 0
v -14 -5 0
v -13 -5 0
v -18 -6 0
v -19 -6 0
v -19 -5 0
v -18 -5 0
v -19 -6 0
v -20 -6 0
v -20 -5 0
v -19 -5 0
v 0 -7 0
v -1 -7 0
v -1 -6 0
v 0 -6 0
v -1 -7 0
v -2 -7 0
v -2 -6 0
v -1 -6 0
v -9 -7 0
v -10 -7 0
v -10 -6 0
v -9 -6 0
v -13 -7 0
v -14 -7 0
v -14 -6 0
v -13 -6 0
v -18 -7 0
v -19 -7 0
v -19 -6 0
v -18 -6 0
v -19 -7 0
v -20 -7 0
v -20 -6 0
v -19 -6 0
v 0 -8 0
v -1 -8 0
v -1 -7 0
v 0 -7 0
v -1 -8 0
v -2 -8 0
v -2 -7 0
v -1 -7 0
v -13 -8 0
v -14 -8 0
v -14 -7 0
v -13 -7 0
v 0 -9 0
v -1 -9 0
v -1 -8 0
v 0 -8 0
v -1 -9 0
v -2 -9 0
v -2 -8 0
v -1 -8 0
v -2 -9 0
v -3 -9 0
v -3 -8 0
v -2 -8 0
v -9 -9 0
v -10 -9 0
v -10 -8 0
v -9 -8 0
v -13 -9 0
v -14 -9 0
v -14 -8 0
v -13 -8 0
v -16 -9 0
v -17 -9 0
v -17 -8 0
v -16 -8 0
v 0 -10 0
v -1 -10 0
v -1 -9 0
v 0 -9 0
v -1 -10 0
v -2 -10 0
v -2 -9 0
v -1 -9 0
v -2 -10 0
v -3 -10 0
v -3 -9 0
v -2 -9 0
v -9 -10 0
v -10 -10 0
v -10 -9 0
v -9 -9 0
v -16 -10 0
v -17 -10 0
v -17 -9 0
v -16 -9 0
v 0 -11 0
v -1 -11 0
v -1 -10 0
v 0 -10 0
v -1 -11 0
v -2 -11 0
v -2 -10 0
v -1 -10 0
v -2 -11 0
v -3 -11 0
v -3 -10 0
v -2 -10 0
v -9 -11 0
v -10 -11 0
v -10 -10 0
v -9 -10 0
v -10 -11 0
v -11 -11 0
v -11 -10 0
v -10 -10 0
v -15 -11 0
v -16 -11 0
v -16 -10 0
v -15 -10 0
v -16 -11 0
v -17 -11 0
v -17 -10 0
v -16 -10 0
v -17 -11 0
v -18 -11 0
v -18 -10 0
v -17 -10 0
v 0 -12 0
v -1 -12 0
v -1 -11 0
v 0 -11 0
v -1 -12 0
v -2 -12 0
v -2 -11 0
v -1 -11 0
v -2 -12 0
v -3 -12 0
v -3 -11 0
v -2 -11 0
v -9 -12 0
v -10 -12 0
v -10 -11 0
v -9 -11 0
v -15 -12 0
v -16 -12 0
v -16 -11 0
v -15 -11 0
v -16 -12 0
v -17 -12 0
v -17 -11 0
v -16 -11 0
v -17 -12 0
v -18 -12 0
v -18 -11 0
v -17 -11 0
v 0 -13 0
v -1 -13 0
v -1 -12 0
v 0 -12 0
v -1 -13 0
v -2 -13 0
v -2 -12 0
v -1 -12 0
v -2 -13 0
v -3 -13 0
v -3 -12 0
v -2 -12 0
v -9 -13 0
v -10 -13 0
v -10 -12 0
v -9 -12 0
v -13 -13 0
v -14 -13 0
v -14 -12 0
v -13 -12 0
v -15 -13 0
v -16 -13 0
v -16 -12 0
v -15 -12 0
v -16 -13 0
v -17 -13 0
v -17 -12 0
v -16 -12 0
v -17 -13 0
v -18 -13 0
v -18 -12 0
v -17 -12 0
v 0 -14 0
v -1 -14 0
v -1 -13 0
v 0 -13 0
v -1 -14 0
v -2 -14 0
v -2 -13 0
v -1 -13 0
v -2 -14 0
v -3 -14 0
v -3 -13 0
v -2 -13 0
v -9 -14 0
v -10 -14 0
v -10 -13 0
v -9 -13 0
v -15 -14 0
v -16 -14 0
v -16 -13 0
v -15 -13 0
v -16 -14 0
v -17 -14 0
v -17 -13 0
v -16 -13 0
v -17 -14 0
v -18 -14 0
v -18 -13 0
v -17 -13 0
v -18 -14 0
v -19 -14 0
v -19 -13 0
v -18 -13 0
v 0 -15 0
v -1 -15 0
v -1 -14 0
v 0 -14 0
v -1 -15 0
v -2 -15 0
v -2 -14 0
v -1 -14 0
v -2 -15 0
v -3 -15 0
v -3 -14 0
v -2 -14 0
v -9 -15 0
v -10 -15 0
v -10 -14 0
v -9 -14 0
v -10 -15 0
v -11 -15 0
v -11 -14 0
v -10 -14 0
v -11 -15 0
v -12 -15 0
v -12 -14 0
v -11 -14 0
v -12 -15 0
v -13 -15 0
v -13 -14 0
v -12 -14 0
v -13 -15 0
v -14 -15 0
v -14 -14 0
v -13 -14 0
v -14 -15 0
v -15 -15 0
v -15 -14 0
v -14 -14 0
v -15 -15 0
v -16 -15 0
v -16 -14 0
v -15 -14 0
v -16 -15 0
v -17 -15 0
v -17 -14 0
v -16 -14 0
v -17 -15 0
v -18 -15 0
v -18 -14 0
v -17 -14 0
v -18 -15 0
v -19 -15 0
v -19 -14 0
v -18 -14 0
v -19 -15 0
v -20 -15 0
v -20 -14 0
v -19 -14 0
v 0 -16 0
v -1 -16 0
v -1 -15 0
v 0 -15 0
v -1 -16 0
v -2 -16 0
v -2 -15 0
v -1 -15 0
v -2 -16 0
v -3 -16 0
v -3 -15 0
v -2 -15 0
v -9 -16 0
v -10 -16 0
v -10 -15 0
v -9 -15 0
v -10 -16 0
v -11 -16 0
v -11 -15 0
v -10 -15 0
v -11 -16 0
v -12 -16 0
v -12 -15 0
v -11 -15 0
v -12 -16 0
v -13 -16 0
v -13 -15 0
v -12 -15 0
v -13 -16 0
v -14 -16 0
v -14 -15 0
v -13 -15 0
v -14 -16 0
v -15 -16 0
v -15 -15 0
v -14 -15 0
v -15 -16 0
v -16 -16 0
v -16 -15 0
v -15 -15 0
v -16 -16 0
v -17 -16 0
v -17 -15 0
v -16 -15 0
v -17 -16 0
v -18 -16 0
v -18 -15 0
v -17 -15 0
v -18 -16 0
v -19 -16 0
v -19 -15 0
v -18 -15 0
v -19 -16 0
v -20 -16 0
v -20 -15 0
v -19 -15 0
v 0 -17 0
v -1 -17 0
v -1 -16 0
v 0 -16 0
v -1 -17 0
v -2 -17 0
v -2 -16 0
v -1 -16 0
v -2 -17 0
v -3 -17 0
v -3 -16 0
v -2 -16 0
v -3 -17 0
v -4 -17 0
v -4 -16 0
v -3 -16 0
v -4 -17 0
v -5 -17 0
v -5 -16 0
v -4 -16 0
v -5 -17 0
v -6 -17 0
v -6 -16 0
v -5 -16 0
v -6 -17 0
v -7 -17 0
v -7 -16 0
v -6 -16 0
v -7 -17 0
v -8 -17 0
v -8 -16 0
v -7 -16 0
v -8 -17 0
v -9 -17 0
v -9 -16 0
v -8 -16 0
v -9 -17 0
v -10 -17 0
v -10 -16 0
v -9 -16 0
v -10 -17 0
v -11 -17 0
v -11 -16 0
v -10 -16 0
v -11 -17 0
v -12 -17 0
v -12 -16 0
v -11 -16 0
v -12 -17 0
v -13 -17 0
v -13 -16 0
v -12 -16 0
v -13 -17 0
v -14 -17 0
v -14 -16 0
v -13 -16 0
v -14 -17 0
v -15 -17 0
v -15 -16 0
v -14 -16 0
v -15 -17 0
v -16 -17 0
v -16 -16 0
v -15 -16 0
v -16 -17 0
v -17 -17 0
v -17 -16 0
v -16 -16 0
v -19 -17 0
v -20 -17 0
v -20 -16 0
v -19 -16 0
v 0 -18 0
v -1 -18 0
v -1 -17 0
v 0 -17 0
v -1 -18 0
v -2 -18 0
v -2 -17 0
v -1 -17 0
v -2 -18 0
v -3 -18 0
v -3 -17 0
v -2 -17 0
v -3 -18 0
v -4 -18 0
v -4 -17 0
v -3 -17 0
v -4 -18 0
v -5 -18 0
v -5 -17 0
v -4 -17 0
v -5 -18 0
v -6 -18 0
v -6 -17 0
v -5 -17 0
v -6 -18 0
v -7 -18 0
v -7 -17 0
v -6 -17 0
v -7 -18 0
v -8 -18 0
v -8 -17 0
v -7 -17 0
v -8 -18 0
v -9 -18 0
v -9 -17 0
v -8 -17 0
v -9 -18 0
v -10 -18 0
v -10 -17 0
v -9 -17 0
v -10 -18 0
v -11 -18 0
v -11 -17 0
v -10 -17 0
v -11 -18 0
v -12 -18 0
v -12 -17 0
v -11 -17 0
v -12 -18 0
v -13 -18 0
v -13 -17 0
v -12 -17 0
v -13 -18 0
v -14 -18 0
v -14 -17 0
v -13 -17 0
v -14 -18 0
v -15 -18 0
v -15 -17 0
v -14 -17 0
v -15 -18 0
v -16 -18 0
v -16 -17 0
v -15 -17 0
v -16 -18 0
v -17 -18 0
v -17 -17 0
v -16 -17 0
v -19 -18 0
v -20 -18 0
v -20 -17 0
v -19 -17 0
v 0 -19 0
v -1 -19 0
v -1 -18 0
v 0 -18 0
v -1 -19 0
v -2 -19 0
v -2 -18 0
v -1 -18 0
v -2 -19 0
v -3 -19 0
v -3 -18 0
v -2 -18 0
v -3 -19 0
v -4 -19 0
v -4 -18 0
v -3 -18 0
v -4 -19 0
v -5 -19 0
v -5 -18 0
v -4 -18 0
v -5 -19 0
v -6 -19 0
v -6 -18 0
v -5 -18 0
v -6 -19 0
v -7 -19 0
v -7 -18 0
v -6 -18 0
v -7 -19 0
v -8 -19 0
v -8 -18 0
v -7 -18 0
v -8 -19 0
v -9 -19 0
v -9 -18 0
v -8 -18 0
v -9 -19 0
v -10 -19 0
v -10 -18 0
v -9 -18 0
v -10 -19 0
v -11 -19 0
v -11 -18 0
v -10 -18 0
v -11 -19 0
v -12 -19 0
v -12 -18 0
v -11 -18 0
v -12 -19 0
v -13 -19 0
v -13 -18 0
v -12 -18 0
v -13 -19 0
v -14 -19 0
v -14 -18 0
v -13 -18 0
v -14 -19 0
v -15 -19 0
v -15 -18 0
v -14 -18 0
v -15 -19 0
v -16 -19 0
v -16 -18 0
v -15 -18 0
v -16 -19 0
v -17 -19 0
v -17 -18 0
v -16 -18 0
v -17 -19 0
v -18 -19 0
v -18 -18 0
v -17 -18 0
v -18 -19 0
v -19 -19 0
v -19 -18 0
v -18 -18 0
v -19 -19 0
v -20 -19 0
v -20 -18 0
v -19 -18 0

# Texture cooridinates (Count = 158)
vt 0.25 0.5
vt 0.275 0.5
vt 0.275 0.5277778
vt 0.25 0.5277778
vt 0.125 0.6666666
vt 0.15 0.6666666
vt 0.15 0.6944444
vt 0.125 0.6944444
vt 0.225 0.5
vt 0.225 0.5277778
vt 0.45 0.8055556
vt 0.475 0.8055556
vt 0.475 0.8333333
vt 0.45 0.8333333
vt 0.5 0.8055556
vt 0.5 0.8333333
vt 0.525 0.8055556
vt 0.525 0.8333333
vt 0.075 0.5833334
vt 0.1 0.5833334
vt 0.1 0.6111111
vt 0.075 0.6111111
vt 0.075 0.05555558
vt 0.1 0.05555558
vt 0.1 0.08333331
vt 0.075 0.08333331
vt 0.075 0.02777779
vt 0.1 0.02777779
vt 0.25 0.4722222
vt 0.275 0.4722222
vt 0.125 0.6388889
vt 0.15 0.6388889
vt 0.225 0.4722222
vt 0.45 0.7777778
vt 0.475 0.7777778
vt 0.5 0.7777778
vt 0.525 0.7777778
vt 0.05 0.05555558
vt 0.05 0.08333331
vt 0.075 0
vt 0.1 0
vt 0.25 0.4444444
vt 0.275 0.4444444
vt 0.125 0.6111111
vt 0.15 0.6111111
vt 0.225 0.4444444
vt 0.05 0.02777779
vt 0.175 0.4444444
vt 0.2 0.4444444
vt 0.2 0.4722222
vt 0.175 0.4722222
vt 0.1 0.4166667
vt 0.125 0.4166667
vt 0.125 0.4444444
vt 0.1 0.4444444
vt 0.15 0.4166667
vt 0.15 0.4444444
vt 0.45 0.75
vt 0.475 0.75
vt 0.5 0.75
vt 0.525 0.75
vt 0.075 0.4166667
vt 0.075 0.4444444
vt 0.15 0.4722222
vt 0.025 0.5555556
vt 0.05 0.5555556
vt 0.05 0.5833334
vt 0.025 0.5833334
vt 0.075 0.5555556
vt 0.1 0.5555556
vt 0.05 0
vt 0.05 0.6111111
vt 0.075 0.6388889
vt 0.05 0.6388889
vt 0.125 0.5555556
vt 0.125 0.5833334
vt 0.15 0.5555556
vt 0.15 0.5833334
vt 0.425 0.7222222
vt 0.45 0.7222222
vt 0.425 0.75
vt 0.475 0.7222222
vt 0.5 0.7222222
vt 0.175 0.5555556
vt 0.175 0.5833334
vt 0.675 0.8611111
vt 0.7 0.8611111
vt 0.7 0.8888889
vt 0.675 0.8888889
vt 0.675 0.8333333
vt 0.7 0.8333333
vt 0.5 0.9722222
vt 0.525 0.9722222
vt 0.525 1
vt 0.5 1
vt 0.55 0.9722222
vt 0.55 1
vt 0.075 0.9166667
vt 0.1 0.9166667
vt 0.1 0.9444444
vt 0.075 0.9444444
vt 0.675 0.8055556
vt 0.7 0.8055556
vt 0.5 0.9444444
vt 0.525 0.9444444
vt 0.55 0.9444444
vt 0.125 0
vt 0.125 0.02777779
vt 0.15 0
vt 0.15 0.02777779
vt 0.175 0
vt 0.175 0.02777779
vt 0.325 0
vt 0.35 0
vt 0.35 0.02777779
vt 0.325 0.02777779
vt 0.675 0.7777778
vt 0.7 0.7777778
vt 0.375 0.5
vt 0.4 0.5
vt 0.4 0.5277778
vt 0.375 0.5277778
vt 0.375 0.4722222
vt 0.4 0.4722222
vt 0.1 0.8888889
vt 0.125 0.8888889
vt 0.125 0.9166667
vt 0.35 0.4722222
vt 0.35 0.5
vt 0.425 0.4722222
vt 0.425 0.5
vt 0.4 0.9722222
vt 0.425 0.9722222
vt 0.425 1
vt 0.4 1
vt 0.45 0.9722222
vt 0.45 1
vt 0.2 0
vt 0.2 0.02777779
vt 0.225 0
vt 0.225 0.02777779
vt 0.25 0
vt 0.25 0.02777779
vt 0.375 0
vt 0.375 0.02777779
vt 0.4 0.9444444
vt 0.425 0.9444444
vt 0.45 0.9444444
vt 0.275 0
vt 0.275 0.02777779
vt 0.35 0.5277778
vt 0.425 0.5277778
vt 0.35 0.4444444
vt 0.375 0.4444444
vt 0.4 0.4444444
vt 0.425 0.4444444
vt 0.3 0
vt 0.3 0.02777779

# Normal
vn 0 0 -1

# Mesh description
g Lago_mesh_0003

# Faces
f 1/1/1 2/2/1 3/3/1 4/4/1
f 5/5/1 6/6/1 7/7/1 8/8/1
f 9/5/1 10/6/1 11/7/1 12/8/1
f 13/9/1 14/1/1 15/4/1 16/10/1
f 17/11/1 18/12/1 19/13/1 20/14/1
f 21/12/1 22/15/1 23/16/1 24/13/1
f 25/15/1 26/17/1 27/18/1 28/16/1
f 29/1/1 30/2/1 31/3/1 32/4/1
f 33/5/1 34/6/1 35/7/1 36/8/1
f 37/5/1 38/6/1 39/7/1 40/8/1
f 41/5/1 42/6/1 43/7/1 44/8/1
f 45/9/1 46/1/1 47/4/1 48/10/1
f 49/19/1 50/20/1 51/21/1 52/22/1
f 53/23/1 54/24/1 55/25/1 56/26/1
f 57/23/1 58/24/1 59/25/1 60/26/1
f 61/27/1 62/28/1 63/24/1 64/23/1
f 65/19/1 66/20/1 67/21/1 68/22/1
f 69/27/1 70/28/1 71/24/1 72/23/1
f 73/19/1 74/20/1 75/21/1 76/22/1
f 77/27/1 78/28/1 79/24/1 80/23/1
f 81/29/1 82/30/1 83/2/1 84/1/1
f 85/31/1 86/32/1 87/6/1 88/5/1
f 89/31/1 90/32/1 91/6/1 92/5/1
f 93/33/1 94/29/1 95/1/1 96/9/1
f 97/34/1 98/35/1 99/12/1 100/11/1
f 101/35/1 102/36/1 103/15/1 104/12/1
f 105/36/1 106/37/1 107/17/1 108/15/1
f 109/29/1 110/30/1 111/2/1 112/1/1
f 113/31/1 114/32/1 115/6/1 116/5/1
f 117/31/1 118/32/1 119/6/1 120/5/1
f 121/31/1 122/32/1 123/6/1 124/5/1
f 125/33/1 126/29/1 127/1/1 128/9/1
f 129/19/1 130/20/1 131/21/1 132/22/1
f 133/38/1 134/23/1 135/26/1 136/39/1
f 137/38/1 138/23/1 139/26/1 140/39/1
f 141/38/1 142/23/1 143/26/1 144/39/1
f 145/19/1 146/20/1 147/21/1 148/22/1
f 149/38/1 150/23/1 151/26/1 152/39/1
f 153/19/1 154/20/1 155/21/1 156/22/1
f 157/40/1 158/41/1 159/28/1 160/27/1
f 161/42/1 162/43/1 163/30/1 164/29/1
f 165/44/1 166/45/1 167/32/1 168/31/1
f 169/44/1 170/45/1 171/32/1 172/31/1
f 173/46/1 174/42/1 175/29/1 176/33/1
f 177/34/1 178/35/1 179/12/1 180/11/1
f 181/35/1 182/36/1 183/15/1 184/12/1
f 185/36/1 186/37/1 187/17/1 188/15/1
f 189/42/1 190/43/1 191/30/1 192/29/1
f 193/44/1 194/45/1 195/32/1 196/31/1
f 197/44/1 198/45/1 199/32/1 200/31/1
f 201/44/1 202/45/1 203/32/1 204/31/1
f 205/46/1 206/42/1 207/29/1 208/33/1
f 209/19/1 210/20/1 211/21/1 212/22/1
f 213/47/1 214/27/1 215/23/1 216/38/1
f 217/47/1 218/27/1 219/23/1 220/38/1
f 221/47/1 222/27/1 223/23/1 224/38/1
f 225/19/1 226/20/1 227/21/1 228/22/1
f 229/47/1 230/27/1 231/23/1 232/38/1
f 233/19/1 234/20/1 235/21/1 236/22/1
f 237/40/1 238/41/1 239/28/1 240/27/1
f 241/48/1 242/49/1 243/50/1 244/51/1
f 245/52/1 246/53/1 247/54/1 248/55/1
f 249/52/1 250/53/1 251/54/1 252/55/1
f 253/53/1 254/56/1 255/57/1 256/54/1
f 257/58/1 258/59/1 259/35/1 260/34/1
f 261/59/1 262/60/1 263/36/1 264/35/1
f 265/60/1 266/61/1 267/37/1 268/36/1
f 269/62/1 270/52/1 271/55/1 272/63/1
f 273/52/1 274/53/1 275/54/1 276/55/1
f 277/52/1 278/53/1 279/54/1 280/55/1
f 281/52/1 282/53/1 283/54/1 284/55/1
f 285/57/1 286/48/1 287/51/1 288/64/1
f 289/65/1 290/66/1 291/67/1 292/68/1
f 293/66/1 294/69/1 295/19/1 296/67/1
f 297/66/1 298/69/1 299/19/1 300/67/1
f 301/66/1 302/69/1 303/19/1 304/67/1
f 305/69/1 306/70/1 307/20/1 308/19/1
f 309/71/1 310/40/1 311/27/1 312/47/1
f 313/65/1 314/66/1 315/67/1 316/68/1
f 317/72/1 318/22/1 319/73/1 320/74/1
f 321/70/1 322/75/1 323/76/1 324/20/1
f 325/75/1 326/77/1 327/78/1 328/76/1
f 329/75/1 330/77/1 331/78/1 332/76/1
f 333/79/1 334/80/1 335/58/1 336/81/1
f 337/80/1 338/82/1 339/59/1 340/58/1
f 341/80/1 342/82/1 343/59/1 344/58/1
f 345/80/1 346/82/1 347/59/1 348/58/1
f 349/82/1 350/83/1 351/60/1 352/59/1
f 353/75/1 354/77/1 355/78/1 356/76/1
f 357/75/1 358/77/1 359/78/1 360/76/1
f 361/75/1 362/77/1 363/78/1 364/76/1
f 365/77/1 366/84/1 367/85/1 368/78/1
f 369/86/1 370/87/1 371/88/1 372/89/1
f 373/71/1 374/40/1 375/27/1 376/47/1
f 377/40/1 378/41/1 379/28/1 380/27/1
f 381/90/1 382/91/1 383/87/1 384/86/1
f 385/71/1 386/40/1 387/27/1 388/47/1
f 389/40/1 390/41/1 391/28/1 392/27/1
f 393/92/1 394/93/1 395/94/1 396/95/1
f 397/93/1 398/96/1 399/97/1 400/94/1
f 401/98/1 402/99/1 403/100/1 404/101/1
f 405/102/1 406/103/1 407/91/1 408/90/1
f 409/71/1 410/40/1 411/27/1 412/47/1
f 413/40/1 414/41/1 415/28/1 416/27/1
f 417/104/1 418/105/1 419/93/1 420/92/1
f 421/105/1 422/106/1 423/96/1 424/93/1
f 425/102/1 426/103/1 427/91/1 428/90/1
f 429/41/1 430/107/1 431/108/1 432/28/1
f 433/107/1 434/109/1 435/110/1 436/108/1
f 437/109/1 438/111/1 439/112/1 440/110/1
f 441/113/1 442/114/1 443/115/1 444/116/1
f 445/117/1 446/118/1 447/103/1 448/102/1
f 449/119/1 450/120/1 451/121/1 452/122/1
f 453/41/1 454/107/1 455/108/1 456/28/1
f 457/107/1 458/109/1 459/110/1 460/108/1
f 461/109/1 462/111/1 463/112/1 464/110/1
f 465/113/1 466/114/1 467/115/1 468/116/1
f 469/123/1 470/124/1 471/120/1 472/119/1
f 473/41/1 474/107/1 475/108/1 476/28/1
f 477/107/1 478/109/1 479/110/1 480/108/1
f 481/98/1 482/99/1 483/100/1 484/101/1
f 485/113/1 486/114/1 487/115/1 488/116/1
f 489/125/1 490/126/1 491/127/1 492/99/1
f 493/128/1 494/123/1 495/119/1 496/129/1
f 497/123/1 498/124/1 499/120/1 500/119/1
f 501/124/1 502/130/1 503/131/1 504/120/1
f 505/41/1 506/107/1 507/108/1 508/28/1
f 509/107/1 510/109/1 511/110/1 512/108/1
f 513/109/1 514/111/1 515/112/1 516/110/1
f 517/113/1 518/114/1 519/115/1 520/116/1
f 521/128/1 522/123/1 523/119/1 524/129/1
f 525/123/1 526/124/1 527/120/1 528/119/1
f 529/124/1 530/130/1 531/131/1 532/120/1
f 533/41/1 534/107/1 535/108/1 536/28/1
f 537/107/1 538/109/1 539/110/1 540/108/1
f 541/109/1 542/111/1 543/112/1 544/110/1
f 545/113/1 546/114/1 547/115/1 548/116/1
f 549/98/1 550/99/1 551/100/1 552/101/1
f 553/128/1 554/123/1 555/119/1 556/129/1
f 557/123/1 558/124/1 559/120/1 560/119/1
f 561/124/1 562/130/1 563/131/1 564/120/1
f 565/41/1 566/107/1 567/108/1 568/28/1
f 569/107/1 570/109/1 571/110/1 572/108/1
f 573/109/1 574/111/1 575/112/1 576/110/1
f 577/113/1 578/114/1 579/115/1 580/116/1
f 581/128/1 582/123/1 583/119/1 584/129/1
f 585/123/1 586/124/1 587/120/1 588/119/1
f 589/124/1 590/130/1 591/131/1 592/120/1
f 593/98/1 594/99/1 595/100/1 596/101/1
f 597/41/1 598/107/1 599/108/1 600/28/1
f 601/107/1 602/109/1 603/110/1 604/108/1
f 605/109/1 606/111/1 607/112/1 608/110/1
f 609/132/1 610/133/1 611/134/1 612/135/1
f 613/133/1 614/136/1 615/137/1 616/134/1
f 617/109/1 618/111/1 619/112/1 620/110/1
f 621/111/1 622/138/1 623/139/1 624/112/1
f 625/138/1 626/140/1 627/141/1 628/139/1
f 629/140/1 630/142/1 631/143/1 632/141/1
f 633/128/1 634/123/1 635/119/1 636/129/1
f 637/123/1 638/124/1 639/120/1 640/119/1
f 641/124/1 642/130/1 643/131/1 644/120/1
f 645/113/1 646/114/1 647/115/1 648/116/1
f 649/114/1 650/144/1 651/145/1 652/115/1
f 653/41/1 654/107/1 655/108/1 656/28/1
f 657/107/1 658/109/1 659/110/1 660/108/1
f 661/109/1 662/111/1 663/112/1 664/110/1
f 665/146/1 666/147/1 667/133/1 668/132/1
f 669/147/1 670/148/1 671/136/1 672/133/1
f 673/109/1 674/111/1 675/112/1 676/110/1
f 677/111/1 678/138/1 679/139/1 680/112/1
f 681/138/1 682/140/1 683/141/1 684/139/1
f 685/140/1 686/142/1 687/143/1 688/141/1
f 689/128/1 690/123/1 691/119/1 692/129/1
f 693/123/1 694/124/1 695/120/1 696/119/1
f 697/124/1 698/130/1 699/131/1 700/120/1
f 701/113/1 702/114/1 703/115/1 704/116/1
f 705/114/1 706/144/1 707/145/1 708/115/1
f 709/41/1 710/107/1 711/108/1 712/28/1
f 713/107/1 714/109/1 715/110/1 716/108/1
f 717/109/1 718/111/1 719/112/1 720/110/1
f 721/111/1 722/138/1 723/139/1 724/112/1
f 725/138/1 726/140/1 727/141/1 728/139/1
f 729/140/1 730/142/1 731/143/1 732/141/1
f 733/142/1 734/149/1 735/150/1 736/143/1
f 737/129/1 738/119/1 739/122/1 740/151/1
f 741/119/1 742/120/1 743/121/1 744/122/1
f 745/119/1 746/120/1 747/121/1 748/122/1
f 749/119/1 750/120/1 751/121/1 752/122/1
f 753/119/1 754/120/1 755/121/1 756/122/1
f 757/119/1 758/120/1 759/121/1 760/122/1
f 761/119/1 762/120/1 763/121/1 764/122/1
f 765/120/1 766/131/1 767/152/1 768/121/1
f 769/153/1 770/154/1 771/123/1 772/128/1
f 773/154/1 774/155/1 775/124/1 776/123/1
f 777/114/1 778/144/1 779/145/1 780/115/1
f 781/41/1 782/107/1 783/108/1 784/28/1
f 785/98/1 786/99/1 787/100/1 788/101/1
f 789/109/1 790/111/1 791/112/1 792/110/1
f 793/111/1 794/138/1 795/139/1 796/112/1
f 797/138/1 798/140/1 799/141/1 800/139/1
f 801/140/1 802/142/1 803/143/1 804/141/1
f 805/142/1 806/149/1 807/150/1 808/143/1
f 809/128/1 810/123/1 811/119/1 812/129/1
f 813/123/1 814/124/1 815/120/1 816/119/1
f 817/123/1 818/124/1 819/120/1 820/119/1
f 821/123/1 822/124/1 823/120/1 824/119/1
f 825/123/1 826/124/1 827/120/1 828/119/1
f 829/123/1 830/124/1 831/120/1 832/119/1
f 833/123/1 834/124/1 835/120/1 836/119/1
f 837/124/1 838/130/1 839/131/1 840/120/1
f 841/140/1 842/142/1 843/143/1 844/141/1
f 845/142/1 846/149/1 847/150/1 848/143/1
f 849/113/1 850/114/1 851/115/1 852/116/1
f 853/41/1 854/107/1 855/108/1 856/28/1
f 857/107/1 858/109/1 859/110/1 860/108/1
f 861/109/1 862/111/1 863/112/1 864/110/1
f 865/111/1 866/138/1 867/139/1 868/112/1
f 869/138/1 870/140/1 871/141/1 872/139/1
f 873/140/1 874/142/1 875/143/1 876/141/1
f 877/142/1 878/149/1 879/150/1 880/143/1
f 881/153/1 882/154/1 883/123/1 884/128/1
f 885/154/1 886/155/1 887/124/1 888/123/1
f 889/154/1 890/155/1 891/124/1 892/123/1
f 893/154/1 894/155/1 895/124/1 896/123/1
f 897/154/1 898/155/1 899/124/1 900/123/1
f 901/154/1 902/155/1 903/124/1 904/123/1
f 905/154/1 906/155/1 907/124/1 908/123/1
f 909/155/1 910/156/1 911/130/1 912/124/1
f 913/140/1 914/142/1 915/143/1 916/141/1
f 917/142/1 918/149/1 919/150/1 920/143/1
f 921/149/1 922/157/1 923/158/1 924/150/1
f 925/157/1 926/113/1 927/116/1 928/158/1
f 929/113/1 930/114/1 931/115/1 932/116/1

