# Tiled2Unity generated file. Do not modify by hand.
# Wavefront file for 'Lago_mesh_0002.obj'

# Vertices (Count = 524)
v -12 -1 0
v -13 -1 0
v -13 0 0
v -12 0 0
v -13 -1 0
v -14 -1 0
v -14 0 0
v -13 0 0
v -14 -1 0
v -15 -1 0
v -15 0 0
v -14 0 0
v -15 -1 0
v -16 -1 0
v -16 0 0
v -15 0 0
v -16 -1 0
v -17 -1 0
v -17 0 0
v -16 0 0
v -17 -1 0
v -18 -1 0
v -18 0 0
v -17 0 0
v -18 -1 0
v -19 -1 0
v -19 0 0
v -18 0 0
v -19 -1 0
v -20 -1 0
v -20 0 0
v -19 0 0
v -12 -2 0
v -13 -2 0
v -13 -1 0
v -12 -1 0
v -13 -2 0
v -14 -2 0
v -14 -1 0
v -13 -1 0
v -14 -2 0
v -15 -2 0
v -15 -1 0
v -14 -1 0
v -15 -2 0
v -16 -2 0
v -16 -1 0
v -15 -1 0
v -16 -2 0
v -17 -2 0
v -17 -1 0
v -16 -1 0
v -17 -2 0
v -18 -2 0
v -18 -1 0
v -17 -1 0
v -18 -2 0
v -19 -2 0
v -19 -1 0
v -18 -1 0
v -19 -2 0
v -20 -2 0
v -20 -1 0
v -19 -1 0
v -12 -3 0
v -13 -3 0
v -13 -2 0
v -12 -2 0
v -13 -3 0
v -14 -3 0
v -14 -2 0
v -13 -2 0
v -14 -3 0
v -15 -3 0
v -15 -2 0
v -14 -2 0
v -15 -3 0
v -16 -3 0
v -16 -2 0
v -15 -2 0
v -16 -3 0
v -17 -3 0
v -17 -2 0
v -16 -2 0
v -17 -3 0
v -18 -3 0
v -18 -2 0
v -17 -2 0
v -18 -3 0
v -19 -3 0
v -19 -2 0
v -18 -2 0
v -19 -3 0
v -20 -3 0
v -20 -2 0
v -19 -2 0
v -12 -4 0
v -13 -4 0
v -13 -3 0
v -12 -3 0
v -13 -4 0
v -14 -4 0
v -14 -3 0
v -13 -3 0
v -14 -4 0
v -15 -4 0
v -15 -3 0
v -14 -3 0
v -15 -4 0
v -16 -4 0
v -16 -3 0
v -15 -3 0
v -16 -4 0
v -17 -4 0
v -17 -3 0
v -16 -3 0
v -17 -4 0
v -18 -4 0
v -18 -3 0
v -17 -3 0
v -18 -4 0
v -19 -4 0
v -19 -3 0
v -18 -3 0
v -19 -4 0
v -20 -4 0
v -20 -3 0
v -19 -3 0
v -12 -5 0
v -13 -5 0
v -13 -4 0
v -12 -4 0
v -13 -5 0
v -14 -5 0
v -14 -4 0
v -13 -4 0
v -14 -5 0
v -15 -5 0
v -15 -4 0
v -14 -4 0
v -15 -5 0
v -16 -5 0
v -16 -4 0
v -15 -4 0
v -16 -5 0
v -17 -5 0
v -17 -4 0
v -16 -4 0
v -17 -5 0
v -18 -5 0
v -18 -4 0
v -17 -4 0
v -18 -5 0
v -19 -5 0
v -19 -4 0
v -18 -4 0
v -19 -5 0
v -20 -5 0
v -20 -4 0
v -19 -4 0
v -12 -6 0
v -13 -6 0
v -13 -5 0
v -12 -5 0
v -13 -6 0
v -14 -6 0
v -14 -5 0
v -13 -5 0
v -14 -6 0
v -15 -6 0
v -15 -5 0
v -14 -5 0
v -15 -6 0
v -16 -6 0
v -16 -5 0
v -15 -5 0
v -16 -6 0
v -17 -6 0
v -17 -5 0
v -16 -5 0
v -17 -6 0
v -18 -6 0
v -18 -5 0
v -17 -5 0
v -18 -6 0
v -19 -6 0
v -19 -5 0
v -18 -5 0
v -19 -6 0
v -20 -6 0
v -20 -5 0
v -19 -5 0
v -12 -7 0
v -13 -7 0
v -13 -6 0
v -12 -6 0
v -13 -7 0
v -14 -7 0
v -14 -6 0
v -13 -6 0
v -14 -7 0
v -15 -7 0
v -15 -6 0
v -14 -6 0
v -15 -7 0
v -16 -7 0
v -16 -6 0
v -15 -6 0
v -16 -7 0
v -17 -7 0
v -17 -6 0
v -16 -6 0
v -17 -7 0
v -18 -7 0
v -18 -6 0
v -17 -6 0
v -18 -7 0
v -19 -7 0
v -19 -6 0
v -18 -6 0
v -19 -7 0
v -20 -7 0
v -20 -6 0
v -19 -6 0
v -12 -8 0
v -13 -8 0
v -13 -7 0
v -12 -7 0
v -13 -8 0
v -14 -8 0
v -14 -7 0
v -13 -7 0
v -14 -8 0
v -15 -8 0
v -15 -7 0
v -14 -7 0
v -15 -8 0
v -16 -8 0
v -16 -7 0
v -15 -7 0
v -16 -8 0
v -17 -8 0
v -17 -7 0
v -16 -7 0
v -17 -8 0
v -18 -8 0
v -18 -7 0
v -17 -7 0
v -18 -8 0
v -19 -8 0
v -19 -7 0
v -18 -7 0
v -19 -8 0
v -20 -8 0
v -20 -7 0
v -19 -7 0
v -12 -9 0
v -13 -9 0
v -13 -8 0
v -12 -8 0
v -13 -9 0
v -14 -9 0
v -14 -8 0
v -13 -8 0
v -14 -9 0
v -15 -9 0
v -15 -8 0
v -14 -8 0
v -15 -9 0
v -16 -9 0
v -16 -8 0
v -15 -8 0
v -16 -9 0
v -17 -9 0
v -17 -8 0
v -16 -8 0
v -17 -9 0
v -18 -9 0
v -18 -8 0
v -17 -8 0
v -18 -9 0
v -19 -9 0
v -19 -8 0
v -18 -8 0
v -19 -9 0
v -20 -9 0
v -20 -8 0
v -19 -8 0
v -12 -10 0
v -13 -10 0
v -13 -9 0
v -12 -9 0
v -13 -10 0
v -14 -10 0
v -14 -9 0
v -13 -9 0
v -14 -10 0
v -15 -10 0
v -15 -9 0
v -14 -9 0
v -15 -10 0
v -16 -10 0
v -16 -9 0
v -15 -9 0
v -16 -10 0
v -17 -10 0
v -17 -9 0
v -16 -9 0
v -17 -10 0
v -18 -10 0
v -18 -9 0
v -17 -9 0
v -18 -10 0
v -19 -10 0
v -19 -9 0
v -18 -9 0
v -19 -10 0
v -20 -10 0
v -20 -9 0
v -19 -9 0
v -3 -14 0
v -4 -14 0
v -4 -13 0
v -3 -13 0
v -4 -14 0
v -5 -14 0
v -5 -13 0
v -4 -13 0
v -5 -14 0
v -6 -14 0
v -6 -13 0
v -5 -13 0
v -6 -14 0
v -7 -14 0
v -7 -13 0
v -6 -13 0
v -7 -14 0
v -8 -14 0
v -8 -13 0
v -7 -13 0
v -8 -14 0
v -9 -14 0
v -9 -13 0
v -8 -13 0
v -3 -15 0
v -4 -15 0
v -4 -14 0
v -3 -14 0
v -4 -15 0
v -5 -15 0
v -5 -14 0
v -4 -14 0
v -5 -15 0
v -6 -15 0
v -6 -14 0
v -5 -14 0
v -6 -15 0
v -7 -15 0
v -7 -14 0
v -6 -14 0
v -7 -15 0
v -8 -15 0
v -8 -14 0
v -7 -14 0
v -8 -15 0
v -9 -15 0
v -9 -14 0
v -8 -14 0
v -3 -16 0
v -4 -16 0
v -4 -15 0
v -3 -15 0
v -4 -16 0
v -5 -16 0
v -5 -15 0
v -4 -15 0
v -5 -16 0
v -6 -16 0
v -6 -15 0
v -5 -15 0
v -6 -16 0
v -7 -16 0
v -7 -15 0
v -6 -15 0
v -7 -16 0
v -8 -16 0
v -8 -15 0
v -7 -15 0
v -8 -16 0
v -9 -16 0
v -9 -15 0
v -8 -15 0
v -3 -17 0
v -4 -17 0
v -4 -16 0
v -3 -16 0
v -4 -17 0
v -5 -17 0
v -5 -16 0
v -4 -16 0
v -5 -17 0
v -6 -17 0
v -6 -16 0
v -5 -16 0
v -6 -17 0
v -7 -17 0
v -7 -16 0
v -6 -16 0
v -7 -17 0
v -8 -17 0
v -8 -16 0
v -7 -16 0
v -8 -17 0
v -9 -17 0
v -9 -16 0
v -8 -16 0
v -14 -17 0
v -15 -17 0
v -15 -16 0
v -14 -16 0
v -15 -17 0
v -16 -17 0
v -16 -16 0
v -15 -16 0
v -16 -17 0
v -17 -17 0
v -17 -16 0
v -16 -16 0
v -17 -17 0
v -18 -17 0
v -18 -16 0
v -17 -16 0
v -18 -17 0
v -19 -17 0
v -19 -16 0
v -18 -16 0
v -3 -18 0
v -4 -18 0
v -4 -17 0
v -3 -17 0
v -4 -18 0
v -5 -18 0
v -5 -17 0
v -4 -17 0
v -5 -18 0
v -6 -18 0
v -6 -17 0
v -5 -17 0
v -6 -18 0
v -7 -18 0
v -7 -17 0
v -6 -17 0
v -7 -18 0
v -8 -18 0
v -8 -17 0
v -7 -17 0
v -8 -18 0
v -9 -18 0
v -9 -17 0
v -8 -17 0
v -14 -18 0
v -15 -18 0
v -15 -17 0
v -14 -17 0
v -15 -18 0
v -16 -18 0
v -16 -17 0
v -15 -17 0
v -16 -18 0
v -17 -18 0
v -17 -17 0
v -16 -17 0
v -17 -18 0
v -18 -18 0
v -18 -17 0
v -17 -17 0
v -18 -18 0
v -19 -18 0
v -19 -17 0
v -18 -17 0
v -3 -19 0
v -4 -19 0
v -4 -18 0
v -3 -18 0
v -4 -19 0
v -5 -19 0
v -5 -18 0
v -4 -18 0
v -5 -19 0
v -6 -19 0
v -6 -18 0
v -5 -18 0
v -6 -19 0
v -7 -19 0
v -7 -18 0
v -6 -18 0
v -7 -19 0
v -8 -19 0
v -8 -18 0
v -7 -18 0
v -8 -19 0
v -9 -19 0
v -9 -18 0
v -8 -18 0
v -14 -19 0
v -15 -19 0
v -15 -18 0
v -14 -18 0
v -15 -19 0
v -16 -19 0
v -16 -18 0
v -15 -18 0
v -16 -19 0
v -17 -19 0
v -17 -18 0
v -16 -18 0
v -17 -19 0
v -18 -19 0
v -18 -18 0
v -17 -18 0
v -18 -19 0
v -19 -19 0
v -19 -18 0
v -18 -18 0

# Texture cooridinates (Count = 49)
vt 0.1 0.7777778
vt 0.125 0.7777778
vt 0.125 0.8055556
vt 0.1 0.8055556
vt 0.125 0.7222222
vt 0.15 0.7222222
vt 0.15 0.75
vt 0.125 0.75
vt 0.125 0.6944444
vt 0.15 0.6944444
vt 0 0.8611111
vt 0.025 0.8611111
vt 0.025 0.8888889
vt 0 0.8888889
vt 0.05 0.8611111
vt 0.05 0.8888889
vt 0.075 0.8611111
vt 0.075 0.8888889
vt 0.2 0.5833334
vt 0.225 0.5833334
vt 0.225 0.6111111
vt 0.2 0.6111111
vt 0.05 0.9166667
vt 0.025 0.9166667
vt 0.025 0.7777778
vt 0.05 0.7777778
vt 0.05 0.8055556
vt 0.025 0.8055556
vt 0 0.7777778
vt 0 0.8055556
vt 0.425 0.7777778
vt 0.45 0.7777778
vt 0.45 0.8055556
vt 0.425 0.8055556
vt 0.375 0.6944444
vt 0.4 0.6944444
vt 0.4 0.7222222
vt 0.375 0.7222222
vt 0.4 0.8055556
vt 0.425 0.8333333
vt 0.4 0.8333333
vt 0.4 0.75
vt 0.375 0.75
vt 0.425 0.75
vt 0.4 0.7777778
vt 0.425 0.7222222
vt 0.375 0.7777778
vt 0.375 0.8055556
vt 0.425 0.6944444

# Normal
vn 0 0 -1

# Mesh description
g Lago_mesh_0002

# Faces
f 1/1/1 2/2/1 3/3/1 4/4/1
f 5/5/1 6/6/1 7/7/1 8/8/1
f 9/9/1 10/10/1 11/6/1 12/5/1
f 13/9/1 14/10/1 15/6/1 16/5/1
f 17/11/1 18/12/1 19/13/1 20/14/1
f 21/12/1 22/15/1 23/16/1 24/13/1
f 25/15/1 26/17/1 27/18/1 28/16/1
f 29/9/1 30/10/1 31/6/1 32/5/1
f 33/1/1 34/2/1 35/3/1 36/4/1
f 37/9/1 38/10/1 39/6/1 40/5/1
f 41/9/1 42/10/1 43/6/1 44/5/1
f 45/9/1 46/10/1 47/6/1 48/5/1
f 49/11/1 50/12/1 51/13/1 52/14/1
f 53/12/1 54/15/1 55/16/1 56/13/1
f 57/15/1 58/17/1 59/18/1 60/16/1
f 61/9/1 62/10/1 63/6/1 64/5/1
f 65/1/1 66/2/1 67/3/1 68/4/1
f 69/9/1 70/10/1 71/6/1 72/5/1
f 73/9/1 74/10/1 75/6/1 76/5/1
f 77/9/1 78/10/1 79/6/1 80/5/1
f 81/11/1 82/12/1 83/13/1 84/14/1
f 85/12/1 86/15/1 87/16/1 88/13/1
f 89/15/1 90/17/1 91/18/1 92/16/1
f 93/9/1 94/10/1 95/6/1 96/5/1
f 97/19/1 98/20/1 99/21/1 100/22/1
f 101/13/1 102/16/1 103/23/1 104/24/1
f 105/13/1 106/16/1 107/23/1 108/24/1
f 109/13/1 110/16/1 111/23/1 112/24/1
f 113/25/1 114/26/1 115/27/1 116/28/1
f 117/12/1 118/15/1 119/16/1 120/13/1
f 121/29/1 122/25/1 123/28/1 124/30/1
f 125/13/1 126/16/1 127/23/1 128/24/1
f 129/31/1 130/32/1 131/33/1 132/34/1
f 133/12/1 134/15/1 135/16/1 136/13/1
f 137/12/1 138/15/1 139/16/1 140/13/1
f 141/12/1 142/15/1 143/16/1 144/13/1
f 145/12/1 146/15/1 147/16/1 148/13/1
f 149/12/1 150/15/1 151/16/1 152/13/1
f 153/12/1 154/15/1 155/16/1 156/13/1
f 157/12/1 158/15/1 159/16/1 160/13/1
f 161/31/1 162/32/1 163/33/1 164/34/1
f 165/12/1 166/15/1 167/16/1 168/13/1
f 169/12/1 170/15/1 171/16/1 172/13/1
f 173/12/1 174/15/1 175/16/1 176/13/1
f 177/12/1 178/15/1 179/16/1 180/13/1
f 181/12/1 182/15/1 183/16/1 184/13/1
f 185/12/1 186/15/1 187/16/1 188/13/1
f 189/12/1 190/15/1 191/16/1 192/13/1
f 193/31/1 194/32/1 195/33/1 196/34/1
f 197/12/1 198/15/1 199/16/1 200/13/1
f 201/12/1 202/15/1 203/16/1 204/13/1
f 205/12/1 206/15/1 207/16/1 208/13/1
f 209/12/1 210/15/1 211/16/1 212/13/1
f 213/12/1 214/15/1 215/16/1 216/13/1
f 217/12/1 218/15/1 219/16/1 220/13/1
f 221/12/1 222/15/1 223/16/1 224/13/1
f 225/31/1 226/32/1 227/33/1 228/34/1
f 229/12/1 230/15/1 231/16/1 232/13/1
f 233/12/1 234/15/1 235/16/1 236/13/1
f 237/12/1 238/15/1 239/16/1 240/13/1
f 241/12/1 242/15/1 243/16/1 244/13/1
f 245/12/1 246/15/1 247/16/1 248/13/1
f 249/12/1 250/15/1 251/16/1 252/13/1
f 253/12/1 254/15/1 255/16/1 256/13/1
f 257/31/1 258/32/1 259/33/1 260/34/1
f 261/12/1 262/15/1 263/16/1 264/13/1
f 265/12/1 266/15/1 267/16/1 268/13/1
f 269/12/1 270/15/1 271/16/1 272/13/1
f 273/12/1 274/15/1 275/16/1 276/13/1
f 277/12/1 278/15/1 279/16/1 280/13/1
f 281/12/1 282/15/1 283/16/1 284/13/1
f 285/12/1 286/15/1 287/16/1 288/13/1
f 289/35/1 290/36/1 291/37/1 292/38/1
f 293/39/1 294/34/1 295/40/1 296/41/1
f 297/39/1 298/34/1 299/40/1 300/41/1
f 301/39/1 302/34/1 303/40/1 304/41/1
f 305/39/1 306/34/1 307/40/1 308/41/1
f 309/39/1 310/34/1 311/40/1 312/41/1
f 313/39/1 314/34/1 315/40/1 316/41/1
f 317/39/1 318/34/1 319/40/1 320/41/1
f 321/38/1 322/37/1 323/42/1 324/43/1
f 325/42/1 326/44/1 327/31/1 328/45/1
f 329/42/1 330/44/1 331/31/1 332/45/1
f 333/42/1 334/44/1 335/31/1 336/45/1
f 337/42/1 338/44/1 339/31/1 340/45/1
f 341/37/1 342/46/1 343/44/1 344/42/1
f 345/31/1 346/32/1 347/33/1 348/34/1
f 349/12/1 350/15/1 351/16/1 352/13/1
f 353/12/1 354/15/1 355/16/1 356/13/1
f 357/12/1 358/15/1 359/16/1 360/13/1
f 361/12/1 362/15/1 363/16/1 364/13/1
f 365/47/1 366/45/1 367/39/1 368/48/1
f 369/31/1 370/32/1 371/33/1 372/34/1
f 373/12/1 374/15/1 375/16/1 376/13/1
f 377/12/1 378/15/1 379/16/1 380/13/1
f 381/12/1 382/15/1 383/16/1 384/13/1
f 385/12/1 386/15/1 387/16/1 388/13/1
f 389/47/1 390/45/1 391/39/1 392/48/1
f 393/31/1 394/32/1 395/33/1 396/34/1
f 397/12/1 398/15/1 399/16/1 400/13/1
f 401/12/1 402/15/1 403/16/1 404/13/1
f 405/12/1 406/15/1 407/16/1 408/13/1
f 409/12/1 410/15/1 411/16/1 412/13/1
f 413/47/1 414/45/1 415/39/1 416/48/1
f 417/38/1 418/37/1 419/42/1 420/43/1
f 421/42/1 422/44/1 423/31/1 424/45/1
f 425/42/1 426/44/1 427/31/1 428/45/1
f 429/42/1 430/44/1 431/31/1 432/45/1
f 433/37/1 434/46/1 435/44/1 436/42/1
f 437/31/1 438/32/1 439/33/1 440/34/1
f 441/12/1 442/15/1 443/16/1 444/13/1
f 445/12/1 446/15/1 447/16/1 448/13/1
f 449/12/1 450/15/1 451/16/1 452/13/1
f 453/12/1 454/15/1 455/16/1 456/13/1
f 457/47/1 458/45/1 459/39/1 460/48/1
f 461/31/1 462/32/1 463/33/1 464/34/1
f 465/12/1 466/15/1 467/16/1 468/13/1
f 469/12/1 470/15/1 471/16/1 472/13/1
f 473/12/1 474/15/1 475/16/1 476/13/1
f 477/47/1 478/45/1 479/39/1 480/48/1
f 481/35/1 482/36/1 483/37/1 484/38/1
f 485/39/1 486/34/1 487/40/1 488/41/1
f 489/39/1 490/34/1 491/40/1 492/41/1
f 493/39/1 494/34/1 495/40/1 496/41/1
f 497/39/1 498/34/1 499/40/1 500/41/1
f 501/36/1 502/49/1 503/46/1 504/37/1
f 505/35/1 506/36/1 507/37/1 508/38/1
f 509/39/1 510/34/1 511/40/1 512/41/1
f 513/39/1 514/34/1 515/40/1 516/41/1
f 517/39/1 518/34/1 519/40/1 520/41/1
f 521/36/1 522/49/1 523/46/1 524/37/1

