# Tiled2Unity generated file. Do not modify by hand.
# Wavefront file for 'sin-nombre_mesh_0004.obj'

# Vertices (Count = 580)
v 0 -1 0
v -1 -1 0
v -1 0 0
v 0 0 0
v -1 -1 0
v -2 -1 0
v -2 0 0
v -1 0 0
v -2 -1 0
v -3 -1 0
v -3 0 0
v -2 0 0
v -3 -1 0
v -4 -1 0
v -4 0 0
v -3 0 0
v -12 -1 0
v -13 -1 0
v -13 0 0
v -12 0 0
v -13 -1 0
v -14 -1 0
v -14 0 0
v -13 0 0
v -14 -1 0
v -15 -1 0
v -15 0 0
v -14 0 0
v 0 -2 0
v -1 -2 0
v -1 -1 0
v 0 -1 0
v -1 -2 0
v -2 -2 0
v -2 -1 0
v -1 -1 0
v -2 -2 0
v -3 -2 0
v -3 -1 0
v -2 -1 0
v -3 -2 0
v -4 -2 0
v -4 -1 0
v -3 -1 0
v -12 -2 0
v -13 -2 0
v -13 -1 0
v -12 -1 0
v -13 -2 0
v -14 -2 0
v -14 -1 0
v -13 -1 0
v -14 -2 0
v -15 -2 0
v -15 -1 0
v -14 -1 0
v 0 -3 0
v -1 -3 0
v -1 -2 0
v 0 -2 0
v -1 -3 0
v -2 -3 0
v -2 -2 0
v -1 -2 0
v -2 -3 0
v -3 -3 0
v -3 -2 0
v -2 -2 0
v -3 -3 0
v -4 -3 0
v -4 -2 0
v -3 -2 0
v -12 -3 0
v -13 -3 0
v -13 -2 0
v -12 -2 0
v -13 -3 0
v -14 -3 0
v -14 -2 0
v -13 -2 0
v -14 -3 0
v -15 -3 0
v -15 -2 0
v -14 -2 0
v 0 -4 0
v -1 -4 0
v -1 -3 0
v 0 -3 0
v -1 -4 0
v -2 -4 0
v -2 -3 0
v -1 -3 0
v -2 -4 0
v -3 -4 0
v -3 -3 0
v -2 -3 0
v -3 -4 0
v -4 -4 0
v -4 -3 0
v -3 -3 0
v -12 -4 0
v -13 -4 0
v -13 -3 0
v -12 -3 0
v -13 -4 0
v -14 -4 0
v -14 -3 0
v -13 -3 0
v -14 -4 0
v -15 -4 0
v -15 -3 0
v -14 -3 0
v 0 -5 0
v -1 -5 0
v -1 -4 0
v 0 -4 0
v -1 -5 0
v -2 -5 0
v -2 -4 0
v -1 -4 0
v -2 -5 0
v -3 -5 0
v -3 -4 0
v -2 -4 0
v -3 -5 0
v -4 -5 0
v -4 -4 0
v -3 -4 0
v -4 -5 0
v -5 -5 0
v -5 -4 0
v -4 -4 0
v -5 -5 0
v -6 -5 0
v -6 -4 0
v -5 -4 0
v -6 -5 0
v -7 -5 0
v -7 -4 0
v -6 -4 0
v -7 -5 0
v -8 -5 0
v -8 -4 0
v -7 -4 0
v -12 -5 0
v -13 -5 0
v -13 -4 0
v -12 -4 0
v -13 -5 0
v -14 -5 0
v -14 -4 0
v -13 -4 0
v -14 -5 0
v -15 -5 0
v -15 -4 0
v -14 -4 0
v 0 -6 0
v -1 -6 0
v -1 -5 0
v 0 -5 0
v -1 -6 0
v -2 -6 0
v -2 -5 0
v -1 -5 0
v -2 -6 0
v -3 -6 0
v -3 -5 0
v -2 -5 0
v -3 -6 0
v -4 -6 0
v -4 -5 0
v -3 -5 0
v -4 -6 0
v -5 -6 0
v -5 -5 0
v -4 -5 0
v -5 -6 0
v -6 -6 0
v -6 -5 0
v -5 -5 0
v -6 -6 0
v -7 -6 0
v -7 -5 0
v -6 -5 0
v -7 -6 0
v -8 -6 0
v -8 -5 0
v -7 -5 0
v -8 -6 0
v -9 -6 0
v -9 -5 0
v -8 -5 0
v -9 -6 0
v -10 -6 0
v -10 -5 0
v -9 -5 0
v -10 -6 0
v -11 -6 0
v -11 -5 0
v -10 -5 0
v -11 -6 0
v -12 -6 0
v -12 -5 0
v -11 -5 0
v -12 -6 0
v -13 -6 0
v -13 -5 0
v -12 -5 0
v -13 -6 0
v -14 -6 0
v -14 -5 0
v -13 -5 0
v -14 -6 0
v -15 -6 0
v -15 -5 0
v -14 -5 0
v 0 -7 0
v -1 -7 0
v -1 -6 0
v 0 -6 0
v -1 -7 0
v -2 -7 0
v -2 -6 0
v -1 -6 0
v -2 -7 0
v -3 -7 0
v -3 -6 0
v -2 -6 0
v -3 -7 0
v -4 -7 0
v -4 -6 0
v -3 -6 0
v -4 -7 0
v -5 -7 0
v -5 -6 0
v -4 -6 0
v -5 -7 0
v -6 -7 0
v -6 -6 0
v -5 -6 0
v -6 -7 0
v -7 -7 0
v -7 -6 0
v -6 -6 0
v -7 -7 0
v -8 -7 0
v -8 -6 0
v -7 -6 0
v -8 -7 0
v -9 -7 0
v -9 -6 0
v -8 -6 0
v -9 -7 0
v -10 -7 0
v -10 -6 0
v -9 -6 0
v -10 -7 0
v -11 -7 0
v -11 -6 0
v -10 -6 0
v -11 -7 0
v -12 -7 0
v -12 -6 0
v -11 -6 0
v -12 -7 0
v -13 -7 0
v -13 -6 0
v -12 -6 0
v -13 -7 0
v -14 -7 0
v -14 -6 0
v -13 -6 0
v -14 -7 0
v -15 -7 0
v -15 -6 0
v -14 -6 0
v 0 -8 0
v -1 -8 0
v -1 -7 0
v 0 -7 0
v -1 -8 0
v -2 -8 0
v -2 -7 0
v -1 -7 0
v -2 -8 0
v -3 -8 0
v -3 -7 0
v -2 -7 0
v -3 -8 0
v -4 -8 0
v -4 -7 0
v -3 -7 0
v -4 -8 0
v -5 -8 0
v -5 -7 0
v -4 -7 0
v -5 -8 0
v -6 -8 0
v -6 -7 0
v -5 -7 0
v -6 -8 0
v -7 -8 0
v -7 -7 0
v -6 -7 0
v -7 -8 0
v -8 -8 0
v -8 -7 0
v -7 -7 0
v -14 -8 0
v -15 -8 0
v -15 -7 0
v -14 -7 0
v 0 -9 0
v -1 -9 0
v -1 -8 0
v 0 -8 0
v -1 -9 0
v -2 -9 0
v -2 -8 0
v -1 -8 0
v -2 -9 0
v -3 -9 0
v -3 -8 0
v -2 -8 0
v -3 -9 0
v -4 -9 0
v -4 -8 0
v -3 -8 0
v -4 -9 0
v -5 -9 0
v -5 -8 0
v -4 -8 0
v -7 -9 0
v -8 -9 0
v -8 -8 0
v -7 -8 0
v -14 -9 0
v -15 -9 0
v -15 -8 0
v -14 -8 0
v 0 -10 0
v -1 -10 0
v -1 -9 0
v 0 -9 0
v -1 -10 0
v -2 -10 0
v -2 -9 0
v -1 -9 0
v -2 -10 0
v -3 -10 0
v -3 -9 0
v -2 -9 0
v -3 -10 0
v -4 -10 0
v -4 -9 0
v -3 -9 0
v -4 -10 0
v -5 -10 0
v -5 -9 0
v -4 -9 0
v -7 -10 0
v -8 -10 0
v -8 -9 0
v -7 -9 0
v -14 -10 0
v -15 -10 0
v -15 -9 0
v -14 -9 0
v 0 -11 0
v -1 -11 0
v -1 -10 0
v 0 -10 0
v -1 -11 0
v -2 -11 0
v -2 -10 0
v -1 -10 0
v -2 -11 0
v -3 -11 0
v -3 -10 0
v -2 -10 0
v -5 -11 0
v -6 -11 0
v -6 -10 0
v -5 -10 0
v -6 -11 0
v -7 -11 0
v -7 -10 0
v -6 -10 0
v -7 -11 0
v -8 -11 0
v -8 -10 0
v -7 -10 0
v -14 -11 0
v -15 -11 0
v -15 -10 0
v -14 -10 0
v 0 -12 0
v -1 -12 0
v -1 -11 0
v 0 -11 0
v -1 -12 0
v -2 -12 0
v -2 -11 0
v -1 -11 0
v -2 -12 0
v -3 -12 0
v -3 -11 0
v -2 -11 0
v -5 -12 0
v -6 -12 0
v -6 -11 0
v -5 -11 0
v -6 -12 0
v -7 -12 0
v -7 -11 0
v -6 -11 0
v -7 -12 0
v -8 -12 0
v -8 -11 0
v -7 -11 0
v -14 -12 0
v -15 -12 0
v -15 -11 0
v -14 -11 0
v 0 -13 0
v -1 -13 0
v -1 -12 0
v 0 -12 0
v -1 -13 0
v -2 -13 0
v -2 -12 0
v -1 -12 0
v -2 -13 0
v -3 -13 0
v -3 -12 0
v -2 -12 0
v -3 -13 0
v -4 -13 0
v -4 -12 0
v -3 -12 0
v -4 -13 0
v -5 -13 0
v -5 -12 0
v -4 -12 0
v -5 -13 0
v -6 -13 0
v -6 -12 0
v -5 -12 0
v -6 -13 0
v -7 -13 0
v -7 -12 0
v -6 -12 0
v -7 -13 0
v -8 -13 0
v -8 -12 0
v -7 -12 0
v -14 -13 0
v -15 -13 0
v -15 -12 0
v -14 -12 0
v 0 -14 0
v -1 -14 0
v -1 -13 0
v 0 -13 0
v -1 -14 0
v -2 -14 0
v -2 -13 0
v -1 -13 0
v -2 -14 0
v -3 -14 0
v -3 -13 0
v -2 -13 0
v -3 -14 0
v -4 -14 0
v -4 -13 0
v -3 -13 0
v -4 -14 0
v -5 -14 0
v -5 -13 0
v -4 -13 0
v -5 -14 0
v -6 -14 0
v -6 -13 0
v -5 -13 0
v -6 -14 0
v -7 -14 0
v -7 -13 0
v -6 -13 0
v -7 -14 0
v -8 -14 0
v -8 -13 0
v -7 -13 0
v -8 -14 0
v -9 -14 0
v -9 -13 0
v -8 -13 0
v -9 -14 0
v -10 -14 0
v -10 -13 0
v -9 -13 0
v -10 -14 0
v -11 -14 0
v -11 -13 0
v -10 -13 0
v -11 -14 0
v -12 -14 0
v -12 -13 0
v -11 -13 0
v -12 -14 0
v -13 -14 0
v -13 -13 0
v -12 -13 0
v -13 -14 0
v -14 -14 0
v -14 -13 0
v -13 -13 0
v -14 -14 0
v -15 -14 0
v -15 -13 0
v -14 -13 0
v 0 -15 0
v -1 -15 0
v -1 -14 0
v 0 -14 0
v -1 -15 0
v -2 -15 0
v -2 -14 0
v -1 -14 0
v -2 -15 0
v -3 -15 0
v -3 -14 0
v -2 -14 0
v -3 -15 0
v -4 -15 0
v -4 -14 0
v -3 -14 0
v -4 -15 0
v -5 -15 0
v -5 -14 0
v -4 -14 0
v -5 -15 0
v -6 -15 0
v -6 -14 0
v -5 -14 0
v -6 -15 0
v -7 -15 0
v -7 -14 0
v -6 -14 0
v -7 -15 0
v -8 -15 0
v -8 -14 0
v -7 -14 0
v -8 -15 0
v -9 -15 0
v -9 -14 0
v -8 -14 0
v -9 -15 0
v -10 -15 0
v -10 -14 0
v -9 -14 0
v -10 -15 0
v -11 -15 0
v -11 -14 0
v -10 -14 0
v -11 -15 0
v -12 -15 0
v -12 -14 0
v -11 -14 0
v -12 -15 0
v -13 -15 0
v -13 -14 0
v -12 -14 0
v -13 -15 0
v -14 -15 0
v -14 -14 0
v -13 -14 0
v -14 -15 0
v -15 -15 0
v -15 -14 0
v -14 -14 0

# Texture cooridinates (Count = 80)
vt 0.1 0.7222222
vt 0.125 0.7222222
vt 0.125 0.75
vt 0.1 0.75
vt 0.15 0.7222222
vt 0.15 0.75
vt 0.175 0.7222222
vt 0.175 0.75
vt 0.175 0
vt 0.2 0
vt 0.2 0.02777779
vt 0.175 0.02777779
vt 0.225 0
vt 0.225 0.02777779
vt 0.25 0
vt 0.25 0.02777779
vt 0.1 0.6944444
vt 0.125 0.6944444
vt 0.15 0.6944444
vt 0.175 0.6944444
vt 0.1 0.6666666
vt 0.125 0.6666666
vt 0.15 0.6666666
vt 0.175 0.6666666
vt 0.2 0.6666666
vt 0.2 0.6944444
vt 0.1 0.6388889
vt 0.125 0.6388889
vt 0.15 0.6388889
vt 0.175 0.6388889
vt 0.2 0.6388889
vt 0.1 0.6111111
vt 0.125 0.6111111
vt 0.15 0.6111111
vt 0.175 0.6111111
vt 0.075 0
vt 0.1 0
vt 0.1 0.02777779
vt 0.075 0.02777779
vt 0.125 0
vt 0.125 0.02777779
vt 0.1 0.9444444
vt 0.125 0.9444444
vt 0.125 0.9722222
vt 0.1 0.9722222
vt 0.15 0.9444444
vt 0.15 0.9722222
vt 0.275 0
vt 0.3 0
vt 0.3 0.02777779
vt 0.275 0.02777779
vt 0.2 0.8333333
vt 0.225 0.8333333
vt 0.225 0.8611111
vt 0.2 0.8611111
vt 0.325 0
vt 0.35 0
vt 0.35 0.02777779
vt 0.325 0.02777779
vt 0.1 0.5833334
vt 0.125 0.5833334
vt 0.15 0.5833334
vt 0.175 0.5833334
vt 0.1 0.9166667
vt 0.125 0.9166667
vt 0.15 0.9166667
vt 0.15 0
vt 0.15 0.02777779
vt 0.05 0
vt 0.05 0.02777779
vt 0 0.6666666
vt 0.025 0.6666666
vt 0.025 0.6944444
vt 0 0.6944444
vt 0.05 0.6666666
vt 0.075 0.6666666
vt 0.075 0.6944444
vt 0.05 0.6944444
vt 0.05 0.6388889
vt 0.075 0.6388889

# Normal
vn 0 0 -1

# Mesh description
g sin-nombre_mesh_0004

# Faces
f 1/1/1 2/2/1 3/3/1 4/4/1
f 5/2/1 6/5/1 7/6/1 8/3/1
f 9/5/1 10/7/1 11/8/1 12/6/1
f 13/5/1 14/7/1 15/8/1 16/6/1
f 17/9/1 18/10/1 19/11/1 20/12/1
f 21/10/1 22/13/1 23/14/1 24/11/1
f 25/13/1 26/15/1 27/16/1 28/14/1
f 29/17/1 30/18/1 31/2/1 32/1/1
f 33/18/1 34/19/1 35/5/1 36/2/1
f 37/19/1 38/20/1 39/7/1 40/5/1
f 41/19/1 42/20/1 43/7/1 44/5/1
f 45/9/1 46/10/1 47/11/1 48/12/1
f 49/10/1 50/13/1 51/14/1 52/11/1
f 53/13/1 54/15/1 55/16/1 56/14/1
f 57/21/1 58/22/1 59/18/1 60/17/1
f 61/22/1 62/23/1 63/19/1 64/18/1
f 65/23/1 66/24/1 67/20/1 68/19/1
f 69/24/1 70/25/1 71/26/1 72/20/1
f 73/9/1 74/10/1 75/11/1 76/12/1
f 77/10/1 78/13/1 79/14/1 80/11/1
f 81/13/1 82/15/1 83/16/1 84/14/1
f 85/27/1 86/28/1 87/22/1 88/21/1
f 89/28/1 90/29/1 91/23/1 92/22/1
f 93/29/1 94/30/1 95/24/1 96/23/1
f 97/30/1 98/31/1 99/25/1 100/24/1
f 101/9/1 102/10/1 103/11/1 104/12/1
f 105/10/1 106/13/1 107/14/1 108/11/1
f 109/13/1 110/15/1 111/16/1 112/14/1
f 113/32/1 114/33/1 115/28/1 116/27/1
f 117/33/1 118/34/1 119/29/1 120/28/1
f 121/34/1 122/35/1 123/30/1 124/29/1
f 125/36/1 126/37/1 127/38/1 128/39/1
f 129/37/1 130/40/1 131/41/1 132/38/1
f 133/42/1 134/43/1 135/44/1 136/45/1
f 137/43/1 138/46/1 139/47/1 140/44/1
f 141/9/1 142/10/1 143/11/1 144/12/1
f 145/48/1 146/49/1 147/50/1 148/51/1
f 149/52/1 150/53/1 151/54/1 152/55/1
f 153/56/1 154/57/1 155/58/1 156/59/1
f 157/60/1 158/61/1 159/33/1 160/32/1
f 161/61/1 162/62/1 163/34/1 164/33/1
f 165/62/1 166/63/1 167/35/1 168/34/1
f 169/36/1 170/37/1 171/38/1 172/39/1
f 173/37/1 174/40/1 175/41/1 176/38/1
f 177/64/1 178/65/1 179/43/1 180/42/1
f 181/65/1 182/66/1 183/46/1 184/43/1
f 185/9/1 186/10/1 187/11/1 188/12/1
f 189/10/1 190/13/1 191/14/1 192/11/1
f 193/13/1 194/15/1 195/16/1 196/14/1
f 197/15/1 198/48/1 199/51/1 200/16/1
f 201/48/1 202/49/1 203/50/1 204/51/1
f 205/48/1 206/49/1 207/50/1 208/51/1
f 209/49/1 210/56/1 211/59/1 212/50/1
f 213/56/1 214/57/1 215/58/1 216/59/1
f 217/36/1 218/37/1 219/38/1 220/39/1
f 221/36/1 222/37/1 223/38/1 224/39/1
f 225/37/1 226/40/1 227/41/1 228/38/1
f 229/40/1 230/67/1 231/68/1 232/41/1
f 233/67/1 234/9/1 235/12/1 236/68/1
f 237/9/1 238/10/1 239/11/1 240/12/1
f 241/69/1 242/36/1 243/39/1 244/70/1
f 245/36/1 246/37/1 247/38/1 248/39/1
f 249/37/1 250/40/1 251/41/1 252/38/1
f 253/40/1 254/67/1 255/68/1 256/41/1
f 257/67/1 258/9/1 259/12/1 260/68/1
f 261/9/1 262/10/1 263/11/1 264/12/1
f 265/10/1 266/13/1 267/14/1 268/11/1
f 269/13/1 270/15/1 271/16/1 272/14/1
f 273/15/1 274/48/1 275/51/1 276/16/1
f 277/36/1 278/37/1 279/38/1 280/39/1
f 281/37/1 282/40/1 283/41/1 284/38/1
f 285/40/1 286/67/1 287/68/1 288/41/1
f 289/67/1 290/9/1 291/12/1 292/68/1
f 293/9/1 294/10/1 295/11/1 296/12/1
f 297/10/1 298/13/1 299/14/1 300/11/1
f 301/69/1 302/36/1 303/39/1 304/70/1
f 305/69/1 306/36/1 307/39/1 308/70/1
f 309/13/1 310/15/1 311/16/1 312/14/1
f 313/36/1 314/37/1 315/38/1 316/39/1
f 317/37/1 318/40/1 319/41/1 320/38/1
f 321/40/1 322/67/1 323/68/1 324/41/1
f 325/67/1 326/9/1 327/12/1 328/68/1
f 329/9/1 330/10/1 331/11/1 332/12/1
f 333/69/1 334/36/1 335/39/1 336/70/1
f 337/37/1 338/40/1 339/41/1 340/38/1
f 341/71/1 342/72/1 343/73/1 344/74/1
f 345/2/1 346/5/1 347/6/1 348/3/1
f 349/75/1 350/76/1 351/77/1 352/78/1
f 353/79/1 354/80/1 355/76/1 356/75/1
f 357/79/1 358/80/1 359/76/1 360/75/1
f 361/69/1 362/36/1 363/39/1 364/70/1
f 365/37/1 366/40/1 367/41/1 368/38/1
f 369/17/1 370/18/1 371/2/1 372/1/1
f 373/18/1 374/19/1 375/5/1 376/2/1
f 377/19/1 378/20/1 379/7/1 380/5/1
f 381/79/1 382/80/1 383/76/1 384/75/1
f 385/79/1 386/80/1 387/76/1 388/75/1
f 389/69/1 390/36/1 391/39/1 392/70/1
f 393/37/1 394/40/1 395/41/1 396/38/1
f 397/21/1 398/22/1 399/18/1 400/17/1
f 401/22/1 402/23/1 403/19/1 404/18/1
f 405/23/1 406/24/1 407/20/1 408/19/1
f 409/37/1 410/40/1 411/41/1 412/38/1
f 413/40/1 414/67/1 415/68/1 416/41/1
f 417/69/1 418/36/1 419/39/1 420/70/1
f 421/37/1 422/40/1 423/41/1 424/38/1
f 425/27/1 426/28/1 427/22/1 428/21/1
f 429/28/1 430/29/1 431/23/1 432/22/1
f 433/29/1 434/30/1 435/24/1 436/23/1
f 437/9/1 438/10/1 439/11/1 440/12/1
f 441/36/1 442/37/1 443/38/1 444/39/1
f 445/52/1 446/53/1 447/54/1 448/55/1
f 449/40/1 450/67/1 451/68/1 452/41/1
f 453/67/1 454/9/1 455/12/1 456/68/1
f 457/37/1 458/40/1 459/41/1 460/38/1
f 461/32/1 462/33/1 463/28/1 464/27/1
f 465/33/1 466/34/1 467/29/1 468/28/1
f 469/34/1 470/35/1 471/30/1 472/29/1
f 473/9/1 474/10/1 475/11/1 476/12/1
f 477/36/1 478/37/1 479/38/1 480/39/1
f 481/37/1 482/40/1 483/41/1 484/38/1
f 485/40/1 486/67/1 487/68/1 488/41/1
f 489/67/1 490/9/1 491/12/1 492/68/1
f 493/9/1 494/10/1 495/11/1 496/12/1
f 497/10/1 498/13/1 499/14/1 500/11/1
f 501/13/1 502/15/1 503/16/1 504/14/1
f 505/79/1 506/80/1 507/76/1 508/75/1
f 509/79/1 510/80/1 511/76/1 512/75/1
f 513/49/1 514/56/1 515/59/1 516/50/1
f 517/37/1 518/40/1 519/41/1 520/38/1
f 521/60/1 522/61/1 523/33/1 524/32/1
f 525/61/1 526/62/1 527/34/1 528/33/1
f 529/62/1 530/63/1 531/35/1 532/34/1
f 533/37/1 534/40/1 535/41/1 536/38/1
f 537/37/1 538/40/1 539/41/1 540/38/1
f 541/37/1 542/40/1 543/41/1 544/38/1
f 545/37/1 546/40/1 547/41/1 548/38/1
f 549/37/1 550/40/1 551/41/1 552/38/1
f 553/37/1 554/40/1 555/41/1 556/38/1
f 557/37/1 558/40/1 559/41/1 560/38/1
f 561/37/1 562/40/1 563/41/1 564/38/1
f 565/37/1 566/40/1 567/41/1 568/38/1
f 569/37/1 570/40/1 571/41/1 572/38/1
f 573/37/1 574/40/1 575/41/1 576/38/1
f 577/37/1 578/40/1 579/41/1 580/38/1

