# Tiled2Unity generated file. Do not modify by hand.
# Wavefront file for 'sin-nombre_mesh_0005.obj'

# Vertices (Count = 320)
v -4 -1 0
v -5 -1 0
v -5 0 0
v -4 0 0
v -5 -1 0
v -6 -1 0
v -6 0 0
v -5 0 0
v -6 -1 0
v -7 -1 0
v -7 0 0
v -6 0 0
v -7 -1 0
v -8 -1 0
v -8 0 0
v -7 0 0
v -8 -1 0
v -9 -1 0
v -9 0 0
v -8 0 0
v -9 -1 0
v -10 -1 0
v -10 0 0
v -9 0 0
v -10 -1 0
v -11 -1 0
v -11 0 0
v -10 0 0
v -11 -1 0
v -12 -1 0
v -12 0 0
v -11 0 0
v -4 -2 0
v -5 -2 0
v -5 -1 0
v -4 -1 0
v -5 -2 0
v -6 -2 0
v -6 -1 0
v -5 -1 0
v -6 -2 0
v -7 -2 0
v -7 -1 0
v -6 -1 0
v -7 -2 0
v -8 -2 0
v -8 -1 0
v -7 -1 0
v -8 -2 0
v -9 -2 0
v -9 -1 0
v -8 -1 0
v -9 -2 0
v -10 -2 0
v -10 -1 0
v -9 -1 0
v -10 -2 0
v -11 -2 0
v -11 -1 0
v -10 -1 0
v -11 -2 0
v -12 -2 0
v -12 -1 0
v -11 -1 0
v -4 -3 0
v -5 -3 0
v -5 -2 0
v -4 -2 0
v -5 -3 0
v -6 -3 0
v -6 -2 0
v -5 -2 0
v -6 -3 0
v -7 -3 0
v -7 -2 0
v -6 -2 0
v -7 -3 0
v -8 -3 0
v -8 -2 0
v -7 -2 0
v -8 -3 0
v -9 -3 0
v -9 -2 0
v -8 -2 0
v -9 -3 0
v -10 -3 0
v -10 -2 0
v -9 -2 0
v -10 -3 0
v -11 -3 0
v -11 -2 0
v -10 -2 0
v -11 -3 0
v -12 -3 0
v -12 -2 0
v -11 -2 0
v -4 -4 0
v -5 -4 0
v -5 -3 0
v -4 -3 0
v -5 -4 0
v -6 -4 0
v -6 -3 0
v -5 -3 0
v -6 -4 0
v -7 -4 0
v -7 -3 0
v -6 -3 0
v -7 -4 0
v -8 -4 0
v -8 -3 0
v -7 -3 0
v -8 -4 0
v -9 -4 0
v -9 -3 0
v -8 -3 0
v -9 -4 0
v -10 -4 0
v -10 -3 0
v -9 -3 0
v -10 -4 0
v -11 -4 0
v -11 -3 0
v -10 -3 0
v -11 -4 0
v -12 -4 0
v -12 -3 0
v -11 -3 0
v -8 -5 0
v -9 -5 0
v -9 -4 0
v -8 -4 0
v -9 -5 0
v -10 -5 0
v -10 -4 0
v -9 -4 0
v -10 -5 0
v -11 -5 0
v -11 -4 0
v -10 -4 0
v -11 -5 0
v -12 -5 0
v -12 -4 0
v -11 -4 0
v -8 -8 0
v -9 -8 0
v -9 -7 0
v -8 -7 0
v -9 -8 0
v -10 -8 0
v -10 -7 0
v -9 -7 0
v -10 -8 0
v -11 -8 0
v -11 -7 0
v -10 -7 0
v -11 -8 0
v -12 -8 0
v -12 -7 0
v -11 -7 0
v -12 -8 0
v -13 -8 0
v -13 -7 0
v -12 -7 0
v -13 -8 0
v -14 -8 0
v -14 -7 0
v -13 -7 0
v -5 -9 0
v -6 -9 0
v -6 -8 0
v -5 -8 0
v -6 -9 0
v -7 -9 0
v -7 -8 0
v -6 -8 0
v -8 -9 0
v -9 -9 0
v -9 -8 0
v -8 -8 0
v -9 -9 0
v -10 -9 0
v -10 -8 0
v -9 -8 0
v -10 -9 0
v -11 -9 0
v -11 -8 0
v -10 -8 0
v -11 -9 0
v -12 -9 0
v -12 -8 0
v -11 -8 0
v -12 -9 0
v -13 -9 0
v -13 -8 0
v -12 -8 0
v -13 -9 0
v -14 -9 0
v -14 -8 0
v -13 -8 0
v -5 -10 0
v -6 -10 0
v -6 -9 0
v -5 -9 0
v -6 -10 0
v -7 -10 0
v -7 -9 0
v -6 -9 0
v -8 -10 0
v -9 -10 0
v -9 -9 0
v -8 -9 0
v -9 -10 0
v -10 -10 0
v -10 -9 0
v -9 -9 0
v -10 -10 0
v -11 -10 0
v -11 -9 0
v -10 -9 0
v -11 -10 0
v -12 -10 0
v -12 -9 0
v -11 -9 0
v -12 -10 0
v -13 -10 0
v -13 -9 0
v -12 -9 0
v -13 -10 0
v -14 -10 0
v -14 -9 0
v -13 -9 0
v -3 -11 0
v -4 -11 0
v -4 -10 0
v -3 -10 0
v -4 -11 0
v -5 -11 0
v -5 -10 0
v -4 -10 0
v -8 -11 0
v -9 -11 0
v -9 -10 0
v -8 -10 0
v -9 -11 0
v -10 -11 0
v -10 -10 0
v -9 -10 0
v -10 -11 0
v -11 -11 0
v -11 -10 0
v -10 -10 0
v -11 -11 0
v -12 -11 0
v -12 -10 0
v -11 -10 0
v -12 -11 0
v -13 -11 0
v -13 -10 0
v -12 -10 0
v -13 -11 0
v -14 -11 0
v -14 -10 0
v -13 -10 0
v -3 -12 0
v -4 -12 0
v -4 -11 0
v -3 -11 0
v -4 -12 0
v -5 -12 0
v -5 -11 0
v -4 -11 0
v -8 -12 0
v -9 -12 0
v -9 -11 0
v -8 -11 0
v -9 -12 0
v -10 -12 0
v -10 -11 0
v -9 -11 0
v -10 -12 0
v -11 -12 0
v -11 -11 0
v -10 -11 0
v -11 -12 0
v -12 -12 0
v -12 -11 0
v -11 -11 0
v -12 -12 0
v -13 -12 0
v -13 -11 0
v -12 -11 0
v -13 -12 0
v -14 -12 0
v -14 -11 0
v -13 -11 0
v -8 -13 0
v -9 -13 0
v -9 -12 0
v -8 -12 0
v -9 -13 0
v -10 -13 0
v -10 -12 0
v -9 -12 0
v -10 -13 0
v -11 -13 0
v -11 -12 0
v -10 -12 0
v -11 -13 0
v -12 -13 0
v -12 -12 0
v -11 -12 0
v -12 -13 0
v -13 -13 0
v -13 -12 0
v -12 -12 0
v -13 -13 0
v -14 -13 0
v -14 -12 0
v -13 -12 0

# Texture cooridinates (Count = 85)
vt 0.3125 0.84375
vt 0.34375 0.84375
vt 0.34375 0.875
vt 0.3125 0.875
vt 0.375 0.84375
vt 0.375 0.875
vt 0.40625 0.84375
vt 0.40625 0.875
vt 0.4375 0.84375
vt 0.4375 0.875
vt 0.34375 0.90625
vt 0.3125 0.90625
vt 0.375 0.90625
vt 0.40625 0.90625
vt 0.4375 0.90625
vt 0.3125 0.8125
vt 0.34375 0.8125
vt 0.375 0.8125
vt 0.40625 0.8125
vt 0.4375 0.8125
vt 0.3125 0.78125
vt 0.34375 0.78125
vt 0.375 0.78125
vt 0.40625 0.78125
vt 0.4375 0.78125
vt 0.3125 0.75
vt 0.34375 0.75
vt 0.375 0.75
vt 0.40625 0.75
vt 0.4375 0.75
vt 0 0.96875
vt 0.03125 0.96875
vt 0.03125 1
vt 0 1
vt 0.0625 0.96875
vt 0.0625 1
vt 0.09375 0.96875
vt 0.09375 1
vt 0.125 0.96875
vt 0.125 1
vt 0.15625 0.96875
vt 0.15625 1
vt 0.1875 0.96875
vt 0.1875 1
vt 0.1875 0.84375
vt 0.21875 0.84375
vt 0.21875 0.875
vt 0.1875 0.875
vt 0.25 0.84375
vt 0.25 0.875
vt 0 0.9375
vt 0.03125 0.9375
vt 0.0625 0.9375
vt 0.09375 0.9375
vt 0.125 0.9375
vt 0.15625 0.9375
vt 0.1875 0.9375
vt 0.1875 0.8125
vt 0.21875 0.8125
vt 0.25 0.8125
vt 0 0.90625
vt 0.03125 0.90625
vt 0.0625 0.90625
vt 0.09375 0.90625
vt 0.125 0.90625
vt 0.15625 0.90625
vt 0.1875 0.90625
vt 0 0.875
vt 0.03125 0.875
vt 0.0625 0.875
vt 0.09375 0.875
vt 0.125 0.875
vt 0.15625 0.875
vt 0 0.84375
vt 0.03125 0.84375
vt 0.0625 0.84375
vt 0.09375 0.84375
vt 0.125 0.84375
vt 0.15625 0.84375
vt 0 0.8125
vt 0.03125 0.8125
vt 0.0625 0.8125
vt 0.09375 0.8125
vt 0.125 0.8125
vt 0.15625 0.8125

# Normal
vn 0 0 -1

# Mesh description
g sin-nombre_mesh_0005

# Faces
f 1/1/1 2/2/1 3/3/1 4/4/1
f 5/2/1 6/5/1 7/6/1 8/3/1
f 9/5/1 10/7/1 11/8/1 12/6/1
f 13/7/1 14/9/1 15/10/1 16/8/1
f 17/4/1 18/3/1 19/11/1 20/12/1
f 21/3/1 22/6/1 23/13/1 24/11/1
f 25/6/1 26/8/1 27/14/1 28/13/1
f 29/8/1 30/10/1 31/15/1 32/14/1
f 33/16/1 34/17/1 35/2/1 36/1/1
f 37/17/1 38/18/1 39/5/1 40/2/1
f 41/18/1 42/19/1 43/7/1 44/5/1
f 45/19/1 46/20/1 47/9/1 48/7/1
f 49/1/1 50/2/1 51/3/1 52/4/1
f 53/2/1 54/5/1 55/6/1 56/3/1
f 57/5/1 58/7/1 59/8/1 60/6/1
f 61/7/1 62/9/1 63/10/1 64/8/1
f 65/21/1 66/22/1 67/17/1 68/16/1
f 69/22/1 70/23/1 71/18/1 72/17/1
f 73/23/1 74/24/1 75/19/1 76/18/1
f 77/24/1 78/25/1 79/20/1 80/19/1
f 81/16/1 82/17/1 83/2/1 84/1/1
f 85/17/1 86/18/1 87/5/1 88/2/1
f 89/18/1 90/19/1 91/7/1 92/5/1
f 93/19/1 94/20/1 95/9/1 96/7/1
f 97/26/1 98/27/1 99/22/1 100/21/1
f 101/27/1 102/28/1 103/23/1 104/22/1
f 105/28/1 106/29/1 107/24/1 108/23/1
f 109/29/1 110/30/1 111/25/1 112/24/1
f 113/21/1 114/22/1 115/17/1 116/16/1
f 117/22/1 118/23/1 119/18/1 120/17/1
f 121/23/1 122/24/1 123/19/1 124/18/1
f 125/24/1 126/25/1 127/20/1 128/19/1
f 129/26/1 130/27/1 131/22/1 132/21/1
f 133/27/1 134/28/1 135/23/1 136/22/1
f 137/28/1 138/29/1 139/24/1 140/23/1
f 141/29/1 142/30/1 143/25/1 144/24/1
f 145/31/1 146/32/1 147/33/1 148/34/1
f 149/32/1 150/35/1 151/36/1 152/33/1
f 153/35/1 154/37/1 155/38/1 156/36/1
f 157/37/1 158/39/1 159/40/1 160/38/1
f 161/39/1 162/41/1 163/42/1 164/40/1
f 165/41/1 166/43/1 167/44/1 168/42/1
f 169/45/1 170/46/1 171/47/1 172/48/1
f 173/46/1 174/49/1 175/50/1 176/47/1
f 177/51/1 178/52/1 179/32/1 180/31/1
f 181/52/1 182/53/1 183/35/1 184/32/1
f 185/53/1 186/54/1 187/37/1 188/35/1
f 189/54/1 190/55/1 191/39/1 192/37/1
f 193/55/1 194/56/1 195/41/1 196/39/1
f 197/56/1 198/57/1 199/43/1 200/41/1
f 201/58/1 202/59/1 203/46/1 204/45/1
f 205/59/1 206/60/1 207/49/1 208/46/1
f 209/61/1 210/62/1 211/52/1 212/51/1
f 213/62/1 214/63/1 215/53/1 216/52/1
f 217/63/1 218/64/1 219/54/1 220/53/1
f 221/64/1 222/65/1 223/55/1 224/54/1
f 225/65/1 226/66/1 227/56/1 228/55/1
f 229/66/1 230/67/1 231/57/1 232/56/1
f 233/45/1 234/46/1 235/47/1 236/48/1
f 237/46/1 238/49/1 239/50/1 240/47/1
f 241/68/1 242/69/1 243/62/1 244/61/1
f 245/69/1 246/70/1 247/63/1 248/62/1
f 249/70/1 250/71/1 251/64/1 252/63/1
f 253/71/1 254/72/1 255/65/1 256/64/1
f 257/72/1 258/73/1 259/66/1 260/65/1
f 261/73/1 262/48/1 263/67/1 264/66/1
f 265/58/1 266/59/1 267/46/1 268/45/1
f 269/59/1 270/60/1 271/49/1 272/46/1
f 273/74/1 274/75/1 275/69/1 276/68/1
f 277/75/1 278/76/1 279/70/1 280/69/1
f 281/76/1 282/77/1 283/71/1 284/70/1
f 285/77/1 286/78/1 287/72/1 288/71/1
f 289/78/1 290/79/1 291/73/1 292/72/1
f 293/79/1 294/45/1 295/48/1 296/73/1
f 297/80/1 298/81/1 299/75/1 300/74/1
f 301/81/1 302/82/1 303/76/1 304/75/1
f 305/82/1 306/83/1 307/77/1 308/76/1
f 309/83/1 310/84/1 311/78/1 312/77/1
f 313/84/1 314/85/1 315/79/1 316/78/1
f 317/85/1 318/58/1 319/45/1 320/79/1

