# Tiled2Unity generated file. Do not modify by hand.
# Wavefront file for 'SalaFinal_mesh_0003.obj'

# Vertices (Count = 312)
v -7 -2 0
v -8 -2 0
v -8 -1 0
v -7 -1 0
v -8 -2 0
v -9 -2 0
v -9 -1 0
v -8 -1 0
v -9 -2 0
v -10 -2 0
v -10 -1 0
v -9 -1 0
v -10 -2 0
v -11 -2 0
v -11 -1 0
v -10 -1 0
v -11 -2 0
v -12 -2 0
v -12 -1 0
v -11 -1 0
v -12 -2 0
v -13 -2 0
v -13 -1 0
v -12 -1 0
v -13 -2 0
v -14 -2 0
v -14 -1 0
v -13 -1 0
v -14 -2 0
v -15 -2 0
v -15 -1 0
v -14 -1 0
v -15 -2 0
v -16 -2 0
v -16 -1 0
v -15 -1 0
v -7 -3 0
v -8 -3 0
v -8 -2 0
v -7 -2 0
v -8 -3 0
v -9 -3 0
v -9 -2 0
v -8 -2 0
v -9 -3 0
v -10 -3 0
v -10 -2 0
v -9 -2 0
v -10 -3 0
v -11 -3 0
v -11 -2 0
v -10 -2 0
v -11 -3 0
v -12 -3 0
v -12 -2 0
v -11 -2 0
v -12 -3 0
v -13 -3 0
v -13 -2 0
v -12 -2 0
v -13 -3 0
v -14 -3 0
v -14 -2 0
v -13 -2 0
v -14 -3 0
v -15 -3 0
v -15 -2 0
v -14 -2 0
v -15 -3 0
v -16 -3 0
v -16 -2 0
v -15 -2 0
v -1 -4 0
v -2 -4 0
v -2 -3 0
v -1 -3 0
v -2 -4 0
v -3 -4 0
v -3 -3 0
v -2 -3 0
v -7 -4 0
v -8 -4 0
v -8 -3 0
v -7 -3 0
v -8 -4 0
v -9 -4 0
v -9 -3 0
v -8 -3 0
v -9 -4 0
v -10 -4 0
v -10 -3 0
v -9 -3 0
v -10 -4 0
v -11 -4 0
v -11 -3 0
v -10 -3 0
v -11 -4 0
v -12 -4 0
v -12 -3 0
v -11 -3 0
v -12 -4 0
v -13 -4 0
v -13 -3 0
v -12 -3 0
v -13 -4 0
v -14 -4 0
v -14 -3 0
v -13 -3 0
v -14 -4 0
v -15 -4 0
v -15 -3 0
v -14 -3 0
v -15 -4 0
v -16 -4 0
v -16 -3 0
v -15 -3 0
v -1 -5 0
v -2 -5 0
v -2 -4 0
v -1 -4 0
v -2 -5 0
v -3 -5 0
v -3 -4 0
v -2 -4 0
v -7 -5 0
v -8 -5 0
v -8 -4 0
v -7 -4 0
v -8 -5 0
v -9 -5 0
v -9 -4 0
v -8 -4 0
v -9 -5 0
v -10 -5 0
v -10 -4 0
v -9 -4 0
v -10 -5 0
v -11 -5 0
v -11 -4 0
v -10 -4 0
v -13 -6 0
v -14 -6 0
v -14 -5 0
v -13 -5 0
v -14 -6 0
v -15 -6 0
v -15 -5 0
v -14 -5 0
v -15 -6 0
v -16 -6 0
v -16 -5 0
v -15 -5 0
v -2 -7 0
v -3 -7 0
v -3 -6 0
v -2 -6 0
v -3 -7 0
v -4 -7 0
v -4 -6 0
v -3 -6 0
v -4 -7 0
v -5 -7 0
v -5 -6 0
v -4 -6 0
v -7 -7 0
v -8 -7 0
v -8 -6 0
v -7 -6 0
v -13 -7 0
v -14 -7 0
v -14 -6 0
v -13 -6 0
v -14 -7 0
v -15 -7 0
v -15 -6 0
v -14 -6 0
v -15 -7 0
v -16 -7 0
v -16 -6 0
v -15 -6 0
v -2 -8 0
v -3 -8 0
v -3 -7 0
v -2 -7 0
v -3 -8 0
v -4 -8 0
v -4 -7 0
v -3 -7 0
v -4 -8 0
v -5 -8 0
v -5 -7 0
v -4 -7 0
v -7 -8 0
v -8 -8 0
v -8 -7 0
v -7 -7 0
v -2 -9 0
v -3 -9 0
v -3 -8 0
v -2 -8 0
v -3 -9 0
v -4 -9 0
v -4 -8 0
v -3 -8 0
v -4 -9 0
v -5 -9 0
v -5 -8 0
v -4 -8 0
v -7 -9 0
v -8 -9 0
v -8 -8 0
v -7 -8 0
v -2 -10 0
v -3 -10 0
v -3 -9 0
v -2 -9 0
v -3 -10 0
v -4 -10 0
v -4 -9 0
v -3 -9 0
v -4 -10 0
v -5 -10 0
v -5 -9 0
v -4 -9 0
v -2 -11 0
v -3 -11 0
v -3 -10 0
v -2 -10 0
v -3 -11 0
v -4 -11 0
v -4 -10 0
v -3 -10 0
v -4 -11 0
v -5 -11 0
v -5 -10 0
v -4 -10 0
v -2 -12 0
v -3 -12 0
v -3 -11 0
v -2 -11 0
v -3 -12 0
v -4 -12 0
v -4 -11 0
v -3 -11 0
v -4 -12 0
v -5 -12 0
v -5 -11 0
v -4 -11 0
v -1 -13 0
v -2 -13 0
v -2 -12 0
v -1 -12 0
v -2 -13 0
v -3 -13 0
v -3 -12 0
v -2 -12 0
v -12 -13 0
v -13 -13 0
v -13 -12 0
v -12 -12 0
v -13 -13 0
v -14 -13 0
v -14 -12 0
v -13 -12 0
v -14 -13 0
v -15 -13 0
v -15 -12 0
v -14 -12 0
v -1 -14 0
v -2 -14 0
v -2 -13 0
v -1 -13 0
v -2 -14 0
v -3 -14 0
v -3 -13 0
v -2 -13 0
v -13 -14 0
v -14 -14 0
v -14 -13 0
v -13 -13 0
v -14 -14 0
v -15 -14 0
v -15 -13 0
v -14 -13 0
v -15 -14 0
v -16 -14 0
v -16 -13 0
v -15 -13 0
v -13 -15 0
v -14 -15 0
v -14 -14 0
v -13 -14 0
v -14 -15 0
v -15 -15 0
v -15 -14 0
v -14 -14 0
v -15 -15 0
v -16 -15 0
v -16 -14 0
v -15 -14 0
v -13 -16 0
v -14 -16 0
v -14 -15 0
v -13 -15 0
v -14 -16 0
v -15 -16 0
v -15 -15 0
v -14 -15 0
v -15 -16 0
v -16 -16 0
v -16 -15 0
v -15 -15 0

# Texture cooridinates (Count = 85)
vt 0.275 0.2777778
vt 0.3 0.2777778
vt 0.3 0.3055556
vt 0.275 0.3055556
vt 0.325 0.2777778
vt 0.325 0.3055556
vt 0.35 0.2777778
vt 0.35 0.3055556
vt 0.475 0.5
vt 0.5 0.5
vt 0.5 0.5277778
vt 0.475 0.5277778
vt 0.525 0.5
vt 0.525 0.5277778
vt 0.55 0.5
vt 0.55 0.5277778
vt 0.275 0.25
vt 0.3 0.25
vt 0.375 0.2777778
vt 0.375 0.3055556
vt 0.4 0.2777778
vt 0.4 0.3055556
vt 0.325 0.25
vt 0.35 0.25
vt 0.475 0.4722222
vt 0.5 0.4722222
vt 0.525 0.4722222
vt 0.55 0.4722222
vt 0.925 0.8333333
vt 0.95 0.8333333
vt 0.95 0.8611111
vt 0.925 0.8611111
vt 0.975 0.8333333
vt 0.975 0.8611111
vt 0.375 0.25
vt 0.4 0.25
vt 0.475 0.4444444
vt 0.5 0.4444444
vt 0.525 0.4444444
vt 0.55 0.4444444
vt 0.925 0.8055556
vt 0.95 0.8055556
vt 0.975 0.8055556
vt 0.275 0.2222222
vt 0.3 0.2222222
vt 0.325 0.2222222
vt 0.35 0.2222222
vt 0.975 0.7777778
vt 1 0.7777778
vt 1 0.8055556
vt 0.7 0.7222222
vt 0.725 0.7222222
vt 0.725 0.75
vt 0.7 0.75
vt 0.75 0.7222222
vt 0.75 0.75
vt 0.775 0.7222222
vt 0.775 0.75
vt 0.1 0.8611111
vt 0.1 0.8333333
vt 0.075 0.8333333
vt 0.075 0.8611111
vt 0.975 0.75
vt 1 0.75
vt 0.7 0.6944444
vt 0.725 0.6944444
vt 0.75 0.6944444
vt 0.775 0.6944444
vt 0.125 0.8611111
vt 0.125 0.8333333
vt 0.7 0.6666666
vt 0.725 0.6666666
vt 0.75 0.6666666
vt 0.775 0.6666666
vt 0.15 0.8611111
vt 0.15 0.8333333
vt 0.775 0.8333333
vt 0.8 0.8333333
vt 0.8 0.8611111
vt 0.775 0.8611111
vt 0.825 0.8333333
vt 0.825 0.8611111
vt 0.775 0.8055556
vt 0.8 0.8055556
vt 0.825 0.8055556

# Normal
vn 0 0 -1

# Mesh description
g SalaFinal_mesh_0003

# Faces
f 1/1/1 2/2/1 3/3/1 4/4/1
f 5/2/1 6/5/1 7/6/1 8/3/1
f 9/2/1 10/5/1 11/6/1 12/3/1
f 13/5/1 14/7/1 15/8/1 16/6/1
f 17/9/1 18/10/1 19/11/1 20/12/1
f 21/10/1 22/13/1 23/14/1 24/11/1
f 25/10/1 26/13/1 27/14/1 28/11/1
f 29/10/1 30/13/1 31/14/1 32/11/1
f 33/13/1 34/15/1 35/16/1 36/14/1
f 37/17/1 38/18/1 39/2/1 40/1/1
f 41/7/1 42/19/1 43/20/1 44/8/1
f 45/19/1 46/21/1 47/22/1 48/20/1
f 49/23/1 50/24/1 51/7/1 52/5/1
f 53/25/1 54/26/1 55/10/1 56/9/1
f 57/26/1 58/27/1 59/13/1 60/10/1
f 61/26/1 62/27/1 63/13/1 64/10/1
f 65/26/1 66/27/1 67/13/1 68/10/1
f 69/27/1 70/28/1 71/15/1 72/13/1
f 73/29/1 74/30/1 75/31/1 76/32/1
f 77/30/1 78/33/1 79/34/1 80/31/1
f 81/17/1 82/18/1 83/2/1 84/1/1
f 85/24/1 86/35/1 87/19/1 88/7/1
f 89/35/1 90/36/1 91/21/1 92/19/1
f 93/23/1 94/24/1 95/7/1 96/5/1
f 97/37/1 98/38/1 99/26/1 100/25/1
f 101/38/1 102/39/1 103/27/1 104/26/1
f 105/38/1 106/39/1 107/27/1 108/26/1
f 109/38/1 110/39/1 111/27/1 112/26/1
f 113/39/1 114/40/1 115/28/1 116/27/1
f 117/41/1 118/42/1 119/30/1 120/29/1
f 121/42/1 122/43/1 123/33/1 124/30/1
f 125/44/1 126/45/1 127/18/1 128/17/1
f 129/45/1 130/46/1 131/23/1 132/18/1
f 133/45/1 134/46/1 135/23/1 136/18/1
f 137/46/1 138/47/1 139/24/1 140/23/1
f 141/29/1 142/30/1 143/31/1 144/32/1
f 145/48/1 146/49/1 147/50/1 148/43/1
f 149/48/1 150/49/1 151/50/1 152/43/1
f 153/51/1 154/52/1 155/53/1 156/54/1
f 157/52/1 158/55/1 159/56/1 160/53/1
f 161/55/1 162/57/1 163/58/1 164/56/1
f 165/59/1 166/60/1 167/61/1 168/62/1
f 169/41/1 170/42/1 171/30/1 172/29/1
f 173/63/1 174/64/1 175/49/1 176/48/1
f 177/63/1 178/64/1 179/49/1 180/48/1
f 181/65/1 182/66/1 183/52/1 184/51/1
f 185/66/1 186/67/1 187/55/1 188/52/1
f 189/67/1 190/68/1 191/57/1 192/55/1
f 193/69/1 194/70/1 195/60/1 196/59/1
f 197/71/1 198/72/1 199/66/1 200/65/1
f 201/72/1 202/73/1 203/67/1 204/66/1
f 205/73/1 206/74/1 207/68/1 208/67/1
f 209/75/1 210/76/1 211/70/1 212/69/1
f 213/1/1 214/2/1 215/3/1 216/4/1
f 217/2/1 218/5/1 219/6/1 220/3/1
f 221/5/1 222/7/1 223/8/1 224/6/1
f 225/17/1 226/18/1 227/2/1 228/1/1
f 229/18/1 230/23/1 231/5/1 232/2/1
f 233/23/1 234/24/1 235/7/1 236/5/1
f 237/44/1 238/45/1 239/18/1 240/17/1
f 241/45/1 242/46/1 243/23/1 244/18/1
f 245/46/1 246/47/1 247/24/1 248/23/1
f 249/77/1 250/78/1 251/79/1 252/80/1
f 253/78/1 254/81/1 255/82/1 256/79/1
f 257/61/1 258/60/1 259/59/1 260/62/1
f 261/60/1 262/70/1 263/69/1 264/59/1
f 265/70/1 266/76/1 267/75/1 268/69/1
f 269/83/1 270/84/1 271/78/1 272/77/1
f 273/84/1 274/85/1 275/81/1 276/78/1
f 277/1/1 278/2/1 279/3/1 280/4/1
f 281/2/1 282/5/1 283/6/1 284/3/1
f 285/5/1 286/7/1 287/8/1 288/6/1
f 289/17/1 290/18/1 291/2/1 292/1/1
f 293/18/1 294/23/1 295/5/1 296/2/1
f 297/23/1 298/24/1 299/7/1 300/5/1
f 301/44/1 302/45/1 303/18/1 304/17/1
f 305/45/1 306/46/1 307/23/1 308/18/1
f 309/46/1 310/47/1 311/24/1 312/23/1

