# Tiled2Unity generated file. Do not modify by hand.
# Wavefront file for 'Antecamara_mesh_0003.obj'

# Vertices (Count = 460)
v 0 -6 0
v -1 -6 0
v -1 -5 0
v 0 -5 0
v -1 -6 0
v -2 -6 0
v -2 -5 0
v -1 -5 0
v -2 -6 0
v -3 -6 0
v -3 -5 0
v -2 -5 0
v -3 -6 0
v -4 -6 0
v -4 -5 0
v -3 -5 0
v -4 -6 0
v -5 -6 0
v -5 -5 0
v -4 -5 0
v -5 -6 0
v -6 -6 0
v -6 -5 0
v -5 -5 0
v -6 -6 0
v -7 -6 0
v -7 -5 0
v -6 -5 0
v -7 -6 0
v -8 -6 0
v -8 -5 0
v -7 -5 0
v -8 -6 0
v -9 -6 0
v -9 -5 0
v -8 -5 0
v -9 -6 0
v -10 -6 0
v -10 -5 0
v -9 -5 0
v -10 -6 0
v -11 -6 0
v -11 -5 0
v -10 -5 0
v -11 -6 0
v -12 -6 0
v -12 -5 0
v -11 -5 0
v -12 -6 0
v -13 -6 0
v -13 -5 0
v -12 -5 0
v -13 -6 0
v -14 -6 0
v -14 -5 0
v -13 -5 0
v -14 -6 0
v -15 -6 0
v -15 -5 0
v -14 -5 0
v -15 -6 0
v -16 -6 0
v -16 -5 0
v -15 -5 0
v -16 -6 0
v -17 -6 0
v -17 -5 0
v -16 -5 0
v -17 -6 0
v -18 -6 0
v -18 -5 0
v -17 -5 0
v -18 -6 0
v -19 -6 0
v -19 -5 0
v -18 -5 0
v -19 -6 0
v -20 -6 0
v -20 -5 0
v -19 -5 0
v 0 -7 0
v -1 -7 0
v -1 -6 0
v 0 -6 0
v -1 -7 0
v -2 -7 0
v -2 -6 0
v -1 -6 0
v -2 -7 0
v -3 -7 0
v -3 -6 0
v -2 -6 0
v -3 -7 0
v -4 -7 0
v -4 -6 0
v -3 -6 0
v -4 -7 0
v -5 -7 0
v -5 -6 0
v -4 -6 0
v -5 -7 0
v -6 -7 0
v -6 -6 0
v -5 -6 0
v -6 -7 0
v -7 -7 0
v -7 -6 0
v -6 -6 0
v -7 -7 0
v -8 -7 0
v -8 -6 0
v -7 -6 0
v -8 -7 0
v -9 -7 0
v -9 -6 0
v -8 -6 0
v -9 -7 0
v -10 -7 0
v -10 -6 0
v -9 -6 0
v -10 -7 0
v -11 -7 0
v -11 -6 0
v -10 -6 0
v -11 -7 0
v -12 -7 0
v -12 -6 0
v -11 -6 0
v -12 -7 0
v -13 -7 0
v -13 -6 0
v -12 -6 0
v -13 -7 0
v -14 -7 0
v -14 -6 0
v -13 -6 0
v -14 -7 0
v -15 -7 0
v -15 -6 0
v -14 -6 0
v -15 -7 0
v -16 -7 0
v -16 -6 0
v -15 -6 0
v -16 -7 0
v -17 -7 0
v -17 -6 0
v -16 -6 0
v -17 -7 0
v -18 -7 0
v -18 -6 0
v -17 -6 0
v -18 -7 0
v -19 -7 0
v -19 -6 0
v -18 -6 0
v -19 -7 0
v -20 -7 0
v -20 -6 0
v -19 -6 0
v 0 -8 0
v -1 -8 0
v -1 -7 0
v 0 -7 0
v -1 -8 0
v -2 -8 0
v -2 -7 0
v -1 -7 0
v -2 -8 0
v -3 -8 0
v -3 -7 0
v -2 -7 0
v -3 -8 0
v -4 -8 0
v -4 -7 0
v -3 -7 0
v -4 -8 0
v -5 -8 0
v -5 -7 0
v -4 -7 0
v -5 -8 0
v -6 -8 0
v -6 -7 0
v -5 -7 0
v -6 -8 0
v -7 -8 0
v -7 -7 0
v -6 -7 0
v -7 -8 0
v -8 -8 0
v -8 -7 0
v -7 -7 0
v -8 -8 0
v -9 -8 0
v -9 -7 0
v -8 -7 0
v -9 -8 0
v -10 -8 0
v -10 -7 0
v -9 -7 0
v -10 -8 0
v -11 -8 0
v -11 -7 0
v -10 -7 0
v -11 -8 0
v -12 -8 0
v -12 -7 0
v -11 -7 0
v -12 -8 0
v -13 -8 0
v -13 -7 0
v -12 -7 0
v -13 -8 0
v -14 -8 0
v -14 -7 0
v -13 -7 0
v -14 -8 0
v -15 -8 0
v -15 -7 0
v -14 -7 0
v -15 -8 0
v -16 -8 0
v -16 -7 0
v -15 -7 0
v -16 -8 0
v -17 -8 0
v -17 -7 0
v -16 -7 0
v -17 -8 0
v -18 -8 0
v -18 -7 0
v -17 -7 0
v -18 -8 0
v -19 -8 0
v -19 -7 0
v -18 -7 0
v -19 -8 0
v -20 -8 0
v -20 -7 0
v -19 -7 0
v 0 -9 0
v -1 -9 0
v -1 -8 0
v 0 -8 0
v -1 -9 0
v -2 -9 0
v -2 -8 0
v -1 -8 0
v -2 -9 0
v -3 -9 0
v -3 -8 0
v -2 -8 0
v -3 -9 0
v -4 -9 0
v -4 -8 0
v -3 -8 0
v -4 -9 0
v -5 -9 0
v -5 -8 0
v -4 -8 0
v -5 -9 0
v -6 -9 0
v -6 -8 0
v -5 -8 0
v -6 -9 0
v -7 -9 0
v -7 -8 0
v -6 -8 0
v -7 -9 0
v -8 -9 0
v -8 -8 0
v -7 -8 0
v -8 -9 0
v -9 -9 0
v -9 -8 0
v -8 -8 0
v -9 -9 0
v -10 -9 0
v -10 -8 0
v -9 -8 0
v -10 -9 0
v -11 -9 0
v -11 -8 0
v -10 -8 0
v -11 -9 0
v -12 -9 0
v -12 -8 0
v -11 -8 0
v -12 -9 0
v -13 -9 0
v -13 -8 0
v -12 -8 0
v -13 -9 0
v -14 -9 0
v -14 -8 0
v -13 -8 0
v -14 -9 0
v -15 -9 0
v -15 -8 0
v -14 -8 0
v -15 -9 0
v -16 -9 0
v -16 -8 0
v -15 -8 0
v -16 -9 0
v -17 -9 0
v -17 -8 0
v -16 -8 0
v -17 -9 0
v -18 -9 0
v -18 -8 0
v -17 -8 0
v -18 -9 0
v -19 -9 0
v -19 -8 0
v -18 -8 0
v -19 -9 0
v -20 -9 0
v -20 -8 0
v -19 -8 0
v -8 -10 0
v -9 -10 0
v -9 -9 0
v -8 -9 0
v -9 -10 0
v -10 -10 0
v -10 -9 0
v -9 -9 0
v -10 -10 0
v -11 -10 0
v -11 -9 0
v -10 -9 0
v -11 -10 0
v -12 -10 0
v -12 -9 0
v -11 -9 0
v -12 -10 0
v -13 -10 0
v -13 -9 0
v -12 -9 0
v -8 -11 0
v -9 -11 0
v -9 -10 0
v -8 -10 0
v -9 -11 0
v -10 -11 0
v -10 -10 0
v -9 -10 0
v -10 -11 0
v -11 -11 0
v -11 -10 0
v -10 -10 0
v -11 -11 0
v -12 -11 0
v -12 -10 0
v -11 -10 0
v -12 -11 0
v -13 -11 0
v -13 -10 0
v -12 -10 0
v -8 -12 0
v -9 -12 0
v -9 -11 0
v -8 -11 0
v -9 -12 0
v -10 -12 0
v -10 -11 0
v -9 -11 0
v -10 -12 0
v -11 -12 0
v -11 -11 0
v -10 -11 0
v -11 -12 0
v -12 -12 0
v -12 -11 0
v -11 -11 0
v -12 -12 0
v -13 -12 0
v -13 -11 0
v -12 -11 0
v -8 -13 0
v -9 -13 0
v -9 -12 0
v -8 -12 0
v -9 -13 0
v -10 -13 0
v -10 -12 0
v -9 -12 0
v -10 -13 0
v -11 -13 0
v -11 -12 0
v -10 -12 0
v -11 -13 0
v -12 -13 0
v -12 -12 0
v -11 -12 0
v -12 -13 0
v -13 -13 0
v -13 -12 0
v -12 -12 0
v -8 -14 0
v -9 -14 0
v -9 -13 0
v -8 -13 0
v -9 -14 0
v -10 -14 0
v -10 -13 0
v -9 -13 0
v -10 -14 0
v -11 -14 0
v -11 -13 0
v -10 -13 0
v -11 -14 0
v -12 -14 0
v -12 -13 0
v -11 -13 0
v -12 -14 0
v -13 -14 0
v -13 -13 0
v -12 -13 0
v -8 -15 0
v -9 -15 0
v -9 -14 0
v -8 -14 0
v -9 -15 0
v -10 -15 0
v -10 -14 0
v -9 -14 0
v -10 -15 0
v -11 -15 0
v -11 -14 0
v -10 -14 0
v -11 -15 0
v -12 -15 0
v -12 -14 0
v -11 -14 0
v -12 -15 0
v -13 -15 0
v -13 -14 0
v -12 -14 0
v -8 -16 0
v -9 -16 0
v -9 -15 0
v -8 -15 0
v -9 -16 0
v -10 -16 0
v -10 -15 0
v -9 -15 0
v -10 -16 0
v -11 -16 0
v -11 -15 0
v -10 -15 0
v -11 -16 0
v -12 -16 0
v -12 -15 0
v -11 -15 0
v -12 -16 0
v -13 -16 0
v -13 -15 0
v -12 -15 0

# Texture cooridinates (Count = 54)
vt 0.65 0.2777778
vt 0.675 0.2777778
vt 0.675 0.3055556
vt 0.65 0.3055556
vt 0.7 0.2777778
vt 0.7 0.3055556
vt 0.725 0.2777778
vt 0.725 0.3055556
vt 0.5 0.1944444
vt 0.525 0.1944444
vt 0.525 0.2222222
vt 0.5 0.2222222
vt 0.55 0.1944444
vt 0.55 0.2222222
vt 0.575 0.1944444
vt 0.575 0.2222222
vt 0.65 0.25
vt 0.675 0.25
vt 0.7 0.25
vt 0.725 0.25
vt 0.5 0.1666667
vt 0.525 0.1666667
vt 0.55 0.1666667
vt 0.575 0.1666667
vt 0.65 0.2222222
vt 0.675 0.2222222
vt 0.7 0.2222222
vt 0.725 0.2222222
vt 0.5 0.1388889
vt 0.525 0.1388889
vt 0.55 0.1388889
vt 0.575 0.1388889
vt 0.65 0.1944444
vt 0.675 0.1944444
vt 0.7 0.1944444
vt 0.725 0.1944444
vt 0.475 0.1111111
vt 0.5 0.1111111
vt 0.475 0.1388889
vt 0.525 0.1111111
vt 0.55 0.1111111
vt 0.575 0.1111111
vt 0.6 0.1111111
vt 0.6 0.1388889
vt 0.475 0.1666667
vt 0.475 0.1944444
vt 0.6 0.1666667
vt 0.6 0.1944444
vt 0.475 0.08333331
vt 0.5 0.08333331
vt 0.525 0.08333331
vt 0.55 0.08333331
vt 0.575 0.08333331
vt 0.6 0.08333331

# Normal
vn 0 0 -1

# Mesh description
g Antecamara_mesh_0003

# Faces
f 1/1/1 2/2/1 3/3/1 4/4/1
f 5/2/1 6/5/1 7/6/1 8/3/1
f 9/5/1 10/7/1 11/8/1 12/6/1
f 13/1/1 14/2/1 15/3/1 16/4/1
f 17/2/1 18/5/1 19/6/1 20/3/1
f 21/5/1 22/7/1 23/8/1 24/6/1
f 25/1/1 26/2/1 27/3/1 28/4/1
f 29/2/1 30/5/1 31/6/1 32/3/1
f 33/5/1 34/7/1 35/8/1 36/6/1
f 37/9/1 38/10/1 39/11/1 40/12/1
f 41/10/1 42/13/1 43/14/1 44/11/1
f 45/13/1 46/15/1 47/16/1 48/14/1
f 49/1/1 50/2/1 51/3/1 52/4/1
f 53/2/1 54/5/1 55/6/1 56/3/1
f 57/5/1 58/7/1 59/8/1 60/6/1
f 61/1/1 62/2/1 63/3/1 64/4/1
f 65/2/1 66/5/1 67/6/1 68/3/1
f 69/5/1 70/7/1 71/8/1 72/6/1
f 73/1/1 74/2/1 75/3/1 76/4/1
f 77/2/1 78/5/1 79/6/1 80/3/1
f 81/17/1 82/18/1 83/2/1 84/1/1
f 85/18/1 86/19/1 87/5/1 88/2/1
f 89/19/1 90/20/1 91/7/1 92/5/1
f 93/17/1 94/18/1 95/2/1 96/1/1
f 97/18/1 98/19/1 99/5/1 100/2/1
f 101/19/1 102/20/1 103/7/1 104/5/1
f 105/17/1 106/18/1 107/2/1 108/1/1
f 109/18/1 110/19/1 111/5/1 112/2/1
f 113/19/1 114/20/1 115/7/1 116/5/1
f 117/21/1 118/22/1 119/10/1 120/9/1
f 121/22/1 122/23/1 123/13/1 124/10/1
f 125/23/1 126/24/1 127/15/1 128/13/1
f 129/17/1 130/18/1 131/2/1 132/1/1
f 133/18/1 134/19/1 135/5/1 136/2/1
f 137/19/1 138/20/1 139/7/1 140/5/1
f 141/17/1 142/18/1 143/2/1 144/1/1
f 145/18/1 146/19/1 147/5/1 148/2/1
f 149/19/1 150/20/1 151/7/1 152/5/1
f 153/17/1 154/18/1 155/2/1 156/1/1
f 157/18/1 158/19/1 159/5/1 160/2/1
f 161/25/1 162/26/1 163/18/1 164/17/1
f 165/26/1 166/27/1 167/19/1 168/18/1
f 169/27/1 170/28/1 171/20/1 172/19/1
f 173/25/1 174/26/1 175/18/1 176/17/1
f 177/26/1 178/27/1 179/19/1 180/18/1
f 181/27/1 182/28/1 183/20/1 184/19/1
f 185/25/1 186/26/1 187/18/1 188/17/1
f 189/26/1 190/27/1 191/19/1 192/18/1
f 193/27/1 194/28/1 195/20/1 196/19/1
f 197/29/1 198/30/1 199/22/1 200/21/1
f 201/30/1 202/31/1 203/23/1 204/22/1
f 205/31/1 206/32/1 207/24/1 208/23/1
f 209/25/1 210/26/1 211/18/1 212/17/1
f 213/26/1 214/27/1 215/19/1 216/18/1
f 217/27/1 218/28/1 219/20/1 220/19/1
f 221/25/1 222/26/1 223/18/1 224/17/1
f 225/26/1 226/27/1 227/19/1 228/18/1
f 229/27/1 230/28/1 231/20/1 232/19/1
f 233/25/1 234/26/1 235/18/1 236/17/1
f 237/26/1 238/27/1 239/19/1 240/18/1
f 241/33/1 242/34/1 243/26/1 244/25/1
f 245/34/1 246/35/1 247/27/1 248/26/1
f 249/35/1 250/36/1 251/28/1 252/27/1
f 253/33/1 254/34/1 255/26/1 256/25/1
f 257/34/1 258/35/1 259/27/1 260/26/1
f 261/35/1 262/36/1 263/28/1 264/27/1
f 265/33/1 266/34/1 267/26/1 268/25/1
f 269/34/1 270/35/1 271/27/1 272/26/1
f 273/37/1 274/38/1 275/29/1 276/39/1
f 277/38/1 278/40/1 279/30/1 280/29/1
f 281/40/1 282/41/1 283/31/1 284/30/1
f 285/41/1 286/42/1 287/32/1 288/31/1
f 289/42/1 290/43/1 291/44/1 292/32/1
f 293/34/1 294/35/1 295/27/1 296/26/1
f 297/35/1 298/36/1 299/28/1 300/27/1
f 301/33/1 302/34/1 303/26/1 304/25/1
f 305/34/1 306/35/1 307/27/1 308/26/1
f 309/35/1 310/36/1 311/28/1 312/27/1
f 313/33/1 314/34/1 315/26/1 316/25/1
f 317/34/1 318/35/1 319/27/1 320/26/1
f 321/45/1 322/21/1 323/9/1 324/46/1
f 325/21/1 326/22/1 327/10/1 328/9/1
f 329/22/1 330/23/1 331/13/1 332/10/1
f 333/23/1 334/24/1 335/15/1 336/13/1
f 337/24/1 338/47/1 339/48/1 340/15/1
f 341/39/1 342/29/1 343/21/1 344/45/1
f 345/29/1 346/30/1 347/22/1 348/21/1
f 349/30/1 350/31/1 351/23/1 352/22/1
f 353/31/1 354/32/1 355/24/1 356/23/1
f 357/32/1 358/44/1 359/47/1 360/24/1
f 361/37/1 362/38/1 363/29/1 364/39/1
f 365/38/1 366/40/1 367/30/1 368/29/1
f 369/40/1 370/41/1 371/31/1 372/30/1
f 373/41/1 374/42/1 375/32/1 376/31/1
f 377/42/1 378/43/1 379/44/1 380/32/1
f 381/45/1 382/21/1 383/9/1 384/46/1
f 385/21/1 386/22/1 387/10/1 388/9/1
f 389/22/1 390/23/1 391/13/1 392/10/1
f 393/23/1 394/24/1 395/15/1 396/13/1
f 397/24/1 398/47/1 399/48/1 400/15/1
f 401/39/1 402/29/1 403/21/1 404/45/1
f 405/29/1 406/30/1 407/22/1 408/21/1
f 409/30/1 410/31/1 411/23/1 412/22/1
f 413/31/1 414/32/1 415/24/1 416/23/1
f 417/32/1 418/44/1 419/47/1 420/24/1
f 421/37/1 422/38/1 423/29/1 424/39/1
f 425/38/1 426/40/1 427/30/1 428/29/1
f 429/40/1 430/41/1 431/31/1 432/30/1
f 433/41/1 434/42/1 435/32/1 436/31/1
f 437/42/1 438/43/1 439/44/1 440/32/1
f 441/49/1 442/50/1 443/38/1 444/37/1
f 445/50/1 446/51/1 447/40/1 448/38/1
f 449/51/1 450/52/1 451/41/1 452/40/1
f 453/52/1 454/53/1 455/42/1 456/41/1
f 457/53/1 458/54/1 459/43/1 460/42/1

