# Tiled2Unity generated file. Do not modify by hand.
# Wavefront file for 'Antecamara_mesh_0001.obj'

# Vertices (Count = 1204)
v 0 -5 0
v -1 -5 0
v -1 -4 0
v 0 -4 0
v 0 -6 0
v -1 -6 0
v -1 -5 0
v 0 -5 0
v -1 -6 0
v -2 -6 0
v -2 -5 0
v -1 -5 0
v -2 -6 0
v -3 -6 0
v -3 -5 0
v -2 -5 0
v -3 -6 0
v -4 -6 0
v -4 -5 0
v -3 -5 0
v -4 -6 0
v -5 -6 0
v -5 -5 0
v -4 -5 0
v -5 -6 0
v -6 -6 0
v -6 -5 0
v -5 -5 0
v -6 -6 0
v -7 -6 0
v -7 -5 0
v -6 -5 0
v -7 -6 0
v -8 -6 0
v -8 -5 0
v -7 -5 0
v -8 -6 0
v -9 -6 0
v -9 -5 0
v -8 -5 0
v -9 -6 0
v -10 -6 0
v -10 -5 0
v -9 -5 0
v -10 -6 0
v -11 -6 0
v -11 -5 0
v -10 -5 0
v -11 -6 0
v -12 -6 0
v -12 -5 0
v -11 -5 0
v -12 -6 0
v -13 -6 0
v -13 -5 0
v -12 -5 0
v -13 -6 0
v -14 -6 0
v -14 -5 0
v -13 -5 0
v -14 -6 0
v -15 -6 0
v -15 -5 0
v -14 -5 0
v -15 -6 0
v -16 -6 0
v -16 -5 0
v -15 -5 0
v -16 -6 0
v -17 -6 0
v -17 -5 0
v -16 -5 0
v -17 -6 0
v -18 -6 0
v -18 -5 0
v -17 -5 0
v -18 -6 0
v -19 -6 0
v -19 -5 0
v -18 -5 0
v -19 -6 0
v -20 -6 0
v -20 -5 0
v -19 -5 0
v 0 -7 0
v -1 -7 0
v -1 -6 0
v 0 -6 0
v -1 -7 0
v -2 -7 0
v -2 -6 0
v -1 -6 0
v -2 -7 0
v -3 -7 0
v -3 -6 0
v -2 -6 0
v -3 -7 0
v -4 -7 0
v -4 -6 0
v -3 -6 0
v -4 -7 0
v -5 -7 0
v -5 -6 0
v -4 -6 0
v -5 -7 0
v -6 -7 0
v -6 -6 0
v -5 -6 0
v -6 -7 0
v -7 -7 0
v -7 -6 0
v -6 -6 0
v -7 -7 0
v -8 -7 0
v -8 -6 0
v -7 -6 0
v -8 -7 0
v -9 -7 0
v -9 -6 0
v -8 -6 0
v -9 -7 0
v -10 -7 0
v -10 -6 0
v -9 -6 0
v -10 -7 0
v -11 -7 0
v -11 -6 0
v -10 -6 0
v -11 -7 0
v -12 -7 0
v -12 -6 0
v -11 -6 0
v -12 -7 0
v -13 -7 0
v -13 -6 0
v -12 -6 0
v -13 -7 0
v -14 -7 0
v -14 -6 0
v -13 -6 0
v -14 -7 0
v -15 -7 0
v -15 -6 0
v -14 -6 0
v -15 -7 0
v -16 -7 0
v -16 -6 0
v -15 -6 0
v -16 -7 0
v -17 -7 0
v -17 -6 0
v -16 -6 0
v -17 -7 0
v -18 -7 0
v -18 -6 0
v -17 -6 0
v -18 -7 0
v -19 -7 0
v -19 -6 0
v -18 -6 0
v -19 -7 0
v -20 -7 0
v -20 -6 0
v -19 -6 0
v 0 -8 0
v -1 -8 0
v -1 -7 0
v 0 -7 0
v -1 -8 0
v -2 -8 0
v -2 -7 0
v -1 -7 0
v -2 -8 0
v -3 -8 0
v -3 -7 0
v -2 -7 0
v -3 -8 0
v -4 -8 0
v -4 -7 0
v -3 -7 0
v -4 -8 0
v -5 -8 0
v -5 -7 0
v -4 -7 0
v -5 -8 0
v -6 -8 0
v -6 -7 0
v -5 -7 0
v -6 -8 0
v -7 -8 0
v -7 -7 0
v -6 -7 0
v -7 -8 0
v -8 -8 0
v -8 -7 0
v -7 -7 0
v -8 -8 0
v -9 -8 0
v -9 -7 0
v -8 -7 0
v -9 -8 0
v -10 -8 0
v -10 -7 0
v -9 -7 0
v -10 -8 0
v -11 -8 0
v -11 -7 0
v -10 -7 0
v -11 -8 0
v -12 -8 0
v -12 -7 0
v -11 -7 0
v -12 -8 0
v -13 -8 0
v -13 -7 0
v -12 -7 0
v -13 -8 0
v -14 -8 0
v -14 -7 0
v -13 -7 0
v -14 -8 0
v -15 -8 0
v -15 -7 0
v -14 -7 0
v -15 -8 0
v -16 -8 0
v -16 -7 0
v -15 -7 0
v -16 -8 0
v -17 -8 0
v -17 -7 0
v -16 -7 0
v -17 -8 0
v -18 -8 0
v -18 -7 0
v -17 -7 0
v -18 -8 0
v -19 -8 0
v -19 -7 0
v -18 -7 0
v -19 -8 0
v -20 -8 0
v -20 -7 0
v -19 -7 0
v 0 -9 0
v -1 -9 0
v -1 -8 0
v 0 -8 0
v -1 -9 0
v -2 -9 0
v -2 -8 0
v -1 -8 0
v -2 -9 0
v -3 -9 0
v -3 -8 0
v -2 -8 0
v -3 -9 0
v -4 -9 0
v -4 -8 0
v -3 -8 0
v -4 -9 0
v -5 -9 0
v -5 -8 0
v -4 -8 0
v -5 -9 0
v -6 -9 0
v -6 -8 0
v -5 -8 0
v -6 -9 0
v -7 -9 0
v -7 -8 0
v -6 -8 0
v -7 -9 0
v -8 -9 0
v -8 -8 0
v -7 -8 0
v -8 -9 0
v -9 -9 0
v -9 -8 0
v -8 -8 0
v -9 -9 0
v -10 -9 0
v -10 -8 0
v -9 -8 0
v -10 -9 0
v -11 -9 0
v -11 -8 0
v -10 -8 0
v -11 -9 0
v -12 -9 0
v -12 -8 0
v -11 -8 0
v -12 -9 0
v -13 -9 0
v -13 -8 0
v -12 -8 0
v -13 -9 0
v -14 -9 0
v -14 -8 0
v -13 -8 0
v -14 -9 0
v -15 -9 0
v -15 -8 0
v -14 -8 0
v -15 -9 0
v -16 -9 0
v -16 -8 0
v -15 -8 0
v -16 -9 0
v -17 -9 0
v -17 -8 0
v -16 -8 0
v -17 -9 0
v -18 -9 0
v -18 -8 0
v -17 -8 0
v -18 -9 0
v -19 -9 0
v -19 -8 0
v -18 -8 0
v -19 -9 0
v -20 -9 0
v -20 -8 0
v -19 -8 0
v 0 -10 0
v -1 -10 0
v -1 -9 0
v 0 -9 0
v -1 -10 0
v -2 -10 0
v -2 -9 0
v -1 -9 0
v -2 -10 0
v -3 -10 0
v -3 -9 0
v -2 -9 0
v -3 -10 0
v -4 -10 0
v -4 -9 0
v -3 -9 0
v -4 -10 0
v -5 -10 0
v -5 -9 0
v -4 -9 0
v -5 -10 0
v -6 -10 0
v -6 -9 0
v -5 -9 0
v -6 -10 0
v -7 -10 0
v -7 -9 0
v -6 -9 0
v -7 -10 0
v -8 -10 0
v -8 -9 0
v -7 -9 0
v -8 -10 0
v -9 -10 0
v -9 -9 0
v -8 -9 0
v -9 -10 0
v -10 -10 0
v -10 -9 0
v -9 -9 0
v -10 -10 0
v -11 -10 0
v -11 -9 0
v -10 -9 0
v -11 -10 0
v -12 -10 0
v -12 -9 0
v -11 -9 0
v -12 -10 0
v -13 -10 0
v -13 -9 0
v -12 -9 0
v -13 -10 0
v -14 -10 0
v -14 -9 0
v -13 -9 0
v -14 -10 0
v -15 -10 0
v -15 -9 0
v -14 -9 0
v -15 -10 0
v -16 -10 0
v -16 -9 0
v -15 -9 0
v -16 -10 0
v -17 -10 0
v -17 -9 0
v -16 -9 0
v -17 -10 0
v -18 -10 0
v -18 -9 0
v -17 -9 0
v -18 -10 0
v -19 -10 0
v -19 -9 0
v -18 -9 0
v -19 -10 0
v -20 -10 0
v -20 -9 0
v -19 -9 0
v 0 -11 0
v -1 -11 0
v -1 -10 0
v 0 -10 0
v -1 -11 0
v -2 -11 0
v -2 -10 0
v -1 -10 0
v -2 -11 0
v -3 -11 0
v -3 -10 0
v -2 -10 0
v -3 -11 0
v -4 -11 0
v -4 -10 0
v -3 -10 0
v -4 -11 0
v -5 -11 0
v -5 -10 0
v -4 -10 0
v -5 -11 0
v -6 -11 0
v -6 -10 0
v -5 -10 0
v -6 -11 0
v -7 -11 0
v -7 -10 0
v -6 -10 0
v -7 -11 0
v -8 -11 0
v -8 -10 0
v -7 -10 0
v -8 -11 0
v -9 -11 0
v -9 -10 0
v -8 -10 0
v -9 -11 0
v -10 -11 0
v -10 -10 0
v -9 -10 0
v -10 -11 0
v -11 -11 0
v -11 -10 0
v -10 -10 0
v -11 -11 0
v -12 -11 0
v -12 -10 0
v -11 -10 0
v -12 -11 0
v -13 -11 0
v -13 -10 0
v -12 -10 0
v -13 -11 0
v -14 -11 0
v -14 -10 0
v -13 -10 0
v -14 -11 0
v -15 -11 0
v -15 -10 0
v -14 -10 0
v -15 -11 0
v -16 -11 0
v -16 -10 0
v -15 -10 0
v -16 -11 0
v -17 -11 0
v -17 -10 0
v -16 -10 0
v -17 -11 0
v -18 -11 0
v -18 -10 0
v -17 -10 0
v -18 -11 0
v -19 -11 0
v -19 -10 0
v -18 -10 0
v -19 -11 0
v -20 -11 0
v -20 -10 0
v -19 -10 0
v 0 -12 0
v -1 -12 0
v -1 -11 0
v 0 -11 0
v -1 -12 0
v -2 -12 0
v -2 -11 0
v -1 -11 0
v -2 -12 0
v -3 -12 0
v -3 -11 0
v -2 -11 0
v -3 -12 0
v -4 -12 0
v -4 -11 0
v -3 -11 0
v -4 -12 0
v -5 -12 0
v -5 -11 0
v -4 -11 0
v -5 -12 0
v -6 -12 0
v -6 -11 0
v -5 -11 0
v -6 -12 0
v -7 -12 0
v -7 -11 0
v -6 -11 0
v -7 -12 0
v -8 -12 0
v -8 -11 0
v -7 -11 0
v -8 -12 0
v -9 -12 0
v -9 -11 0
v -8 -11 0
v -9 -12 0
v -10 -12 0
v -10 -11 0
v -9 -11 0
v -10 -12 0
v -11 -12 0
v -11 -11 0
v -10 -11 0
v -11 -12 0
v -12 -12 0
v -12 -11 0
v -11 -11 0
v -12 -12 0
v -13 -12 0
v -13 -11 0
v -12 -11 0
v -13 -12 0
v -14 -12 0
v -14 -11 0
v -13 -11 0
v -14 -12 0
v -15 -12 0
v -15 -11 0
v -14 -11 0
v -15 -12 0
v -16 -12 0
v -16 -11 0
v -15 -11 0
v -16 -12 0
v -17 -12 0
v -17 -11 0
v -16 -11 0
v -17 -12 0
v -18 -12 0
v -18 -11 0
v -17 -11 0
v -18 -12 0
v -19 -12 0
v -19 -11 0
v -18 -11 0
v -19 -12 0
v -20 -12 0
v -20 -11 0
v -19 -11 0
v 0 -13 0
v -1 -13 0
v -1 -12 0
v 0 -12 0
v -1 -13 0
v -2 -13 0
v -2 -12 0
v -1 -12 0
v -2 -13 0
v -3 -13 0
v -3 -12 0
v -2 -12 0
v -3 -13 0
v -4 -13 0
v -4 -12 0
v -3 -12 0
v -4 -13 0
v -5 -13 0
v -5 -12 0
v -4 -12 0
v -5 -13 0
v -6 -13 0
v -6 -12 0
v -5 -12 0
v -6 -13 0
v -7 -13 0
v -7 -12 0
v -6 -12 0
v -7 -13 0
v -8 -13 0
v -8 -12 0
v -7 -12 0
v -8 -13 0
v -9 -13 0
v -9 -12 0
v -8 -12 0
v -9 -13 0
v -10 -13 0
v -10 -12 0
v -9 -12 0
v -10 -13 0
v -11 -13 0
v -11 -12 0
v -10 -12 0
v -11 -13 0
v -12 -13 0
v -12 -12 0
v -11 -12 0
v -12 -13 0
v -13 -13 0
v -13 -12 0
v -12 -12 0
v -13 -13 0
v -14 -13 0
v -14 -12 0
v -13 -12 0
v -14 -13 0
v -15 -13 0
v -15 -12 0
v -14 -12 0
v -15 -13 0
v -16 -13 0
v -16 -12 0
v -15 -12 0
v -16 -13 0
v -17 -13 0
v -17 -12 0
v -16 -12 0
v -17 -13 0
v -18 -13 0
v -18 -12 0
v -17 -12 0
v -18 -13 0
v -19 -13 0
v -19 -12 0
v -18 -12 0
v -19 -13 0
v -20 -13 0
v -20 -12 0
v -19 -12 0
v 0 -14 0
v -1 -14 0
v -1 -13 0
v 0 -13 0
v -1 -14 0
v -2 -14 0
v -2 -13 0
v -1 -13 0
v -2 -14 0
v -3 -14 0
v -3 -13 0
v -2 -13 0
v -3 -14 0
v -4 -14 0
v -4 -13 0
v -3 -13 0
v -4 -14 0
v -5 -14 0
v -5 -13 0
v -4 -13 0
v -5 -14 0
v -6 -14 0
v -6 -13 0
v -5 -13 0
v -6 -14 0
v -7 -14 0
v -7 -13 0
v -6 -13 0
v -7 -14 0
v -8 -14 0
v -8 -13 0
v -7 -13 0
v -8 -14 0
v -9 -14 0
v -9 -13 0
v -8 -13 0
v -9 -14 0
v -10 -14 0
v -10 -13 0
v -9 -13 0
v -10 -14 0
v -11 -14 0
v -11 -13 0
v -10 -13 0
v -11 -14 0
v -12 -14 0
v -12 -13 0
v -11 -13 0
v -12 -14 0
v -13 -14 0
v -13 -13 0
v -12 -13 0
v -13 -14 0
v -14 -14 0
v -14 -13 0
v -13 -13 0
v -14 -14 0
v -15 -14 0
v -15 -13 0
v -14 -13 0
v -15 -14 0
v -16 -14 0
v -16 -13 0
v -15 -13 0
v -16 -14 0
v -17 -14 0
v -17 -13 0
v -16 -13 0
v -17 -14 0
v -18 -14 0
v -18 -13 0
v -17 -13 0
v -18 -14 0
v -19 -14 0
v -19 -13 0
v -18 -13 0
v -19 -14 0
v -20 -14 0
v -20 -13 0
v -19 -13 0
v 0 -15 0
v -1 -15 0
v -1 -14 0
v 0 -14 0
v -1 -15 0
v -2 -15 0
v -2 -14 0
v -1 -14 0
v -2 -15 0
v -3 -15 0
v -3 -14 0
v -2 -14 0
v -3 -15 0
v -4 -15 0
v -4 -14 0
v -3 -14 0
v -4 -15 0
v -5 -15 0
v -5 -14 0
v -4 -14 0
v -5 -15 0
v -6 -15 0
v -6 -14 0
v -5 -14 0
v -6 -15 0
v -7 -15 0
v -7 -14 0
v -6 -14 0
v -7 -15 0
v -8 -15 0
v -8 -14 0
v -7 -14 0
v -8 -15 0
v -9 -15 0
v -9 -14 0
v -8 -14 0
v -9 -15 0
v -10 -15 0
v -10 -14 0
v -9 -14 0
v -10 -15 0
v -11 -15 0
v -11 -14 0
v -10 -14 0
v -11 -15 0
v -12 -15 0
v -12 -14 0
v -11 -14 0
v -12 -15 0
v -13 -15 0
v -13 -14 0
v -12 -14 0
v -13 -15 0
v -14 -15 0
v -14 -14 0
v -13 -14 0
v -14 -15 0
v -15 -15 0
v -15 -14 0
v -14 -14 0
v -15 -15 0
v -16 -15 0
v -16 -14 0
v -15 -14 0
v -16 -15 0
v -17 -15 0
v -17 -14 0
v -16 -14 0
v -17 -15 0
v -18 -15 0
v -18 -14 0
v -17 -14 0
v -18 -15 0
v -19 -15 0
v -19 -14 0
v -18 -14 0
v -19 -15 0
v -20 -15 0
v -20 -14 0
v -19 -14 0
v 0 -16 0
v -1 -16 0
v -1 -15 0
v 0 -15 0
v -1 -16 0
v -2 -16 0
v -2 -15 0
v -1 -15 0
v -2 -16 0
v -3 -16 0
v -3 -15 0
v -2 -15 0
v -3 -16 0
v -4 -16 0
v -4 -15 0
v -3 -15 0
v -4 -16 0
v -5 -16 0
v -5 -15 0
v -4 -15 0
v -5 -16 0
v -6 -16 0
v -6 -15 0
v -5 -15 0
v -6 -16 0
v -7 -16 0
v -7 -15 0
v -6 -15 0
v -7 -16 0
v -8 -16 0
v -8 -15 0
v -7 -15 0
v -8 -16 0
v -9 -16 0
v -9 -15 0
v -8 -15 0
v -9 -16 0
v -10 -16 0
v -10 -15 0
v -9 -15 0
v -10 -16 0
v -11 -16 0
v -11 -15 0
v -10 -15 0
v -11 -16 0
v -12 -16 0
v -12 -15 0
v -11 -15 0
v -12 -16 0
v -13 -16 0
v -13 -15 0
v -12 -15 0
v -13 -16 0
v -14 -16 0
v -14 -15 0
v -13 -15 0
v -14 -16 0
v -15 -16 0
v -15 -15 0
v -14 -15 0
v -15 -16 0
v -16 -16 0
v -16 -15 0
v -15 -15 0
v -16 -16 0
v -17 -16 0
v -17 -15 0
v -16 -15 0
v -17 -16 0
v -18 -16 0
v -18 -15 0
v -17 -15 0
v -18 -16 0
v -19 -16 0
v -19 -15 0
v -18 -15 0
v -19 -16 0
v -20 -16 0
v -20 -15 0
v -19 -15 0
v 0 -17 0
v -1 -17 0
v -1 -16 0
v 0 -16 0
v -1 -17 0
v -2 -17 0
v -2 -16 0
v -1 -16 0
v -2 -17 0
v -3 -17 0
v -3 -16 0
v -2 -16 0
v -3 -17 0
v -4 -17 0
v -4 -16 0
v -3 -16 0
v -4 -17 0
v -5 -17 0
v -5 -16 0
v -4 -16 0
v -5 -17 0
v -6 -17 0
v -6 -16 0
v -5 -16 0
v -6 -17 0
v -7 -17 0
v -7 -16 0
v -6 -16 0
v -7 -17 0
v -8 -17 0
v -8 -16 0
v -7 -16 0
v -8 -17 0
v -9 -17 0
v -9 -16 0
v -8 -16 0
v -9 -17 0
v -10 -17 0
v -10 -16 0
v -9 -16 0
v -10 -17 0
v -11 -17 0
v -11 -16 0
v -10 -16 0
v -11 -17 0
v -12 -17 0
v -12 -16 0
v -11 -16 0
v -12 -17 0
v -13 -17 0
v -13 -16 0
v -12 -16 0
v -13 -17 0
v -14 -17 0
v -14 -16 0
v -13 -16 0
v -14 -17 0
v -15 -17 0
v -15 -16 0
v -14 -16 0
v -15 -17 0
v -16 -17 0
v -16 -16 0
v -15 -16 0
v -16 -17 0
v -17 -17 0
v -17 -16 0
v -16 -16 0
v -17 -17 0
v -18 -17 0
v -18 -16 0
v -17 -16 0
v -18 -17 0
v -19 -17 0
v -19 -16 0
v -18 -16 0
v -19 -17 0
v -20 -17 0
v -20 -16 0
v -19 -16 0
v 0 -18 0
v -1 -18 0
v -1 -17 0
v 0 -17 0
v -1 -18 0
v -2 -18 0
v -2 -17 0
v -1 -17 0
v -2 -18 0
v -3 -18 0
v -3 -17 0
v -2 -17 0
v -3 -18 0
v -4 -18 0
v -4 -17 0
v -3 -17 0
v -4 -18 0
v -5 -18 0
v -5 -17 0
v -4 -17 0
v -5 -18 0
v -6 -18 0
v -6 -17 0
v -5 -17 0
v -6 -18 0
v -7 -18 0
v -7 -17 0
v -6 -17 0
v -7 -18 0
v -8 -18 0
v -8 -17 0
v -7 -17 0
v -8 -18 0
v -9 -18 0
v -9 -17 0
v -8 -17 0
v -9 -18 0
v -10 -18 0
v -10 -17 0
v -9 -17 0
v -10 -18 0
v -11 -18 0
v -11 -17 0
v -10 -17 0
v -11 -18 0
v -12 -18 0
v -12 -17 0
v -11 -17 0
v -12 -18 0
v -13 -18 0
v -13 -17 0
v -12 -17 0
v -13 -18 0
v -14 -18 0
v -14 -17 0
v -13 -17 0
v -14 -18 0
v -15 -18 0
v -15 -17 0
v -14 -17 0
v -15 -18 0
v -16 -18 0
v -16 -17 0
v -15 -17 0
v -16 -18 0
v -17 -18 0
v -17 -17 0
v -16 -17 0
v -17 -18 0
v -18 -18 0
v -18 -17 0
v -17 -17 0
v -18 -18 0
v -19 -18 0
v -19 -17 0
v -18 -17 0
v -19 -18 0
v -20 -18 0
v -20 -17 0
v -19 -17 0
v 0 -19 0
v -1 -19 0
v -1 -18 0
v 0 -18 0
v -1 -19 0
v -2 -19 0
v -2 -18 0
v -1 -18 0
v -2 -19 0
v -3 -19 0
v -3 -18 0
v -2 -18 0
v -3 -19 0
v -4 -19 0
v -4 -18 0
v -3 -18 0
v -4 -19 0
v -5 -19 0
v -5 -18 0
v -4 -18 0
v -5 -19 0
v -6 -19 0
v -6 -18 0
v -5 -18 0
v -6 -19 0
v -7 -19 0
v -7 -18 0
v -6 -18 0
v -7 -19 0
v -8 -19 0
v -8 -18 0
v -7 -18 0
v -8 -19 0
v -9 -19 0
v -9 -18 0
v -8 -18 0
v -9 -19 0
v -10 -19 0
v -10 -18 0
v -9 -18 0
v -10 -19 0
v -11 -19 0
v -11 -18 0
v -10 -18 0
v -11 -19 0
v -12 -19 0
v -12 -18 0
v -11 -18 0
v -12 -19 0
v -13 -19 0
v -13 -18 0
v -12 -18 0
v -13 -19 0
v -14 -19 0
v -14 -18 0
v -13 -18 0
v -14 -19 0
v -15 -19 0
v -15 -18 0
v -14 -18 0
v -15 -19 0
v -16 -19 0
v -16 -18 0
v -15 -18 0
v -16 -19 0
v -17 -19 0
v -17 -18 0
v -16 -18 0
v -17 -19 0
v -18 -19 0
v -18 -18 0
v -17 -18 0
v -18 -19 0
v -19 -19 0
v -19 -18 0
v -18 -18 0
v -19 -19 0
v -20 -19 0
v -20 -18 0
v -19 -18 0
v 0 -20 0
v -1 -20 0
v -1 -19 0
v 0 -19 0
v -1 -20 0
v -2 -20 0
v -2 -19 0
v -1 -19 0
v -2 -20 0
v -3 -20 0
v -3 -19 0
v -2 -19 0
v -3 -20 0
v -4 -20 0
v -4 -19 0
v -3 -19 0
v -4 -20 0
v -5 -20 0
v -5 -19 0
v -4 -19 0
v -5 -20 0
v -6 -20 0
v -6 -19 0
v -5 -19 0
v -6 -20 0
v -7 -20 0
v -7 -19 0
v -6 -19 0
v -7 -20 0
v -8 -20 0
v -8 -19 0
v -7 -19 0
v -8 -20 0
v -9 -20 0
v -9 -19 0
v -8 -19 0
v -9 -20 0
v -10 -20 0
v -10 -19 0
v -9 -19 0
v -10 -20 0
v -11 -20 0
v -11 -19 0
v -10 -19 0
v -11 -20 0
v -12 -20 0
v -12 -19 0
v -11 -19 0
v -12 -20 0
v -13 -20 0
v -13 -19 0
v -12 -19 0
v -13 -20 0
v -14 -20 0
v -14 -19 0
v -13 -19 0
v -14 -20 0
v -15 -20 0
v -15 -19 0
v -14 -19 0
v -15 -20 0
v -16 -20 0
v -16 -19 0
v -15 -19 0
v -16 -20 0
v -17 -20 0
v -17 -19 0
v -16 -19 0
v -17 -20 0
v -18 -20 0
v -18 -19 0
v -17 -19 0
v -18 -20 0
v -19 -20 0
v -19 -19 0
v -18 -19 0
v -19 -20 0
v -20 -20 0
v -20 -19 0
v -19 -19 0

# Texture cooridinates (Count = 23)
vt 0.075 0.7777778
vt 0.1 0.7777778
vt 0.1 0.8055556
vt 0.075 0.8055556
vt 0.075 0.75
vt 0.1 0.75
vt 0.125 0.7222222
vt 0.15 0.7222222
vt 0.15 0.75
vt 0.125 0.75
vt 0 0.9722222
vt 0.025 0.9722222
vt 0.025 1
vt 0 1
vt 0.2 0.7222222
vt 0.225 0.7222222
vt 0.225 0.75
vt 0.2 0.75
vt 0.175 0.6944444
vt 0.2 0.6944444
vt 0.175 0.7222222
vt 0.125 0.6944444
vt 0.15 0.6944444

# Normal
vn 0 0 -1

# Mesh description
g Antecamara_mesh_0001

# Faces
f 1/1/1 2/2/1 3/3/1 4/4/1
f 5/1/1 6/2/1 7/3/1 8/4/1
f 9/1/1 10/2/1 11/3/1 12/4/1
f 13/1/1 14/2/1 15/3/1 16/4/1
f 17/1/1 18/2/1 19/3/1 20/4/1
f 21/1/1 22/2/1 23/3/1 24/4/1
f 25/1/1 26/2/1 27/3/1 28/4/1
f 29/1/1 30/2/1 31/3/1 32/4/1
f 33/1/1 34/2/1 35/3/1 36/4/1
f 37/1/1 38/2/1 39/3/1 40/4/1
f 41/1/1 42/2/1 43/3/1 44/4/1
f 45/1/1 46/2/1 47/3/1 48/4/1
f 49/1/1 50/2/1 51/3/1 52/4/1
f 53/1/1 54/2/1 55/3/1 56/4/1
f 57/1/1 58/2/1 59/3/1 60/4/1
f 61/1/1 62/2/1 63/3/1 64/4/1
f 65/1/1 66/2/1 67/3/1 68/4/1
f 69/1/1 70/2/1 71/3/1 72/4/1
f 73/1/1 74/2/1 75/3/1 76/4/1
f 77/1/1 78/2/1 79/3/1 80/4/1
f 81/1/1 82/2/1 83/3/1 84/4/1
f 85/1/1 86/2/1 87/3/1 88/4/1
f 89/1/1 90/2/1 91/3/1 92/4/1
f 93/1/1 94/2/1 95/3/1 96/4/1
f 97/1/1 98/2/1 99/3/1 100/4/1
f 101/1/1 102/2/1 103/3/1 104/4/1
f 105/1/1 106/2/1 107/3/1 108/4/1
f 109/1/1 110/2/1 111/3/1 112/4/1
f 113/1/1 114/2/1 115/3/1 116/4/1
f 117/1/1 118/2/1 119/3/1 120/4/1
f 121/1/1 122/2/1 123/3/1 124/4/1
f 125/1/1 126/2/1 127/3/1 128/4/1
f 129/1/1 130/2/1 131/3/1 132/4/1
f 133/1/1 134/2/1 135/3/1 136/4/1
f 137/1/1 138/2/1 139/3/1 140/4/1
f 141/1/1 142/2/1 143/3/1 144/4/1
f 145/1/1 146/2/1 147/3/1 148/4/1
f 149/1/1 150/2/1 151/3/1 152/4/1
f 153/1/1 154/2/1 155/3/1 156/4/1
f 157/1/1 158/2/1 159/3/1 160/4/1
f 161/1/1 162/2/1 163/3/1 164/4/1
f 165/1/1 166/2/1 167/3/1 168/4/1
f 169/1/1 170/2/1 171/3/1 172/4/1
f 173/1/1 174/2/1 175/3/1 176/4/1
f 177/1/1 178/2/1 179/3/1 180/4/1
f 181/1/1 182/2/1 183/3/1 184/4/1
f 185/1/1 186/2/1 187/3/1 188/4/1
f 189/1/1 190/2/1 191/3/1 192/4/1
f 193/1/1 194/2/1 195/3/1 196/4/1
f 197/1/1 198/2/1 199/3/1 200/4/1
f 201/1/1 202/2/1 203/3/1 204/4/1
f 205/1/1 206/2/1 207/3/1 208/4/1
f 209/1/1 210/2/1 211/3/1 212/4/1
f 213/1/1 214/2/1 215/3/1 216/4/1
f 217/1/1 218/2/1 219/3/1 220/4/1
f 221/1/1 222/2/1 223/3/1 224/4/1
f 225/1/1 226/2/1 227/3/1 228/4/1
f 229/1/1 230/2/1 231/3/1 232/4/1
f 233/1/1 234/2/1 235/3/1 236/4/1
f 237/1/1 238/2/1 239/3/1 240/4/1
f 241/1/1 242/2/1 243/3/1 244/4/1
f 245/1/1 246/2/1 247/3/1 248/4/1
f 249/1/1 250/2/1 251/3/1 252/4/1
f 253/1/1 254/2/1 255/3/1 256/4/1
f 257/1/1 258/2/1 259/3/1 260/4/1
f 261/1/1 262/2/1 263/3/1 264/4/1
f 265/1/1 266/2/1 267/3/1 268/4/1
f 269/1/1 270/2/1 271/3/1 272/4/1
f 273/1/1 274/2/1 275/3/1 276/4/1
f 277/1/1 278/2/1 279/3/1 280/4/1
f 281/1/1 282/2/1 283/3/1 284/4/1
f 285/1/1 286/2/1 287/3/1 288/4/1
f 289/1/1 290/2/1 291/3/1 292/4/1
f 293/1/1 294/2/1 295/3/1 296/4/1
f 297/1/1 298/2/1 299/3/1 300/4/1
f 301/1/1 302/2/1 303/3/1 304/4/1
f 305/1/1 306/2/1 307/3/1 308/4/1
f 309/1/1 310/2/1 311/3/1 312/4/1
f 313/1/1 314/2/1 315/3/1 316/4/1
f 317/1/1 318/2/1 319/3/1 320/4/1
f 321/1/1 322/2/1 323/3/1 324/4/1
f 325/1/1 326/2/1 327/3/1 328/4/1
f 329/1/1 330/2/1 331/3/1 332/4/1
f 333/1/1 334/2/1 335/3/1 336/4/1
f 337/1/1 338/2/1 339/3/1 340/4/1
f 341/1/1 342/2/1 343/3/1 344/4/1
f 345/1/1 346/2/1 347/3/1 348/4/1
f 349/1/1 350/2/1 351/3/1 352/4/1
f 353/1/1 354/2/1 355/3/1 356/4/1
f 357/1/1 358/2/1 359/3/1 360/4/1
f 361/1/1 362/2/1 363/3/1 364/4/1
f 365/1/1 366/2/1 367/3/1 368/4/1
f 369/1/1 370/2/1 371/3/1 372/4/1
f 373/1/1 374/2/1 375/3/1 376/4/1
f 377/1/1 378/2/1 379/3/1 380/4/1
f 381/1/1 382/2/1 383/3/1 384/4/1
f 385/1/1 386/2/1 387/3/1 388/4/1
f 389/1/1 390/2/1 391/3/1 392/4/1
f 393/1/1 394/2/1 395/3/1 396/4/1
f 397/1/1 398/2/1 399/3/1 400/4/1
f 401/1/1 402/2/1 403/3/1 404/4/1
f 405/1/1 406/2/1 407/3/1 408/4/1
f 409/1/1 410/2/1 411/3/1 412/4/1
f 413/1/1 414/2/1 415/3/1 416/4/1
f 417/1/1 418/2/1 419/3/1 420/4/1
f 421/1/1 422/2/1 423/3/1 424/4/1
f 425/1/1 426/2/1 427/3/1 428/4/1
f 429/1/1 430/2/1 431/3/1 432/4/1
f 433/1/1 434/2/1 435/3/1 436/4/1
f 437/1/1 438/2/1 439/3/1 440/4/1
f 441/1/1 442/2/1 443/3/1 444/4/1
f 445/1/1 446/2/1 447/3/1 448/4/1
f 449/1/1 450/2/1 451/3/1 452/4/1
f 453/1/1 454/2/1 455/3/1 456/4/1
f 457/1/1 458/2/1 459/3/1 460/4/1
f 461/1/1 462/2/1 463/3/1 464/4/1
f 465/1/1 466/2/1 467/3/1 468/4/1
f 469/1/1 470/2/1 471/3/1 472/4/1
f 473/1/1 474/2/1 475/3/1 476/4/1
f 477/1/1 478/2/1 479/3/1 480/4/1
f 481/1/1 482/2/1 483/3/1 484/4/1
f 485/1/1 486/2/1 487/3/1 488/4/1
f 489/1/1 490/2/1 491/3/1 492/4/1
f 493/1/1 494/2/1 495/3/1 496/4/1
f 497/1/1 498/2/1 499/3/1 500/4/1
f 501/1/1 502/2/1 503/3/1 504/4/1
f 505/1/1 506/2/1 507/3/1 508/4/1
f 509/1/1 510/2/1 511/3/1 512/4/1
f 513/1/1 514/2/1 515/3/1 516/4/1
f 517/1/1 518/2/1 519/3/1 520/4/1
f 521/1/1 522/2/1 523/3/1 524/4/1
f 525/1/1 526/2/1 527/3/1 528/4/1
f 529/1/1 530/2/1 531/3/1 532/4/1
f 533/1/1 534/2/1 535/3/1 536/4/1
f 537/1/1 538/2/1 539/3/1 540/4/1
f 541/1/1 542/2/1 543/3/1 544/4/1
f 545/1/1 546/2/1 547/3/1 548/4/1
f 549/1/1 550/2/1 551/3/1 552/4/1
f 553/1/1 554/2/1 555/3/1 556/4/1
f 557/1/1 558/2/1 559/3/1 560/4/1
f 561/1/1 562/2/1 563/3/1 564/4/1
f 565/1/1 566/2/1 567/3/1 568/4/1
f 569/1/1 570/2/1 571/3/1 572/4/1
f 573/1/1 574/2/1 575/3/1 576/4/1
f 577/1/1 578/2/1 579/3/1 580/4/1
f 581/1/1 582/2/1 583/3/1 584/4/1
f 585/1/1 586/2/1 587/3/1 588/4/1
f 589/1/1 590/2/1 591/3/1 592/4/1
f 593/1/1 594/2/1 595/3/1 596/4/1
f 597/1/1 598/2/1 599/3/1 600/4/1
f 601/1/1 602/2/1 603/3/1 604/4/1
f 605/1/1 606/2/1 607/3/1 608/4/1
f 609/1/1 610/2/1 611/3/1 612/4/1
f 613/1/1 614/2/1 615/3/1 616/4/1
f 617/1/1 618/2/1 619/3/1 620/4/1
f 621/1/1 622/2/1 623/3/1 624/4/1
f 625/1/1 626/2/1 627/3/1 628/4/1
f 629/1/1 630/2/1 631/3/1 632/4/1
f 633/1/1 634/2/1 635/3/1 636/4/1
f 637/1/1 638/2/1 639/3/1 640/4/1
f 641/1/1 642/2/1 643/3/1 644/4/1
f 645/5/1 646/6/1 647/2/1 648/1/1
f 649/5/1 650/6/1 651/2/1 652/1/1
f 653/5/1 654/6/1 655/2/1 656/1/1
f 657/5/1 658/6/1 659/2/1 660/1/1
f 661/5/1 662/6/1 663/2/1 664/1/1
f 665/5/1 666/6/1 667/2/1 668/1/1
f 669/5/1 670/6/1 671/2/1 672/1/1
f 673/5/1 674/6/1 675/2/1 676/1/1
f 677/5/1 678/6/1 679/2/1 680/1/1
f 681/5/1 682/6/1 683/2/1 684/1/1
f 685/5/1 686/6/1 687/2/1 688/1/1
f 689/5/1 690/6/1 691/2/1 692/1/1
f 693/5/1 694/6/1 695/2/1 696/1/1
f 697/5/1 698/6/1 699/2/1 700/1/1
f 701/5/1 702/6/1 703/2/1 704/1/1
f 705/5/1 706/6/1 707/2/1 708/1/1
f 709/5/1 710/6/1 711/2/1 712/1/1
f 713/5/1 714/6/1 715/2/1 716/1/1
f 717/5/1 718/6/1 719/2/1 720/1/1
f 721/5/1 722/6/1 723/2/1 724/1/1
f 725/7/1 726/8/1 727/9/1 728/10/1
f 729/11/1 730/12/1 731/13/1 732/14/1
f 733/11/1 734/12/1 735/13/1 736/14/1
f 737/7/1 738/8/1 739/9/1 740/10/1
f 741/15/1 742/16/1 743/17/1 744/18/1
f 745/15/1 746/16/1 747/17/1 748/18/1
f 749/11/1 750/12/1 751/13/1 752/14/1
f 753/11/1 754/12/1 755/13/1 756/14/1
f 757/11/1 758/12/1 759/13/1 760/14/1
f 761/11/1 762/12/1 763/13/1 764/14/1
f 765/11/1 766/12/1 767/13/1 768/14/1
f 769/11/1 770/12/1 771/13/1 772/14/1
f 773/19/1 774/20/1 775/15/1 776/21/1
f 777/19/1 778/20/1 779/15/1 780/21/1
f 781/19/1 782/20/1 783/15/1 784/21/1
f 785/11/1 786/12/1 787/13/1 788/14/1
f 789/7/1 790/8/1 791/9/1 792/10/1
f 793/11/1 794/12/1 795/13/1 796/14/1
f 797/7/1 798/8/1 799/9/1 800/10/1
f 801/15/1 802/16/1 803/17/1 804/18/1
f 805/11/1 806/12/1 807/13/1 808/14/1
f 809/11/1 810/12/1 811/13/1 812/14/1
f 813/11/1 814/12/1 815/13/1 816/14/1
f 817/7/1 818/8/1 819/9/1 820/10/1
f 821/15/1 822/16/1 823/17/1 824/18/1
f 825/11/1 826/12/1 827/13/1 828/14/1
f 829/22/1 830/23/1 831/8/1 832/7/1
f 833/7/1 834/8/1 835/9/1 836/10/1
f 837/11/1 838/12/1 839/13/1 840/14/1
f 841/11/1 842/12/1 843/13/1 844/14/1
f 845/22/1 846/23/1 847/8/1 848/7/1
f 849/11/1 850/12/1 851/13/1 852/14/1
f 853/11/1 854/12/1 855/13/1 856/14/1
f 857/22/1 858/23/1 859/8/1 860/7/1
f 861/11/1 862/12/1 863/13/1 864/14/1
f 865/15/1 866/16/1 867/17/1 868/18/1
f 869/22/1 870/23/1 871/8/1 872/7/1
f 873/7/1 874/8/1 875/9/1 876/10/1
f 877/11/1 878/12/1 879/13/1 880/14/1
f 881/7/1 882/8/1 883/9/1 884/10/1
f 885/11/1 886/12/1 887/13/1 888/14/1
f 889/15/1 890/16/1 891/17/1 892/18/1
f 893/11/1 894/12/1 895/13/1 896/14/1
f 897/11/1 898/12/1 899/13/1 900/14/1
f 901/11/1 902/12/1 903/13/1 904/14/1
f 905/11/1 906/12/1 907/13/1 908/14/1
f 909/7/1 910/8/1 911/9/1 912/10/1
f 913/22/1 914/23/1 915/8/1 916/7/1
f 917/7/1 918/8/1 919/9/1 920/10/1
f 921/11/1 922/12/1 923/13/1 924/14/1
f 925/11/1 926/12/1 927/13/1 928/14/1
f 929/15/1 930/16/1 931/17/1 932/18/1
f 933/11/1 934/12/1 935/13/1 936/14/1
f 937/11/1 938/12/1 939/13/1 940/14/1
f 941/11/1 942/12/1 943/13/1 944/14/1
f 945/11/1 946/12/1 947/13/1 948/14/1
f 949/7/1 950/8/1 951/9/1 952/10/1
f 953/22/1 954/23/1 955/8/1 956/7/1
f 957/22/1 958/23/1 959/8/1 960/7/1
f 961/11/1 962/12/1 963/13/1 964/14/1
f 965/11/1 966/12/1 967/13/1 968/14/1
f 969/15/1 970/16/1 971/17/1 972/18/1
f 973/11/1 974/12/1 975/13/1 976/14/1
f 977/22/1 978/23/1 979/8/1 980/7/1
f 981/11/1 982/12/1 983/13/1 984/14/1
f 985/11/1 986/12/1 987/13/1 988/14/1
f 989/11/1 990/12/1 991/13/1 992/14/1
f 993/11/1 994/12/1 995/13/1 996/14/1
f 997/11/1 998/12/1 999/13/1 1000/14/1
f 1001/11/1 1002/12/1 1003/13/1 1004/14/1
f 1005/19/1 1006/20/1 1007/15/1 1008/21/1
f 1009/15/1 1010/16/1 1011/17/1 1012/18/1
f 1013/11/1 1014/12/1 1015/13/1 1016/14/1
f 1017/11/1 1018/12/1 1019/13/1 1020/14/1
f 1021/15/1 1022/16/1 1023/17/1 1024/18/1
f 1025/15/1 1026/16/1 1027/17/1 1028/18/1
f 1029/11/1 1030/12/1 1031/13/1 1032/14/1
f 1033/11/1 1034/12/1 1035/13/1 1036/14/1
f 1037/15/1 1038/16/1 1039/17/1 1040/18/1
f 1041/15/1 1042/16/1 1043/17/1 1044/18/1
f 1045/11/1 1046/12/1 1047/13/1 1048/14/1
f 1049/11/1 1050/12/1 1051/13/1 1052/14/1
f 1053/11/1 1054/12/1 1055/13/1 1056/14/1
f 1057/15/1 1058/16/1 1059/17/1 1060/18/1
f 1061/15/1 1062/16/1 1063/17/1 1064/18/1
f 1065/22/1 1066/23/1 1067/8/1 1068/7/1
f 1069/11/1 1070/12/1 1071/13/1 1072/14/1
f 1073/11/1 1074/12/1 1075/13/1 1076/14/1
f 1077/22/1 1078/23/1 1079/8/1 1080/7/1
f 1081/22/1 1082/23/1 1083/8/1 1084/7/1
f 1085/22/1 1086/23/1 1087/8/1 1088/7/1
f 1089/11/1 1090/12/1 1091/13/1 1092/14/1
f 1093/22/1 1094/23/1 1095/8/1 1096/7/1
f 1097/11/1 1098/12/1 1099/13/1 1100/14/1
f 1101/22/1 1102/23/1 1103/8/1 1104/7/1
f 1105/22/1 1106/23/1 1107/8/1 1108/7/1
f 1109/22/1 1110/23/1 1111/8/1 1112/7/1
f 1113/11/1 1114/12/1 1115/13/1 1116/14/1
f 1117/11/1 1118/12/1 1119/13/1 1120/14/1
f 1121/15/1 1122/16/1 1123/17/1 1124/18/1
f 1125/15/1 1126/16/1 1127/17/1 1128/18/1
f 1129/11/1 1130/12/1 1131/13/1 1132/14/1
f 1133/11/1 1134/12/1 1135/13/1 1136/14/1
f 1137/11/1 1138/12/1 1139/13/1 1140/14/1
f 1141/22/1 1142/23/1 1143/8/1 1144/7/1
f 1145/7/1 1146/8/1 1147/9/1 1148/10/1
f 1149/7/1 1150/8/1 1151/9/1 1152/10/1
f 1153/7/1 1154/8/1 1155/9/1 1156/10/1
f 1157/11/1 1158/12/1 1159/13/1 1160/14/1
f 1161/11/1 1162/12/1 1163/13/1 1164/14/1
f 1165/7/1 1166/8/1 1167/9/1 1168/10/1
f 1169/11/1 1170/12/1 1171/13/1 1172/14/1
f 1173/11/1 1174/12/1 1175/13/1 1176/14/1
f 1177/11/1 1178/12/1 1179/13/1 1180/14/1
f 1181/11/1 1182/12/1 1183/13/1 1184/14/1
f 1185/15/1 1186/16/1 1187/17/1 1188/18/1
f 1189/15/1 1190/16/1 1191/17/1 1192/18/1
f 1193/15/1 1194/16/1 1195/17/1 1196/18/1
f 1197/15/1 1198/16/1 1199/17/1 1200/18/1
f 1201/15/1 1202/16/1 1203/17/1 1204/18/1

