# Tiled2Unity generated file. Do not modify by hand.
# Wavefront file for 'Antecamara_mesh_0008.obj'

# Vertices (Count = 104)
v -5 -1 0
v -6 -1 0
v -6 0 0
v -5 0 0
v -6 -1 0
v -7 -1 0
v -7 0 0
v -6 0 0
v -10 -1 0
v -11 -1 0
v -11 0 0
v -10 0 0
v -11 -1 0
v -12 -1 0
v -12 0 0
v -11 0 0
v -13 -1 0
v -14 -1 0
v -14 0 0
v -13 0 0
v -14 -1 0
v -15 -1 0
v -15 0 0
v -14 0 0
v -5 -2 0
v -6 -2 0
v -6 -1 0
v -5 -1 0
v -6 -2 0
v -7 -2 0
v -7 -1 0
v -6 -1 0
v -13 -2 0
v -14 -2 0
v -14 -1 0
v -13 -1 0
v -14 -2 0
v -15 -2 0
v -15 -1 0
v -14 -1 0
v -15 -2 0
v -16 -2 0
v -16 -1 0
v -15 -1 0
v -5 -3 0
v -6 -3 0
v -6 -2 0
v -5 -2 0
v -6 -3 0
v -7 -3 0
v -7 -2 0
v -6 -2 0
v -9 -3 0
v -10 -3 0
v -10 -2 0
v -9 -2 0
v -10 -3 0
v -11 -3 0
v -11 -2 0
v -10 -2 0
v -13 -3 0
v -14 -3 0
v -14 -2 0
v -13 -2 0
v -14 -3 0
v -15 -3 0
v -15 -2 0
v -14 -2 0
v -15 -3 0
v -16 -3 0
v -16 -2 0
v -15 -2 0
v -9 -4 0
v -10 -4 0
v -10 -3 0
v -9 -3 0
v -10 -4 0
v -11 -4 0
v -11 -3 0
v -10 -3 0
v -13 -4 0
v -14 -4 0
v -14 -3 0
v -13 -3 0
v -14 -4 0
v -15 -4 0
v -15 -3 0
v -14 -3 0
v -15 -4 0
v -16 -4 0
v -16 -3 0
v -15 -3 0
v -6 -5 0
v -7 -5 0
v -7 -4 0
v -6 -4 0
v -7 -5 0
v -8 -5 0
v -8 -4 0
v -7 -4 0
v -12 -5 0
v -13 -5 0
v -13 -4 0
v -12 -4 0

# Texture cooridinates (Count = 53)
vt 0.325 0.3611111
vt 0.35 0.3611111
vt 0.35 0.3888889
vt 0.325 0.3888889
vt 0.25 0.3333333
vt 0.275 0.3333333
vt 0.275 0.3611111
vt 0.25 0.3611111
vt 0.7 0.9166667
vt 0.725 0.9166667
vt 0.725 0.9444444
vt 0.7 0.9444444
vt 0.75 0.9166667
vt 0.75 0.9444444
vt 0.3 0.3333333
vt 0.3 0.3611111
vt 0.15 0.3611111
vt 0.175 0.3611111
vt 0.175 0.3888889
vt 0.15 0.3888889
vt 0.2 0.3611111
vt 0.2 0.3888889
vt 0.275 0.2777778
vt 0.3 0.2777778
vt 0.3 0.3055556
vt 0.275 0.3055556
vt 0.325 0.2777778
vt 0.325 0.3055556
vt 0.35 0.2777778
vt 0.35 0.3055556
vt 0.15 0.3333333
vt 0.175 0.3333333
vt 0.2 0.3333333
vt 0.175 0.2222222
vt 0.2 0.2222222
vt 0.2 0.25
vt 0.175 0.25
vt 0.225 0.2222222
vt 0.225 0.25
vt 0.275 0.25
vt 0.3 0.25
vt 0.325 0.25
vt 0.35 0.25
vt 0.175 0.1944444
vt 0.2 0.1944444
vt 0.225 0.1944444
vt 0.275 0.2222222
vt 0.3 0.2222222
vt 0.325 0.2222222
vt 0.35 0.2222222
vt 0.675 0.8888889
vt 0.7 0.8888889
vt 0.675 0.9166667

# Normal
vn 0 0 -1

# Mesh description
g Antecamara_mesh_0008

# Faces
f 1/1/1 2/2/1 3/3/1 4/4/1
f 5/5/1 6/6/1 7/7/1 8/8/1
f 9/9/1 10/10/1 11/11/1 12/12/1
f 13/10/1 14/13/1 15/14/1 16/11/1
f 17/5/1 18/6/1 19/7/1 20/8/1
f 21/6/1 22/15/1 23/16/1 24/7/1
f 25/17/1 26/18/1 27/19/1 28/20/1
f 29/18/1 30/21/1 31/22/1 32/19/1
f 33/23/1 34/24/1 35/25/1 36/26/1
f 37/24/1 38/27/1 39/28/1 40/25/1
f 41/27/1 42/29/1 43/30/1 44/28/1
f 45/31/1 46/32/1 47/18/1 48/17/1
f 49/32/1 50/33/1 51/21/1 52/18/1
f 53/34/1 54/35/1 55/36/1 56/37/1
f 57/35/1 58/38/1 59/39/1 60/36/1
f 61/40/1 62/41/1 63/24/1 64/23/1
f 65/41/1 66/42/1 67/27/1 68/24/1
f 69/42/1 70/43/1 71/29/1 72/27/1
f 73/44/1 74/45/1 75/35/1 76/34/1
f 77/45/1 78/46/1 79/38/1 80/35/1
f 81/47/1 82/48/1 83/41/1 84/40/1
f 85/48/1 86/49/1 87/42/1 88/41/1
f 89/49/1 90/50/1 91/43/1 92/42/1
f 93/10/1 94/13/1 95/14/1 96/11/1
f 97/51/1 98/52/1 99/9/1 100/53/1
f 101/6/1 102/15/1 103/16/1 104/7/1

