# Tiled2Unity generated file. Do not modify by hand.
# Wavefront file for 'Antecamara_mesh_0007.obj'

# Vertices (Count = 288)
v -1 -12 0
v -2 -12 0
v -2 -11 0
v -1 -11 0
v -2 -12 0
v -3 -12 0
v -3 -11 0
v -2 -11 0
v -3 -12 0
v -4 -12 0
v -4 -11 0
v -3 -11 0
v -4 -12 0
v -5 -12 0
v -5 -11 0
v -4 -11 0
v -5 -12 0
v -6 -12 0
v -6 -11 0
v -5 -11 0
v -6 -12 0
v -7 -12 0
v -7 -11 0
v -6 -11 0
v -14 -12 0
v -15 -12 0
v -15 -11 0
v -14 -11 0
v -15 -12 0
v -16 -12 0
v -16 -11 0
v -15 -11 0
v -16 -12 0
v -17 -12 0
v -17 -11 0
v -16 -11 0
v -17 -12 0
v -18 -12 0
v -18 -11 0
v -17 -11 0
v -18 -12 0
v -19 -12 0
v -19 -11 0
v -18 -11 0
v -19 -12 0
v -20 -12 0
v -20 -11 0
v -19 -11 0
v -1 -13 0
v -2 -13 0
v -2 -12 0
v -1 -12 0
v -2 -13 0
v -3 -13 0
v -3 -12 0
v -2 -12 0
v -3 -13 0
v -4 -13 0
v -4 -12 0
v -3 -12 0
v -4 -13 0
v -5 -13 0
v -5 -12 0
v -4 -12 0
v -5 -13 0
v -6 -13 0
v -6 -12 0
v -5 -12 0
v -6 -13 0
v -7 -13 0
v -7 -12 0
v -6 -12 0
v -14 -13 0
v -15 -13 0
v -15 -12 0
v -14 -12 0
v -15 -13 0
v -16 -13 0
v -16 -12 0
v -15 -12 0
v -16 -13 0
v -17 -13 0
v -17 -12 0
v -16 -12 0
v -17 -13 0
v -18 -13 0
v -18 -12 0
v -17 -12 0
v -18 -13 0
v -19 -13 0
v -19 -12 0
v -18 -12 0
v -19 -13 0
v -20 -13 0
v -20 -12 0
v -19 -12 0
v -1 -14 0
v -2 -14 0
v -2 -13 0
v -1 -13 0
v -2 -14 0
v -3 -14 0
v -3 -13 0
v -2 -13 0
v -3 -14 0
v -4 -14 0
v -4 -13 0
v -3 -13 0
v -4 -14 0
v -5 -14 0
v -5 -13 0
v -4 -13 0
v -5 -14 0
v -6 -14 0
v -6 -13 0
v -5 -13 0
v -6 -14 0
v -7 -14 0
v -7 -13 0
v -6 -13 0
v -14 -14 0
v -15 -14 0
v -15 -13 0
v -14 -13 0
v -15 -14 0
v -16 -14 0
v -16 -13 0
v -15 -13 0
v -16 -14 0
v -17 -14 0
v -17 -13 0
v -16 -13 0
v -17 -14 0
v -18 -14 0
v -18 -13 0
v -17 -13 0
v -18 -14 0
v -19 -14 0
v -19 -13 0
v -18 -13 0
v -19 -14 0
v -20 -14 0
v -20 -13 0
v -19 -13 0
v -1 -15 0
v -2 -15 0
v -2 -14 0
v -1 -14 0
v -2 -15 0
v -3 -15 0
v -3 -14 0
v -2 -14 0
v -3 -15 0
v -4 -15 0
v -4 -14 0
v -3 -14 0
v -4 -15 0
v -5 -15 0
v -5 -14 0
v -4 -14 0
v -5 -15 0
v -6 -15 0
v -6 -14 0
v -5 -14 0
v -6 -15 0
v -7 -15 0
v -7 -14 0
v -6 -14 0
v -14 -15 0
v -15 -15 0
v -15 -14 0
v -14 -14 0
v -15 -15 0
v -16 -15 0
v -16 -14 0
v -15 -14 0
v -16 -15 0
v -17 -15 0
v -17 -14 0
v -16 -14 0
v -17 -15 0
v -18 -15 0
v -18 -14 0
v -17 -14 0
v -18 -15 0
v -19 -15 0
v -19 -14 0
v -18 -14 0
v -19 -15 0
v -20 -15 0
v -20 -14 0
v -19 -14 0
v -1 -16 0
v -2 -16 0
v -2 -15 0
v -1 -15 0
v -2 -16 0
v -3 -16 0
v -3 -15 0
v -2 -15 0
v -3 -16 0
v -4 -16 0
v -4 -15 0
v -3 -15 0
v -4 -16 0
v -5 -16 0
v -5 -15 0
v -4 -15 0
v -5 -16 0
v -6 -16 0
v -6 -15 0
v -5 -15 0
v -6 -16 0
v -7 -16 0
v -7 -15 0
v -6 -15 0
v -14 -16 0
v -15 -16 0
v -15 -15 0
v -14 -15 0
v -15 -16 0
v -16 -16 0
v -16 -15 0
v -15 -15 0
v -16 -16 0
v -17 -16 0
v -17 -15 0
v -16 -15 0
v -17 -16 0
v -18 -16 0
v -18 -15 0
v -17 -15 0
v -18 -16 0
v -19 -16 0
v -19 -15 0
v -18 -15 0
v -19 -16 0
v -20 -16 0
v -20 -15 0
v -19 -15 0
v -1 -17 0
v -2 -17 0
v -2 -16 0
v -1 -16 0
v -2 -17 0
v -3 -17 0
v -3 -16 0
v -2 -16 0
v -3 -17 0
v -4 -17 0
v -4 -16 0
v -3 -16 0
v -4 -17 0
v -5 -17 0
v -5 -16 0
v -4 -16 0
v -5 -17 0
v -6 -17 0
v -6 -16 0
v -5 -16 0
v -6 -17 0
v -7 -17 0
v -7 -16 0
v -6 -16 0
v -14 -17 0
v -15 -17 0
v -15 -16 0
v -14 -16 0
v -15 -17 0
v -16 -17 0
v -16 -16 0
v -15 -16 0
v -16 -17 0
v -17 -17 0
v -17 -16 0
v -16 -16 0
v -17 -17 0
v -18 -17 0
v -18 -16 0
v -17 -16 0
v -18 -17 0
v -19 -17 0
v -19 -16 0
v -18 -16 0
v -19 -17 0
v -20 -17 0
v -20 -16 0
v -19 -16 0

# Texture cooridinates (Count = 49)
vt 0.25 0.21875
vt 0.28125 0.21875
vt 0.28125 0.25
vt 0.25 0.25
vt 0.3125 0.21875
vt 0.3125 0.25
vt 0.34375 0.21875
vt 0.34375 0.25
vt 0.375 0.21875
vt 0.375 0.25
vt 0.40625 0.21875
vt 0.40625 0.25
vt 0.4375 0.21875
vt 0.4375 0.25
vt 0.25 0.1875
vt 0.28125 0.1875
vt 0.3125 0.1875
vt 0.34375 0.1875
vt 0.375 0.1875
vt 0.40625 0.1875
vt 0.4375 0.1875
vt 0.25 0.15625
vt 0.28125 0.15625
vt 0.3125 0.15625
vt 0.34375 0.15625
vt 0.375 0.15625
vt 0.40625 0.15625
vt 0.4375 0.15625
vt 0.25 0.125
vt 0.28125 0.125
vt 0.3125 0.125
vt 0.34375 0.125
vt 0.375 0.125
vt 0.40625 0.125
vt 0.4375 0.125
vt 0.25 0.09375
vt 0.28125 0.09375
vt 0.3125 0.09375
vt 0.34375 0.09375
vt 0.375 0.09375
vt 0.40625 0.09375
vt 0.4375 0.09375
vt 0.25 0.0625
vt 0.28125 0.0625
vt 0.3125 0.0625
vt 0.34375 0.0625
vt 0.375 0.0625
vt 0.40625 0.0625
vt 0.4375 0.0625

# Normal
vn 0 0 -1

# Mesh description
g Antecamara_mesh_0007

# Faces
f 1/1/1 2/2/1 3/3/1 4/4/1
f 5/2/1 6/5/1 7/6/1 8/3/1
f 9/5/1 10/7/1 11/8/1 12/6/1
f 13/7/1 14/9/1 15/10/1 16/8/1
f 17/9/1 18/11/1 19/12/1 20/10/1
f 21/11/1 22/13/1 23/14/1 24/12/1
f 25/1/1 26/2/1 27/3/1 28/4/1
f 29/2/1 30/5/1 31/6/1 32/3/1
f 33/5/1 34/7/1 35/8/1 36/6/1
f 37/7/1 38/9/1 39/10/1 40/8/1
f 41/9/1 42/11/1 43/12/1 44/10/1
f 45/11/1 46/13/1 47/14/1 48/12/1
f 49/15/1 50/16/1 51/2/1 52/1/1
f 53/16/1 54/17/1 55/5/1 56/2/1
f 57/17/1 58/18/1 59/7/1 60/5/1
f 61/18/1 62/19/1 63/9/1 64/7/1
f 65/19/1 66/20/1 67/11/1 68/9/1
f 69/20/1 70/21/1 71/13/1 72/11/1
f 73/15/1 74/16/1 75/2/1 76/1/1
f 77/16/1 78/17/1 79/5/1 80/2/1
f 81/17/1 82/18/1 83/7/1 84/5/1
f 85/18/1 86/19/1 87/9/1 88/7/1
f 89/19/1 90/20/1 91/11/1 92/9/1
f 93/20/1 94/21/1 95/13/1 96/11/1
f 97/22/1 98/23/1 99/16/1 100/15/1
f 101/23/1 102/24/1 103/17/1 104/16/1
f 105/24/1 106/25/1 107/18/1 108/17/1
f 109/25/1 110/26/1 111/19/1 112/18/1
f 113/26/1 114/27/1 115/20/1 116/19/1
f 117/27/1 118/28/1 119/21/1 120/20/1
f 121/22/1 122/23/1 123/16/1 124/15/1
f 125/23/1 126/24/1 127/17/1 128/16/1
f 129/24/1 130/25/1 131/18/1 132/17/1
f 133/25/1 134/26/1 135/19/1 136/18/1
f 137/26/1 138/27/1 139/20/1 140/19/1
f 141/27/1 142/28/1 143/21/1 144/20/1
f 145/29/1 146/30/1 147/23/1 148/22/1
f 149/30/1 150/31/1 151/24/1 152/23/1
f 153/31/1 154/32/1 155/25/1 156/24/1
f 157/32/1 158/33/1 159/26/1 160/25/1
f 161/33/1 162/34/1 163/27/1 164/26/1
f 165/34/1 166/35/1 167/28/1 168/27/1
f 169/29/1 170/30/1 171/23/1 172/22/1
f 173/30/1 174/31/1 175/24/1 176/23/1
f 177/31/1 178/32/1 179/25/1 180/24/1
f 181/32/1 182/33/1 183/26/1 184/25/1
f 185/33/1 186/34/1 187/27/1 188/26/1
f 189/34/1 190/35/1 191/28/1 192/27/1
f 193/36/1 194/37/1 195/30/1 196/29/1
f 197/37/1 198/38/1 199/31/1 200/30/1
f 201/38/1 202/39/1 203/32/1 204/31/1
f 205/39/1 206/40/1 207/33/1 208/32/1
f 209/40/1 210/41/1 211/34/1 212/33/1
f 213/41/1 214/42/1 215/35/1 216/34/1
f 217/36/1 218/37/1 219/30/1 220/29/1
f 221/37/1 222/38/1 223/31/1 224/30/1
f 225/38/1 226/39/1 227/32/1 228/31/1
f 229/39/1 230/40/1 231/33/1 232/32/1
f 233/40/1 234/41/1 235/34/1 236/33/1
f 237/41/1 238/42/1 239/35/1 240/34/1
f 241/43/1 242/44/1 243/37/1 244/36/1
f 245/44/1 246/45/1 247/38/1 248/37/1
f 249/45/1 250/46/1 251/39/1 252/38/1
f 253/46/1 254/47/1 255/40/1 256/39/1
f 257/47/1 258/48/1 259/41/1 260/40/1
f 261/48/1 262/49/1 263/42/1 264/41/1
f 265/43/1 266/44/1 267/37/1 268/36/1
f 269/44/1 270/45/1 271/38/1 272/37/1
f 273/45/1 274/46/1 275/39/1 276/38/1
f 277/46/1 278/47/1 279/40/1 280/39/1
f 281/47/1 282/48/1 283/41/1 284/40/1
f 285/48/1 286/49/1 287/42/1 288/41/1

